<?xml version="1.0" encoding="utf-8"?>
<!-- Generator: Adobe Illustrator 26.3.1, SVG Export Plug-In . SVG Version: 6.00 Build 0)  -->
<svg version="1.1" id="Layer_1" xmlns="http://www.w3.org/2000/svg" xmlns:xlink="http://www.w3.org/1999/xlink" x="0px" y="0px"
	 viewBox="482 360 4110 1000" style="enable-background:new 0 0 5054.3 1726.6;" xml:space="preserve">
<style type="text/css">
	.st0{fill:#f2f2eb;}
</style>
<g>
	<g>
		<path class="st0" d="M825.5,464.7c50.4,0,97.4,8.1,140.9,24.1c43.5,16.1,81.1,40.2,112.9,72.4c31.8,32.2,56.6,72.4,74.6,120.6
			c17.9,48.2,26.9,104.9,26.9,169.9c0,57-7.3,109.6-21.9,157.9c-14.6,48.2-36.7,89.9-66.3,125c-29.6,35.1-66.5,62.7-110.7,82.8
			c-44.2,20.1-96.3,30.1-156.2,30.1H487.8V464.7H825.5z M813.5,1102.9c24.8,0,49-4,72.4-12.1c23.4-8,44.2-21.4,62.5-40
			c18.3-18.6,32.9-42.9,43.9-72.9c11-30,16.4-66.5,16.4-109.6c0-39.5-3.8-75.1-11.5-106.9c-7.7-31.8-20.3-59-37.8-81.7
			c-17.5-22.6-40.8-40-69.6-52.1c-28.9-12.1-64.5-18.1-106.9-18.1H660v493.4H813.5z"/>
		<path class="st0" d="M1378.1,680.7v566.8h-155.7V680.7H1378.1z"/>
		<path class="st0" d="M1566.1,1106.7c6.9,12.1,15.9,21.9,26.9,29.6c11,7.7,23.6,13.3,37.8,17c14.3,3.7,29.1,5.5,44.4,5.5
			c11,0,22.5-1.3,34.5-3.8c12.1-2.6,23-6.6,32.9-12.1c9.9-5.5,18.1-12.8,24.7-21.9c6.6-9.1,9.9-20.6,9.9-34.5
			c0-23.4-15.5-40.9-46.6-52.6c-31.1-11.7-74.4-23.4-129.9-35.1c-22.7-5.1-44.8-11.1-66.3-18.1c-21.6-6.9-40.8-16.1-57.6-27.4
			c-16.8-11.3-30.3-25.6-40.6-42.8c-10.2-17.2-15.4-38.2-15.4-63c0-36.5,7.1-66.5,21.4-89.9c14.3-23.4,33.1-41.8,56.5-55.4
			c23.4-13.5,49.7-23,78.9-28.5c29.2-5.5,59.2-8.2,89.9-8.2c30.7,0,60.5,2.9,89.4,8.8c28.9,5.9,54.6,15.7,77.3,29.6
			c22.6,13.9,41.5,32.3,56.5,55.4c15,23,23.9,52.1,26.9,87.2h-148c-2.2-30-13.5-50.2-34-60.9c-20.5-10.6-44.6-15.9-72.4-15.9
			c-8.8,0-18.3,0.5-28.5,1.6c-10.2,1.1-19.6,3.5-28,7.1c-8.4,3.7-15.5,9-21.4,15.9c-5.9,7-8.8,16.3-8.8,28c0,13.9,5.1,25.2,15.4,34
			c10.2,8.8,23.6,15.9,40,21.4c16.4,5.5,35.3,10.4,56.5,14.8c21.2,4.4,42.8,9.1,64.7,14.3c22.6,5.1,44.8,11.3,66.3,18.6
			c21.6,7.3,40.7,17,57.6,29.1c16.8,12.1,30.3,27,40.6,45c10.2,17.9,15.4,40,15.4,66.3c0,37.3-7.5,68.5-22.5,93.7
			c-15,25.2-34.5,45.5-58.7,60.9c-24.1,15.3-51.7,26.1-82.8,32.3c-31.1,6.2-62.7,9.3-94.8,9.3c-32.9,0-65.1-3.3-96.5-9.9
			c-31.4-6.6-59.4-17.5-83.9-32.9c-24.5-15.4-44.6-35.6-60.3-60.9c-15.7-25.2-24.3-56.8-25.8-94.8h148
			C1555.7,1080.2,1559.2,1094.6,1566.1,1106.7z"/>
		<path class="st0" d="M2228.9,782.7c-24.9,0-45.7,5.7-62.5,17c-16.8,11.3-30.5,26-41.1,43.9c-10.6,17.9-18.1,37.7-22.5,59.2
			c-4.4,21.6-6.6,43-6.6,64.1c0,20.5,2.2,41.3,6.6,62.5c4.4,21.2,11.5,40.4,21.4,57.6c9.9,17.2,23.2,31.2,40,42.2
			c16.8,11,37.3,16.4,61.4,16.4c37.3,0,66-10.4,86.1-31.2c20.1-20.8,32.7-48.8,37.8-83.9h150.2c-10.3,75.3-39.5,132.7-87.7,172.1
			s-110,59.2-185.3,59.2c-42.4,0-81.3-7.1-116.8-21.4c-35.5-14.3-65.6-34.2-90.5-59.8c-24.9-25.6-44.2-56.1-58.1-91.6
			c-13.9-35.4-20.8-74.4-20.8-116.8c0-43.9,6.4-84.6,19.2-122.3c12.8-37.6,31.6-70.2,56.5-97.6c24.8-27.4,55.2-48.8,91-64.1
			c35.8-15.4,76.7-23,122.8-23c33.6,0,66,4.4,97,13.2c31.1,8.8,58.8,22.1,83.3,40c24.5,17.9,44.4,40.2,59.8,66.9
			c15.4,26.7,24.1,58.3,26.3,94.8H2344C2333.8,815.2,2295.4,782.7,2228.9,782.7z"/>
		<path class="st0" d="M2524.9,841.4c13.9-36.9,33.6-68.3,59.2-94.3c25.6-25.9,56.3-46,92.1-60.3c35.8-14.3,76-21.4,120.6-21.4
			c44.6,0,85,7.1,121.2,21.4c36.2,14.3,67.1,34.4,92.6,60.3c25.6,26,45.3,57.4,59.2,94.3c13.9,36.9,20.8,78,20.8,123.3
			c0,45.3-7,86.3-20.8,122.8c-13.9,36.6-33.6,67.8-59.2,93.7c-25.6,26-56.5,45.9-92.6,59.8c-36.2,13.9-76.6,20.8-121.2,20.8
			c-44.6,0-84.8-7-120.6-20.8c-35.8-13.9-66.5-33.8-92.1-59.8c-25.6-25.9-45.3-57.2-59.2-93.7c-13.9-36.5-20.8-77.5-20.8-122.8
			C2504.1,919.4,2511,878.3,2524.9,841.4z M2666.4,1031.1c4.4,21.6,11.9,40.9,22.5,58.1c10.6,17.2,24.7,30.9,42.2,41.1
			c17.5,10.2,39.5,15.4,65.8,15.4s48.4-5.1,66.3-15.4c17.9-10.2,32.2-23.9,42.8-41.1c10.6-17.2,18.1-36.5,22.5-58.1
			c4.4-21.6,6.6-43.7,6.6-66.3c0-22.6-2.2-45-6.6-66.9c-4.4-21.9-11.9-41.3-22.5-58.1c-10.6-16.8-24.9-30.5-42.8-41.1
			c-17.9-10.6-40-15.9-66.3-15.9s-48.2,5.3-65.8,15.9c-17.5,10.6-31.6,24.3-42.2,41.1c-10.6,16.8-18.1,36.2-22.5,58.1
			c-4.4,21.9-6.6,44.2-6.6,66.9C2659.8,987.4,2662,1009.5,2666.4,1031.1z"/>
		<path class="st0" d="M3244.2,1247.6l-194.1-566.8h163.4l119.5,387h2.2l119.5-387h154.6l-191.9,566.8H3244.2z"/>
		<path class="st0" d="M3752.9,1111.6c23.4,22.7,57,34,100.9,34c31.4,0,58.5-7.8,81.1-23.6c22.6-15.7,36.5-32.3,41.7-49.9h137.1
			c-21.9,68-55.6,116.6-100.9,145.8c-45.3,29.2-100.1,43.9-164.5,43.9c-44.6,0-84.8-7.1-120.6-21.4c-35.8-14.3-66.2-34.5-91-60.9
			c-24.9-26.3-44-57.7-57.6-94.3c-13.5-36.5-20.3-76.7-20.3-120.6c0-42.4,6.9-81.9,20.8-118.4c13.9-36.5,33.6-68.1,59.2-94.8
			c25.6-26.7,56.1-47.7,91.6-63c35.4-15.4,74.7-23,117.9-23c48.2,0,90.3,9.3,126.1,28c35.8,18.6,65.2,43.7,88.3,75.1
			c23,31.4,39.6,67.3,49.9,107.5c10.2,40.2,13.9,82.2,11,126.1h-409C3716.7,1052.4,3729.5,1089,3752.9,1111.6z M3928.9,813.4
			c-18.6-20.5-47-30.7-85-30.7c-24.9,0-45.5,4.2-61.9,12.6c-16.5,8.4-29.6,18.8-39.5,31.2c-9.9,12.4-16.8,25.6-20.8,39.5
			c-4,13.9-6.4,26.3-7.1,37.3h253.3C3960.5,863.8,3947.5,833.9,3928.9,813.4z"/>
		<path class="st0" d="M4297.8,680.7V786h2.2c7.3-17.5,17.2-33.8,29.6-48.8c12.4-15,26.7-27.8,42.8-38.4
			c16.1-10.6,33.3-18.8,51.5-24.7c18.3-5.8,37.3-8.8,57-8.8c10.2,0,21.6,1.8,34,5.5v144.7c-7.3-1.5-16.1-2.7-26.3-3.8
			c-10.2-1.1-20.1-1.6-29.6-1.6c-28.5,0-52.6,4.8-72.4,14.3c-19.7,9.5-35.6,22.5-47.7,38.9c-12.1,16.4-20.7,35.6-25.8,57.6
			c-5.1,21.9-7.7,45.7-7.7,71.3v255.5h-155.7V680.7H4297.8z"/>
		<path class="st0" d="M4566.4,1078.7v168.8h-172.1v-168.8H4566.4z"/>
	</g>
	<g>
		<g>
			<g>
				<path class="st0" d="M1282.4,508.5c-8,0-14.9-2.8-19.7-7.6c-1.2-1.1-2.2-2.4-3.1-3.8c-4.5-7-3.2-13.1,1-13.1
					c2.2,0,4.2,0.8,5.7,2.1c0.7,0.6,1.3,1.3,1.7,2.1c0.1,0.2,0.2,0.4,0.3,0.6c0,0,0,0,0,0c2.8,4.9,8.1,8.3,14.1,8.3
					c8.9,0,16.2-7.2,16.2-16.2c0-8.9-7.2-16.2-16.2-16.2c-6.1,0-11.4,3.4-14.2,8.3c-0.1,0.2-0.2,0.3-0.3,0.5c0,0,0,0,0,0
					c-0.5,0.8-1.1,1.5-1.8,2.2c-1.5,1.3-3.5,2.1-5.7,2.1c-2.2,0-4.2-0.8-5.7-2.1c-0.7-0.6-1.3-1.3-1.8-2.1c-0.1-0.2-0.2-0.4-0.3-0.6
					c0,0,0,0,0,0c-0.7-1.3-1.6-2.5-2.7-3.5c-3.2-3.2-7.3-4.7-11.4-4.7c-4.1,0-8.3,1.6-11.4,4.7s-4.7,7.3-4.7,11.4
					c0,4.1,1.6,8.3,4.7,11.4c1.7,1.7,3.6,2.9,5.7,3.7c0,0,0,0,0,0c1.9,0.7,3.8,1.1,5.8,1.1c6.2,0,11.8,1.7,16.2,4.7
					c1.3,0.9,2.5,1.8,3.5,2.9c0,0,0,0,0,0c1.2,1.1,2.2,2.4,3.1,3.8h0c4.5,7,3.2,13.1-1,13.1h0c-2.2,0-4.2-0.8-5.7-2.1
					c-0.7-0.6-1.3-1.3-1.8-2.1c-0.1-0.2-0.2-0.4-0.3-0.5c-2.8-5-8.1-8.3-14.1-8.3c-8.9,0-16.2,7.2-16.2,16.2
					c0,8.9,7.2,16.2,16.2,16.2c6.1,0,11.4-3.4,14.2-8.4c0.1-0.1,0.1-0.3,0.2-0.4c0.5-0.8,1.1-1.6,1.8-2.2c1.5-1.3,3.5-2.2,5.7-2.2
					c2.2,0,4.2,0.8,5.7,2.1c0.7,0.6,1.3,1.3,1.7,2.1c0.1,0.2,0.2,0.4,0.3,0.6c0.7,1.3,1.6,2.4,2.7,3.5c3.2,3.2,7.3,4.7,11.4,4.7
					c4.1,0,8.3-1.6,11.4-4.7c3.2-3.2,4.7-7.3,4.7-11.4c0-4.1-1.6-8.3-4.7-11.4C1290.6,510.1,1286.5,508.5,1282.4,508.5"/>
				<path class="st0" d="M1307,513.2c-3.2,3.2-4.7,7.3-4.7,11.4c0,4.1,1.6,8.3,4.7,11.4c3.2,3.2,7.3,4.7,11.4,4.7
					c4.1,0,8.3-1.6,11.4-4.7c1.1-1.1,2-2.3,2.7-3.5c0.1-0.2,0.2-0.4,0.3-0.6c0.5-0.8,1-1.5,1.7-2.1c1.5-1.3,3.5-2.1,5.7-2.1
					c2.2,0,4.2,0.8,5.7,2.2c0.7,0.6,1.3,1.4,1.8,2.2c0.1,0.1,0.1,0.3,0.2,0.4c2.8,5,8.1,8.4,14.2,8.4c8.9,0,16.2-7.2,16.2-16.2
					c0-8.9-7.2-16.2-16.2-16.2c-6.1,0-11.4,3.4-14.1,8.3c-0.1,0.2-0.2,0.4-0.3,0.5c-0.5,0.8-1.1,1.5-1.8,2.1
					c-1.5,1.3-3.5,2.1-5.7,2.1h0c-4.2,0-5.5-6.2-1-13.1h0c0.9-1.4,2-2.6,3.1-3.8c0,0,0,0,0,0c1.1-1.1,2.3-2,3.5-2.9
					c4.4-3,10-4.7,16.2-4.7c2,0,3.9-0.4,5.8-1.1c0,0,0,0,0,0c2.1-0.8,4-2,5.7-3.7c3.2-3.2,4.7-7.3,4.7-11.4c0-4.1-1.6-8.3-4.7-11.4
					c-3.2-3.2-7.3-4.7-11.4-4.7c-4.1,0-8.3,1.6-11.4,4.7c-1.1,1.1-2,2.3-2.7,3.5c0,0,0,0,0,0c-0.1,0.2-0.2,0.4-0.3,0.6
					c-0.5,0.8-1.1,1.5-1.8,2.1c-1.5,1.3-3.5,2.1-5.7,2.1c-2.2,0-4.2-0.8-5.7-2.1c-0.7-0.6-1.3-1.3-1.8-2.2c0,0,0,0,0,0
					c-0.1-0.2-0.2-0.3-0.3-0.5c-2.8-5-8.1-8.3-14.2-8.3c-8.9,0-16.2,7.2-16.2,16.2c0,8.9,7.2,16.2,16.2,16.2
					c6.1,0,11.3-3.3,14.1-8.3c0,0,0,0,0,0c0.1-0.2,0.2-0.4,0.3-0.6c0.5-0.8,1.1-1.5,1.7-2.1c1.5-1.3,3.5-2.1,5.7-2.1
					c4.2,0,5.5,6.2,1,13.1c-0.9,1.4-2,2.6-3.1,3.8c-4.9,4.8-11.7,7.6-19.7,7.6C1314.3,508.5,1310.1,510.1,1307,513.2"/>
				<path class="st0" d="M1293.8,572c3.2-3.2,4.7-7.3,4.7-11.4c0-4.1-1.6-8.3-4.7-11.4c-3.2-3.2-7.3-4.7-11.4-4.7
					c-4.1,0-8.3,1.6-11.4,4.7c-1.1,1.1-2,2.3-2.7,3.5c-0.1,0.2-0.2,0.4-0.3,0.6c-0.5,0.8-1,1.5-1.7,2.1c-1.5,1.3-3.5,2.1-5.7,2.1
					c-2.2,0-4.2-0.8-5.7-2.2c-0.7-0.6-1.3-1.4-1.8-2.2c-0.1-0.1-0.1-0.3-0.2-0.4c-2.8-5-8.1-8.4-14.2-8.4c-8.9,0-16.2,7.2-16.2,16.2
					c0,8.9,7.2,16.2,16.2,16.2c6.1,0,11.4-3.4,14.1-8.3c0.1-0.2,0.2-0.4,0.3-0.5c0.5-0.8,1.1-1.5,1.8-2.1c1.5-1.3,3.5-2.1,5.7-2.1h0
					c4.2,0,5.5,6.2,1,13.1h0c-0.9,1.4-2,2.6-3.1,3.8c0,0,0,0,0,0c-1.1,1.1-2.3,2-3.5,2.9c-4.4,3-10,4.7-16.2,4.7
					c-2,0-3.9,0.4-5.8,1.1c0,0,0,0,0,0c-2.1,0.8-4,2-5.7,3.7c-3.2,3.2-4.7,7.3-4.7,11.4c0,4.1,1.6,8.3,4.7,11.4s7.3,4.7,11.4,4.7
					c4.1,0,8.3-1.6,11.4-4.7c1.1-1.1,2-2.3,2.7-3.5c0,0,0,0,0,0c0.1-0.2,0.2-0.4,0.3-0.6c0.5-0.8,1.1-1.5,1.8-2.1
					c1.5-1.3,3.5-2.1,5.7-2.1c2.2,0,4.2,0.8,5.7,2.1c0.7,0.6,1.3,1.3,1.8,2.2c0,0,0,0,0,0c0.1,0.2,0.2,0.3,0.3,0.5
					c2.8,5,8.1,8.3,14.2,8.3c8.9,0,16.2-7.2,16.2-16.2c0-8.9-7.2-16.2-16.2-16.2c-6.1,0-11.3,3.3-14.1,8.3c0,0,0,0,0,0
					c-0.1,0.2-0.2,0.4-0.3,0.6c-0.5,0.8-1.1,1.5-1.7,2.1c-1.5,1.3-3.5,2.1-5.7,2.1c-4.2,0-5.5-6.2-1-13.1c0.9-1.4,2-2.6,3.1-3.8
					c4.9-4.8,11.7-7.6,19.7-7.6C1286.5,576.8,1290.6,575.2,1293.8,572"/>
				<path class="st0" d="M1318.4,576.8c8,0,14.9,2.8,19.7,7.6c1.2,1.1,2.2,2.4,3.1,3.8c4.5,7,3.2,13.1-1,13.1
					c-2.2,0-4.2-0.8-5.7-2.1c-0.7-0.6-1.3-1.3-1.7-2.1c-0.1-0.2-0.2-0.4-0.3-0.6c0,0,0,0,0,0c-2.8-4.9-8.1-8.3-14.1-8.3
					c-8.9,0-16.2,7.2-16.2,16.2c0,8.9,7.2,16.2,16.2,16.2c6.1,0,11.4-3.4,14.2-8.3c0.1-0.2,0.2-0.3,0.3-0.5c0,0,0,0,0,0
					c0.5-0.8,1.1-1.5,1.8-2.2c1.5-1.3,3.5-2.1,5.7-2.1c2.2,0,4.2,0.8,5.7,2.1c0.7,0.6,1.3,1.3,1.8,2.1c0.1,0.2,0.2,0.4,0.3,0.6
					c0,0,0,0,0,0c0.7,1.3,1.6,2.5,2.7,3.5c3.2,3.2,7.3,4.7,11.4,4.7c4.1,0,8.3-1.6,11.4-4.7c3.2-3.2,4.7-7.3,4.7-11.4
					s-1.6-8.3-4.7-11.4c-1.7-1.7-3.6-2.9-5.7-3.7c0,0,0,0,0,0c-1.9-0.7-3.8-1.1-5.8-1.1c-6.2,0-11.8-1.7-16.2-4.7
					c-1.3-0.9-2.5-1.8-3.5-2.9c0,0,0,0,0,0c-1.2-1.1-2.2-2.4-3.1-3.8h0c-4.5-7-3.2-13.1,1-13.1h0c2.2,0,4.2,0.8,5.7,2.1
					c0.7,0.6,1.3,1.3,1.8,2.1c0.1,0.2,0.2,0.4,0.3,0.5c2.8,5,8.1,8.3,14.1,8.3c8.9,0,16.2-7.2,16.2-16.2c0-8.9-7.2-16.2-16.2-16.2
					c-6.1,0-11.4,3.4-14.2,8.4c-0.1,0.1-0.1,0.3-0.2,0.4c-0.5,0.8-1.1,1.6-1.8,2.2c-1.5,1.3-3.5,2.2-5.7,2.2c-2.2,0-4.2-0.8-5.7-2.1
					c-0.7-0.6-1.3-1.3-1.7-2.1c-0.1-0.2-0.2-0.4-0.3-0.6c-0.7-1.3-1.6-2.4-2.7-3.5c-3.2-3.2-7.3-4.7-11.4-4.7
					c-4.1,0-8.3,1.6-11.4,4.7c-3.2,3.2-4.7,7.3-4.7,11.4c0,4.1,1.6,8.3,4.7,11.4C1310.1,575.2,1314.3,576.8,1318.4,576.8"/>
			</g>
		</g>
	</g>
</g>
</svg>
