<?xml version="1.0" encoding="utf-8"?>
<!-- Generator: Adobe Illustrator 26.3.1, SVG Export Plug-In . SVG Version: 6.00 Build 0)  -->
<svg version="1.1" id="Layer_1" xmlns="http://www.w3.org/2000/svg" xmlns:xlink="http://www.w3.org/1999/xlink" x="0px" y="0px"
	 viewBox="642 360 3800 1000" xml:space="preserve">
<style type="text/css">
	.st0{fill:#f2f2eb;}
</style>
<g>
	<path class="st0" d="M819.5,365v782.8H647.3V365H819.5z"/>
	<path class="st0" d="M996,581v76.7h2.2c20.5-29.2,45.1-51.9,74-68c28.9-16.1,61.9-24.1,99.2-24.1c35.8,0,68.5,7,98.1,20.8
		c29.6,13.9,52.1,38.4,67.4,73.5c16.8-24.8,39.6-46.8,68.5-65.8c28.9-19,63-28.5,102.5-28.5c30,0,57.7,3.7,83.3,11
		c25.6,7.3,47.5,19,65.8,35.1c18.3,16.1,32.5,37.1,42.8,63c10.2,26,15.4,57.2,15.4,93.7v379.4h-155.7V826.6c0-19-0.7-36.9-2.2-53.7
		c-1.5-16.8-5.5-31.4-12.1-43.9c-6.6-12.4-16.3-22.3-29.1-29.6c-12.8-7.3-30.2-11-52.1-11s-39.7,4.2-53.2,12.6
		c-13.5,8.4-24.1,19.4-31.8,32.9c-7.7,13.5-12.8,28.9-15.4,46c-2.6,17.2-3.8,34.5-3.8,52.1v315.8h-155.7v-318
		c0-16.8-0.4-33.4-1.1-49.9c-0.7-16.4-3.8-31.6-9.3-45.5c-5.5-13.9-14.6-25-27.4-33.4c-12.8-8.4-31.6-12.6-56.5-12.6
		c-7.3,0-17,1.6-29.1,4.9c-12.1,3.3-23.8,9.5-35.1,18.6c-11.3,9.1-21,22.3-29.1,39.5c-8.1,17.2-12.1,39.7-12.1,67.4v328.9H849.1V581
		H996z"/>
	<path class="st0" d="M1765.7,755.3c2.2-36.5,11.3-66.9,27.4-91c16.1-24.1,36.5-43.5,61.4-58.1c24.8-14.6,52.8-25,83.9-31.2
		c31.1-6.2,62.3-9.3,93.7-9.3c28.5,0,57.4,2,86.6,6c29.2,4,55.9,11.9,80,23.6c24.1,11.7,43.9,28,59.2,48.8
		c15.3,20.8,23,48.4,23,82.8v294.9c0,25.6,1.5,50.1,4.4,73.5c2.9,23.4,8,40.9,15.4,52.6h-157.9c-2.9-8.8-5.3-17.7-7.1-26.9
		c-1.8-9.1-3.1-18.5-3.8-28c-24.9,25.6-54.1,43.5-87.7,53.7c-33.6,10.2-68,15.3-103.1,15.3c-27.1,0-52.3-3.3-75.7-9.9
		c-23.4-6.6-43.9-16.8-61.4-30.7c-17.5-13.9-31.2-31.4-41.1-52.6c-9.9-21.2-14.8-46.4-14.8-75.7c0-32.2,5.7-58.7,17-79.5
		c11.3-20.8,25.9-37.4,43.9-49.9c17.9-12.4,38.4-21.7,61.4-28c23-6.2,46.2-11.1,69.6-14.8c23.4-3.6,46.4-6.6,69.1-8.8
		c22.6-2.2,42.8-5.5,60.3-9.9c17.5-4.4,31.4-10.8,41.7-19.2c10.2-8.4,15-20.6,14.3-36.7c0-16.8-2.7-30.2-8.2-40
		c-5.5-9.9-12.8-17.5-21.9-23c-9.1-5.5-19.7-9.1-31.8-11c-12.1-1.8-25-2.7-38.9-2.7c-30.7,0-54.8,6.6-72.4,19.7
		c-17.5,13.2-27.8,35.1-30.7,65.8H1765.7z M2125.3,870.4c-6.6,5.9-14.8,10.4-24.7,13.7c-9.9,3.3-20.5,6-31.8,8.2
		c-11.3,2.2-23.2,4-35.6,5.5c-12.4,1.5-24.9,3.3-37.3,5.5c-11.7,2.2-23.2,5.1-34.5,8.8c-11.3,3.7-21.2,8.6-29.6,14.8
		c-8.4,6.2-15.2,14.1-20.3,23.6c-5.1,9.5-7.7,21.6-7.7,36.2c0,13.9,2.6,25.6,7.7,35.1c5.1,9.5,12.1,17,20.8,22.5
		c8.8,5.5,19,9.3,30.7,11.5c11.7,2.2,23.7,3.3,36.2,3.3c30.7,0,54.4-5.1,71.3-15.4c16.8-10.2,29.2-22.5,37.3-36.7
		c8-14.3,13-28.7,14.8-43.3c1.8-14.6,2.7-26.3,2.7-35.1V870.4z"/>
	<path class="st0" d="M2860.5,1189.5c-6.2,29.2-19.6,56.5-40,81.7c-20.5,25.2-50.1,46.6-88.8,64.1c-38.8,17.5-90.6,26.3-155.7,26.3
		c-27.8,0-56.1-3.5-85-10.4c-28.9-7-55.2-17.7-78.9-32.3c-23.8-14.6-43.5-33.4-59.2-56.5c-15.7-23-24.7-50.6-26.9-82.8h154.6
		c7.3,29.2,21.5,49.5,42.8,60.9c21.2,11.3,45.7,17,73.5,17c43.9,0,75.8-13.2,95.9-39.5c20.1-26.3,29.8-59.6,29-99.8v-74.6h-2.2
		c-16.8,30-40.8,52.1-71.8,66.3c-31.1,14.3-63.8,21.4-98.1,21.4c-42.4,0-78.9-7.5-109.6-22.5c-30.7-15-55.9-35.4-75.7-61.4
		c-19.7-25.9-34.2-56.3-43.3-91c-9.1-34.7-13.7-71.4-13.7-110.2c0-36.5,5.3-71.8,15.9-105.8c10.6-34,26.1-63.9,46.6-89.9
		c20.5-25.9,45.9-46.6,76.2-61.9c30.3-15.4,65.2-23,104.7-23c37.3,0,70,7,98.1,20.8c28.1,13.9,51.7,37.3,70.7,70.2h2.2V581h148
		v530.7C2869.8,1134.3,2866.6,1160.2,2860.5,1189.5z M2647.2,1000.9c16.8-8.8,30.7-20.5,41.7-35.1c11-14.6,19.2-31.2,24.7-49.9
		c5.5-18.6,8.2-38.2,8.2-58.7c0-23.4-2.2-45.5-6.6-66.3c-4.4-20.8-11.7-39.3-21.9-55.4c-10.2-16.1-23.8-28.9-40.6-38.4
		c-16.8-9.5-38-14.3-63.6-14.3c-21.9,0-40.8,4.4-56.5,13.2c-15.7,8.8-28.9,20.7-39.5,35.6c-10.6,15-18.3,32.2-23,51.5
		c-4.8,19.4-7.1,39.7-7.1,60.9c0,20.5,2,40.8,6,60.9c4,20.1,11,38.2,20.8,54.3c9.9,16.1,22.8,29.2,38.9,39.5
		c16.1,10.2,36.2,15.4,60.3,15.4C2611,1014.1,2630.4,1009.7,2647.2,1000.9z"/>
	<path class="st0" d="M3067.1,581v566.8h-155.7V581H3067.1z"/>
	<path class="st0" d="M3250.2,581v78.9h3.3c19.7-32.9,45.3-56.8,76.7-71.8c31.4-15,63.6-22.5,96.5-22.5c41.7,0,75.8,5.7,102.5,17
		c26.7,11.3,47.7,27,63,47.1c15.4,20.1,26.1,44.6,32.3,73.5c6.2,28.9,9.3,60.9,9.3,95.9v348.7h-155.7V827.7
		c0-46.8-7.3-81.7-21.9-104.7c-14.6-23-40.6-34.5-77.8-34.5c-42.4,0-73.1,12.6-92.1,37.8c-19,25.2-28.5,66.7-28.5,124.4v297.1
		h-155.7V581H3250.2z"/>
	<path class="st0" d="M3853.2,1011.9c23.4,22.7,57,34,100.9,34c31.4,0,58.5-7.8,81.1-23.6c22.6-15.7,36.5-32.3,41.7-49.9H4214
		c-21.9,68-55.6,116.6-100.9,145.8c-45.3,29.2-100.1,43.9-164.5,43.9c-44.6,0-84.8-7.1-120.6-21.4c-35.8-14.3-66.2-34.5-91-60.9
		c-24.9-26.3-44-57.7-57.6-94.3c-13.5-36.5-20.3-76.7-20.3-120.6c0-42.4,6.9-81.9,20.8-118.4c13.9-36.5,33.6-68.1,59.2-94.8
		c25.6-26.7,56.1-47.7,91.6-63c35.4-15.4,74.7-23,117.9-23c48.2,0,90.3,9.3,126.1,28c35.8,18.6,65.2,43.7,88.3,75.1
		c23,31.4,39.6,67.3,49.9,107.5c10.2,40.2,13.9,82.2,11,126.1h-409C3817,952.7,3829.8,989.2,3853.2,1011.9z M4029.2,713.6
		c-18.6-20.5-47-30.7-85-30.7c-24.9,0-45.5,4.2-61.9,12.6c-16.5,8.4-29.6,18.8-39.5,31.2c-9.9,12.4-16.8,25.6-20.8,39.5
		c-4,13.9-6.4,26.3-7.1,37.3h253.3C4060.8,764.1,4047.8,734.1,4029.2,713.6z"/>
	<path class="st0" d="M4406.9,979v168.8h-172.1V979H4406.9z"/>
	<g>
		<g>
			<g>
				<path class="st0" d="M2970.9,408.8c-8,0-14.9-2.8-19.7-7.6c-1.2-1.1-2.2-2.4-3.1-3.8c-4.5-7-3.2-13.1,1-13.1
					c2.2,0,4.2,0.8,5.7,2.1c0.7,0.6,1.3,1.3,1.7,2.1c0.1,0.2,0.2,0.4,0.3,0.6c0,0,0,0,0,0c2.8,4.9,8.1,8.3,14.1,8.3
					c8.9,0,16.2-7.2,16.2-16.2c0-8.9-7.2-16.2-16.2-16.2c-6.1,0-11.4,3.4-14.2,8.3c-0.1,0.2-0.2,0.3-0.3,0.5c0,0,0,0,0,0
					c-0.5,0.8-1.1,1.5-1.8,2.2c-1.5,1.3-3.5,2.1-5.7,2.1c-2.2,0-4.2-0.8-5.7-2.1c-0.7-0.6-1.3-1.3-1.8-2.1c-0.1-0.2-0.2-0.4-0.3-0.6
					c0,0,0,0,0,0c-0.7-1.3-1.6-2.5-2.7-3.5c-3.2-3.2-7.3-4.7-11.4-4.7c-4.1,0-8.3,1.6-11.4,4.7c-3.2,3.2-4.7,7.3-4.7,11.4
					s1.6,8.3,4.7,11.4c1.7,1.7,3.6,2.9,5.7,3.7c0,0,0,0,0,0c1.9,0.7,3.8,1.1,5.8,1.1c6.2,0,11.8,1.7,16.2,4.7
					c1.3,0.9,2.5,1.8,3.5,2.9c0,0,0,0,0,0c1.2,1.1,2.2,2.4,3.1,3.8h0c4.5,7,3.2,13.1-1,13.1h0c-2.2,0-4.2-0.8-5.7-2.1
					c-0.7-0.6-1.3-1.3-1.8-2.1c-0.1-0.2-0.2-0.4-0.3-0.5c-2.8-5-8.1-8.3-14.1-8.3c-8.9,0-16.2,7.2-16.2,16.2
					c0,8.9,7.2,16.2,16.2,16.2c6.1,0,11.4-3.4,14.2-8.4c0.1-0.1,0.1-0.3,0.2-0.4c0.5-0.8,1.1-1.6,1.8-2.2c1.5-1.3,3.5-2.2,5.7-2.2
					c2.2,0,4.2,0.8,5.7,2.1c0.7,0.6,1.3,1.3,1.7,2.1c0.1,0.2,0.2,0.4,0.3,0.6c0.7,1.3,1.6,2.4,2.7,3.5c3.2,3.2,7.3,4.7,11.4,4.7
					c4.1,0,8.3-1.6,11.4-4.7s4.7-7.3,4.7-11.4c0-4.1-1.6-8.3-4.7-11.4C2979.2,410.4,2975,408.8,2970.9,408.8"/>
				<path class="st0" d="M2995.5,413.6c-3.2,3.2-4.7,7.3-4.7,11.4c0,4.1,1.6,8.3,4.7,11.4c3.2,3.2,7.3,4.7,11.4,4.7
					c4.1,0,8.3-1.6,11.4-4.7c1.1-1.1,2-2.3,2.7-3.5c0.1-0.2,0.2-0.4,0.3-0.6c0.5-0.8,1-1.5,1.7-2.1c1.5-1.3,3.5-2.1,5.7-2.1
					c2.2,0,4.2,0.8,5.7,2.2c0.7,0.6,1.3,1.4,1.8,2.2c0.1,0.1,0.1,0.3,0.2,0.4c2.8,5,8.1,8.4,14.2,8.4c8.9,0,16.2-7.2,16.2-16.2
					c0-8.9-7.2-16.2-16.2-16.2c-6.1,0-11.4,3.4-14.1,8.3c-0.1,0.2-0.2,0.4-0.3,0.5c-0.5,0.8-1.1,1.5-1.8,2.1
					c-1.5,1.3-3.5,2.1-5.7,2.1h0c-4.2,0-5.5-6.2-1-13.1h0c0.9-1.4,2-2.6,3.1-3.8c0,0,0,0,0,0c1.1-1.1,2.3-2,3.5-2.9
					c4.4-3,10-4.7,16.2-4.7c2,0,3.9-0.4,5.8-1.1c0,0,0,0,0,0c2.1-0.8,4-2,5.7-3.7c3.2-3.2,4.7-7.3,4.7-11.4c0-4.1-1.6-8.3-4.7-11.4
					c-3.2-3.2-7.3-4.7-11.4-4.7c-4.1,0-8.3,1.6-11.4,4.7c-1.1,1.1-2,2.3-2.7,3.5c0,0,0,0,0,0c-0.1,0.2-0.2,0.4-0.3,0.6
					c-0.5,0.8-1.1,1.5-1.8,2.1c-1.5,1.3-3.5,2.1-5.7,2.1c-2.2,0-4.2-0.8-5.7-2.1c-0.7-0.6-1.3-1.3-1.8-2.2c0,0,0,0,0,0
					c-0.1-0.2-0.2-0.3-0.3-0.5c-2.8-5-8.1-8.3-14.2-8.3c-8.9,0-16.2,7.2-16.2,16.2c0,8.9,7.2,16.2,16.2,16.2
					c6.1,0,11.3-3.3,14.1-8.3c0,0,0,0,0,0c0.1-0.2,0.2-0.4,0.3-0.6c0.5-0.8,1.1-1.5,1.7-2.1c1.5-1.3,3.5-2.1,5.7-2.1
					c4.2,0,5.5,6.2,1,13.1c-0.9,1.4-2,2.6-3.1,3.8c-4.9,4.8-11.7,7.6-19.7,7.6C3002.8,408.8,2998.6,410.4,2995.5,413.6"/>
				<path class="st0" d="M2982.3,472.4c3.2-3.2,4.7-7.3,4.7-11.4c0-4.1-1.6-8.3-4.7-11.4s-7.3-4.7-11.4-4.7c-4.1,0-8.3,1.6-11.4,4.7
					c-1.1,1.1-2,2.3-2.7,3.5c-0.1,0.2-0.2,0.4-0.3,0.6c-0.5,0.8-1,1.5-1.7,2.1c-1.5,1.3-3.5,2.1-5.7,2.1c-2.2,0-4.2-0.8-5.7-2.2
					c-0.7-0.6-1.3-1.4-1.8-2.2c-0.1-0.1-0.1-0.3-0.2-0.4c-2.8-5-8.1-8.4-14.2-8.4c-8.9,0-16.2,7.2-16.2,16.2
					c0,8.9,7.2,16.2,16.2,16.2c6.1,0,11.4-3.4,14.1-8.3c0.1-0.2,0.2-0.4,0.3-0.5c0.5-0.8,1.1-1.5,1.8-2.1c1.5-1.3,3.5-2.1,5.7-2.1h0
					c4.2,0,5.5,6.2,1,13.1h0c-0.9,1.4-2,2.6-3.1,3.8c0,0,0,0,0,0c-1.1,1.1-2.3,2-3.5,2.9c-4.4,3-10,4.7-16.2,4.7
					c-2,0-3.9,0.4-5.8,1.1c0,0,0,0,0,0c-2.1,0.8-4,2-5.7,3.7c-3.2,3.2-4.7,7.3-4.7,11.4c0,4.1,1.6,8.3,4.7,11.4
					c3.2,3.2,7.3,4.7,11.4,4.7c4.1,0,8.3-1.6,11.4-4.7c1.1-1.1,2-2.3,2.7-3.5c0,0,0,0,0,0c0.1-0.2,0.2-0.4,0.3-0.6
					c0.5-0.8,1.1-1.5,1.8-2.1c1.5-1.3,3.5-2.1,5.7-2.1c2.2,0,4.2,0.8,5.7,2.1c0.7,0.6,1.3,1.3,1.8,2.2c0,0,0,0,0,0
					c0.1,0.2,0.2,0.3,0.3,0.5c2.8,5,8.1,8.3,14.2,8.3c8.9,0,16.2-7.2,16.2-16.2c0-8.9-7.2-16.2-16.2-16.2c-6.1,0-11.3,3.3-14.1,8.3
					c0,0,0,0,0,0c-0.1,0.2-0.2,0.4-0.3,0.6c-0.5,0.8-1.1,1.5-1.7,2.1c-1.5,1.3-3.5,2.1-5.7,2.1c-4.2,0-5.5-6.2-1-13.1
					c0.9-1.4,2-2.6,3.1-3.8c4.9-4.8,11.7-7.6,19.7-7.6C2975,477.1,2979.2,475.5,2982.3,472.4"/>
				<path class="st0" d="M3006.9,477.1c8,0,14.9,2.8,19.7,7.6c1.2,1.1,2.2,2.4,3.1,3.8c4.5,7,3.2,13.1-1,13.1
					c-2.2,0-4.2-0.8-5.7-2.1c-0.7-0.6-1.3-1.3-1.7-2.1c-0.1-0.2-0.2-0.4-0.3-0.6c0,0,0,0,0,0c-2.8-4.9-8.1-8.3-14.1-8.3
					c-8.9,0-16.2,7.2-16.2,16.2c0,8.9,7.2,16.2,16.2,16.2c6.1,0,11.4-3.4,14.2-8.3c0.1-0.2,0.2-0.3,0.3-0.5c0,0,0,0,0,0
					c0.5-0.8,1.1-1.5,1.8-2.2c1.5-1.3,3.5-2.1,5.7-2.1c2.2,0,4.2,0.8,5.7,2.1c0.7,0.6,1.3,1.3,1.8,2.1c0.1,0.2,0.2,0.4,0.3,0.6
					c0,0,0,0,0,0c0.7,1.3,1.6,2.5,2.7,3.5c3.2,3.2,7.3,4.7,11.4,4.7c4.1,0,8.3-1.6,11.4-4.7c3.2-3.2,4.7-7.3,4.7-11.4
					s-1.6-8.3-4.7-11.4c-1.7-1.7-3.6-2.9-5.7-3.7c0,0,0,0,0,0c-1.9-0.7-3.8-1.1-5.8-1.1c-6.2,0-11.8-1.7-16.2-4.7
					c-1.3-0.9-2.5-1.8-3.5-2.9c0,0,0,0,0,0c-1.2-1.1-2.2-2.4-3.1-3.8h0c-4.5-7-3.2-13.1,1-13.1h0c2.2,0,4.2,0.8,5.7,2.1
					c0.7,0.6,1.3,1.3,1.8,2.1c0.1,0.2,0.2,0.4,0.3,0.5c2.8,5,8.1,8.3,14.1,8.3c8.9,0,16.2-7.2,16.2-16.2c0-8.9-7.2-16.2-16.2-16.2
					c-6.1,0-11.4,3.4-14.2,8.4c-0.1,0.1-0.1,0.3-0.2,0.4c-0.5,0.8-1.1,1.6-1.8,2.2c-1.5,1.3-3.5,2.2-5.7,2.2c-2.2,0-4.2-0.8-5.7-2.1
					c-0.7-0.6-1.3-1.3-1.7-2.1c-0.1-0.2-0.2-0.4-0.3-0.6c-0.7-1.3-1.6-2.4-2.7-3.5c-3.2-3.2-7.3-4.7-11.4-4.7
					c-4.1,0-8.3,1.6-11.4,4.7s-4.7,7.3-4.7,11.4c0,4.1,1.6,8.3,4.7,11.4S3002.8,477.1,3006.9,477.1"/>
			</g>
		</g>
	</g>
</g>
</svg>
