<?xml version="1.0" standalone="no"?>
<!DOCTYPE svg PUBLIC "-//W3C//DTD SVG 1.1//EN" "http://www.w3.org/Graphics/SVG/1.1/DTD/svg11.dtd" >
<svg xmlns="http://www.w3.org/2000/svg" xmlns:xlink="http://www.w3.org/1999/xlink" version="1.1">
<metadata></metadata>
<defs>
<font id="bodoni_72book" horiz-adv-x="1091" >
<font-face units-per-em="2048" ascent="1638" descent="-410" />
<missing-glyph horiz-adv-x="380" />
<glyph horiz-adv-x="0" />
<glyph horiz-adv-x="682" />
<glyph unicode=" "  horiz-adv-x="380" />
<glyph unicode="&#x09;" horiz-adv-x="380" />
<glyph unicode="&#xa0;" horiz-adv-x="380" />
<glyph unicode="!" horiz-adv-x="729" d="M479 1305q-90 -525 -88 -914q0 -45 -26 -45q-27 0 -27 41q2 385 -90 918q44 85 45 86q35 57 69 57q27 0 42 -18q16 -19 65 -107zM473 98q0 -44 -32 -78q-31 -32 -78 -32q-48 0 -79 31q-32 32 -32 79q0 48 33 79q34 32 80 32q45 0 76 -33q32 -34 32 -78z" />
<glyph unicode="&#x22;" d="M909 1360q0 -58 -82 -158q-106 -130 -202 -325q-24 -52 -45 -52q-29 0 -29 25q0 5 6 20q72 158 123 363q30 125 60 168t87 43q82 0 82 -84zM539 1360q0 -58 -82 -158q-103 -125 -203 -325q-24 -52 -45 -52q-29 0 -29 25q0 5 6 20q73 157 123 363q29 122 61 168 q30 43 87 43q82 0 82 -84z" />
<glyph unicode="#" d="M981 889h-199l-71 -248h196v-117h-229l-107 -366h-82l107 366h-244l-104 -366h-82l106 366h-178v119h211l72 246h-211v119h246l104 366h82l-104 -366h241l107 366h82l-107 -366h164v-119zM700 889h-241l-72 -246h244z" />
<glyph unicode="$" d="M940 393q0 -156 -101 -266t-261 -133v-170q0 -28 -6 -38q-4 -7 -19 -7q-29 0 -29 45v166q-137 1 -229 55q-141 82 -141 217q0 69 35 111q36 43 94 43q48 0 82 -31q32 -29 32 -76q0 -108 -106 -108q-17 0 -27 2t-18 2q-15 0 -15 -15q0 -58 93 -110q91 -51 200 -51v592 q-134 63 -221 137q-119 99 -119 250q0 139 97 239q95 98 243 109v141q0 37 27 37t27 -41v-135q134 -6 208 -68q103 -86 103 -196q0 -52 -32 -89q-31 -36 -79 -36q-104 0 -104 98t108 104q19 0 19 13q0 50 -80 100q-52 32 -143 33v-510q210 -101 272 -174q90 -105 90 -240z M524 831v480q-176 -39 -176 -213q0 -105 39 -163q40 -60 137 -104zM776 299q0 108 -42 171q-41 61 -156 122v-557q198 37 198 264z" />
<glyph unicode="%" horiz-adv-x="1464" d="M1415 317q0 -185 -143 -286q-68 -49 -172 -49q-149 0 -243 98q-95 100 -95 252q0 150 93 246t239 96q134 0 217 -84q104 -107 104 -273zM1174 1444l-787 -1444h-96l737 1358q-101 -62 -229 -62q-91 0 -176 33q77 -110 77 -242q0 -144 -88 -239q-88 -96 -227 -96 q-147 0 -241 98q-95 100 -95 250q0 145 92 245q91 99 230 99q73 0 231 -55q120 -41 205 -41q133 0 270 96h97zM528 1120q0 136 -41 226q-30 67 -108 67q-160 0 -160 -307q0 -320 164 -320q80 0 115 93q30 83 30 241zM1243 354q0 131 -41 221q-30 68 -110 68 q-160 0 -160 -307q0 -320 166 -320q77 0 112 93q33 85 33 245z" />
<glyph unicode="&#x26;" horiz-adv-x="1492" d="M1473 854q0 -12 -14 -14t-95 -6q-62 -1 -82 -15q-20 -13 -27 -63q-46 -253 -178 -461q51 -83 60 -102q50 -100 95 -123q49 -25 185 -31q43 -1 43 -23q0 -16 -28 -16q-52 0 -189 6q-62 2 -63 2q-63 0 -148 -8q-8 24 -69 131l-11 16q-164 -174 -428 -174q-200 0 -329 109 q-127 108 -127 283q0 290 360 458q-6 8 -27 29q-102 104 -130 153q-25 43 -25 115q0 146 95 236t247 90q146 0 234 -75q89 -75 89 -195q0 -196 -284 -310q3 -4 15 -18t37 -42.5t50 -57.5q184 -211 318 -406q145 233 145 434q0 44 -18 52q-19 8 -132 8q-61 0 -61 20 q0 16 35 16h332q92 0 102 -2q23 -6 23 -16zM754 1155q0 112 -51 186q-49 72 -130 72q-83 0 -135 -54q-53 -55 -53 -136q0 -151 221 -330q148 80 148 262zM928 188q-125 219 -477 611q-101 -77 -143 -156t-42 -192q0 -173 98 -291q98 -117 242 -117q183 0 322 145z" />
<glyph unicode="'" horiz-adv-x="729" d="M543 1360q0 -58 -82 -158q-103 -125 -203 -325q-24 -52 -45 -52q-29 0 -29 25q0 5 6 20q73 157 123 363q29 122 61 168q30 43 87 43q82 0 82 -84z" />
<glyph unicode="(" horiz-adv-x="624" d="M510 1442q0 -12 -14 -37q-179 -337 -179 -848q0 -519 175 -836q16 -29 16 -40q0 -15 -12 -15q-17 0 -68 66q-129 168 -211 398t-82 425q0 420 273 805q68 98 86 98q16 0 16 -16z" />
<glyph unicode=")" horiz-adv-x="624" d="M489 569q0 -446 -305 -850q-41 -53 -53 -53q-16 0 -16 17q0 11 14 36q180 332 180 848q0 266 -41 460q-40 190 -137 376q-16 29 -16 41q0 14 12 14q19 0 68 -63q73 -94 145 -244q149 -307 149 -582z" />
<glyph unicode="*" d="M907 1075q0 -22 -43 -18q-32 -1 -47 -7q-9 -3 -45 -36q-6 -8 -18 -8t-49 34q-57 52 -123 64q27 -85 92 -150q12 -12 12 -20q0 -3 -22 -34q-24 -33 -25 -74q-1 -42 -18 -42q-14 0 -35 45q-17 36 -41 48q-37 22 -37 36q0 9 18 52q23 55 23 106q0 11 -2 27 q-65 -45 -109 -129q-12 -23 -24 -23q-6 0 -11 4q-40 19 -57 19q-7 0 -57 -13q-6 -2 -17 -2q-18 0 -18 13q0 14 20 28q24 23 35 38q11 16 17 50q8 27 32 27q4 0 52 -8h16q57 0 111 22q-57 53 -160 68q-29 5 -29 25q0 10 2 24v19q0 23 -26 61q-15 21 -15 33t15 12q1 0 71 -35 l8 -4l68 6q19 0 25 -49q11 -79 61 -135q21 53 21 98t-7 66q-2 8 -2 16q0 17 29 25q49 12 76 49q21 29 35 29q16 0 16 -17q0 -8 -5 -33t-5 -34q0 -26 14 -54q6 -15 6 -20q0 -16 -39 -37q-73 -37 -110 -102q22 -2 30 -2q56 0 129 36q20 9 29 9q12 0 27 -23q20 -31 42 -44 q13 -7 50 -21q14 -6 14 -15z" />
<glyph unicode="+" d="M971 651h-387v-381h-74v381h-389v74h389v379h74v-379h387v-74z" />
<glyph unicode="," horiz-adv-x="530" d="M442 12q0 -150 -114 -217q-82 -49 -135 -49q-17 0 -17 12q0 13 21 17q172 40 172 176q0 83 -45 112q0 -75 -76 -75q-40 0 -67 27t-27 69q0 53 34 87t88 34q74 0 120 -54q46 -53 46 -139z" />
<glyph unicode="-" horiz-adv-x="624" d="M594 406h-563v106h563v-106z" />
<glyph unicode="." horiz-adv-x="530" d="M373 96q0 -45 -32 -77q-31 -31 -77 -31q-48 0 -79 31t-31 79q0 46 31 77q32 32 79 32q45 0 77 -32t32 -79z" />
<glyph unicode="/" horiz-adv-x="1001" d="M973 1487l-846 -1548h-100l845 1548h101z" />
<glyph unicode="0" d="M1020 686q0 -182 -54 -344q-53 -160 -149 -260q-101 -107 -256 -107q-213 0 -351 209q-138 208 -138 535q0 378 194 594q117 131 287 131q201 0 319 -182q148 -227 148 -576zM799 760q0 305 -68 504q-51 151 -180 151q-258 0 -258 -686q0 -719 272 -719q127 0 183 209 q51 190 51 541z" />
<glyph unicode="1" d="M866 14q0 -16 -45 -16h-24h-78q-104 2 -158 2q-128 0 -180 -2t-62 -2q-49 0 -49 18q0 19 29 19q28 0 96 2q64 2 69 32q5 33 5 128v962q0 67 -4 78q-5 12 -29 12q-16 0 -133 -10q-32 -2 -33 -2q-24 0 -24 14q0 17 24 19q97 11 195 58q97 47 158 114q23 18 30 18 q17 0 17 -20v-39q-2 -22 -2 -37v-1225q0 -75 7 -86q8 -13 50 -14l47 -2l35 -2h31q28 0 28 -19z" />
<glyph unicode="2" d="M1010 385q0 -9 -4 -33q-10 -66 -33 -334l-2 -24q-201 10 -482 10q-159 0 -272 -4q-33 -1 -78 -3l-33 -1q-55 0 -55 20q0 17 107 103q252 205 364 340q189 228 189 534q0 207 -86 314q-66 82 -185 82q-116 0 -184 -72q-53 -56 -53 -111q0 -36 55 -37q143 -6 143 -125 q0 -112 -118 -112q-76 0 -121 47t-45 129q0 153 106 244q107 92 281 92q175 0 289 -111q133 -129 133 -336q0 -225 -152 -418q-152 -192 -510 -417q120 4 340 4q165 0 215 5q45 4 80 26q28 18 49 137q15 82 41 82q21 0 21 -31z" />
<glyph unicode="3" d="M971 399q0 -168 -137 -290q-152 -134 -388 -134q-191 0 -282 91q-58 58 -58 131q0 64 40 101q41 38 108 38q52 0 88 -31q35 -30 35 -78q0 -71 -96 -112q-39 -17 -39 -33q0 -27 53 -48q55 -22 117 -22q155 0 253 107q97 106 97 278q0 346 -311 346q-25 0 -45 -2h-15 q-26 0 -26 19q0 15 49 22q143 21 221 106q78 86 78 218q0 130 -68 210q-67 79 -182 79q-84 0 -147 -36q-62 -35 -62 -83q0 -19 29 -25q135 -33 135 -112q0 -105 -109 -105q-68 0 -111 41q-42 41 -42 109q0 110 95 185q94 75 265 75q194 0 297 -101q102 -101 102 -233 q0 -184 -174 -272q-64 -31 -198 -52v-14q167 -6 274 -76q154 -103 154 -297z" />
<glyph unicode="4" d="M1030 225q0 -20 -20 -20t-24 23q-5 25 -15 128q-5 17 -17 25q-22 14 -108 14q-15 0 -43 -2l2 -321q11 -25 34 -31q24 -6 115 -6q46 0 54 -8q2 -6 2 -13q0 -14 -82 -14q-124 0 -459 -4q-28 -2 -45 -2q-41 0 -41 20t59 19q75 -2 127 8q26 5 31 21q6 18 6 77v248 q-54 2 -94 2h-84q-17 0 -63 -2h-39l-260 6q-29 2 -29 17q0 11 301 424q17 24 154.5 217t261.5 368q15 21 28 21q21 0 21 -39v-963h20q67 0 110 8q40 7 40 41l-2 89v-1q2 74 22 74q29 0 29 -57v-92l2 -148q1 -58 4 -95q2 -26 2 -32zM618 1139q-31 -49 -86 -125 q-166 -230 -272 -373l-145 -199q76 -6 325 -6q62 0 166 2v146q0 102 6 276q6 206 6 279z" />
<glyph unicode="5" d="M963 461q0 -263 -201 -402q-122 -84 -313 -84q-193 0 -283 101q-49 55 -49 131q0 62 41 103q40 40 106 40q52 0 89 -31q36 -30 36 -75q0 -76 -100 -115q-45 -17 -45 -37q0 -32 60 -58q61 -26 134 -26q144 0 215 98q99 135 99 365q0 169 -78 260q-78 92 -221 92 q-111 0 -244 -84q12 461 18 582q2 69 31 85q28 15 156 15h69q66 -2 78 -2h70q138 0 165 5q23 4 29 34q8 47 29 47q20 0 20 -22q0 -13 -2 -23l-4 -47q-11 -115 -42 -142q-33 -28 -154 -28l-391 2q-9 -85 -15 -420q120 54 244 54q209 0 332 -112q121 -111 121 -306z" />
<glyph unicode="6" d="M997 457q0 -201 -120 -340q-122 -142 -289 -142q-211 0 -342 175t-131 452q0 256 111 467q110 210 298 307q157 80 340 80q43 0 43 -16t-28 -17q-186 -17 -326 -133q-184 -151 -217 -516q113 107 254 107q114 0 215 -62q192 -117 192 -362zM786 451q0 380 -235 380 q-107 0 -164 -91q-57 -92 -57 -255q0 -235 84 -381q53 -92 155 -92q217 0 217 439z" />
<glyph unicode="7" d="M1071 1403q0 -13 -237 -383q-134 -208 -183 -327q-49 -117 -49 -234q0 -57 29 -234q10 -59 10 -104q0 -146 -109 -146q-129 0 -129 224q0 206 191 544q128 224 313 496h-311q-229 0 -279 -2q-43 -1 -62 -14q-17 -11 -25 -34q-3 -9 -33 -145q-7 -24 -25 -24q-20 0 -20 24 q0 27 10 80q22 120 28 213q5 64 27 88q23 0 84 -4q166 -8 225 -8l424 4q11 0 35 2h21q65 0 65 -16z" />
<glyph unicode="8" d="M1012 389q0 -205 -170 -330q-114 -84 -285 -84q-183 0 -307 82q-170 111 -170 312q0 305 330 387v10q-125 35 -196 118t-71 197q0 159 110 261t284 102q151 0 251 -74q144 -106 144 -274q0 -122 -72 -216q-73 -95 -178 -116l2 -8q328 -66 328 -367zM729 1092 q0 184 -65 268q-39 51 -125 51q-193 0 -193 -321q0 -314 207 -314q91 0 129 68q47 89 47 248zM803 369q0 372 -250 372q-126 0 -195 -95q-69 -94 -69 -263q0 -173 72 -274t200 -101q109 0 160 62q82 98 82 299z" />
<glyph unicode="9" d="M977 813q0 -269 -124 -486q-125 -218 -325 -302q-148 -62 -295 -62q-53 0 -53 14q0 12 29 17q346 45 475 344q51 122 72 307q-112 -106 -254 -106q-136 0 -246 82q-162 119 -162 350q0 197 120 335t290 138q209 0 341 -176q132 -175 132 -455zM762 948q0 233 -86 369 q-60 92 -162 92q-211 0 -211 -442q0 -379 236 -379q103 0 163 95t60 265z" />
<glyph unicode=":" horiz-adv-x="530" d="M373 799q0 -44 -31 -77q-30 -32 -78 -32q-47 0 -79 32q-31 31 -31 79q0 46 31 77t79 31q46 0 77 -31q32 -32 32 -79zM373 96q0 -45 -32 -77q-31 -31 -77 -31q-48 0 -79 31t-31 79q0 46 31 77q32 32 79 32q45 0 77 -32t32 -79z" />
<glyph unicode=";" horiz-adv-x="530" d="M379 801q0 -47 -32 -79t-77 -32q-47 0 -79 32q-31 31 -31 79q0 46 31 77t79 31q46 0 77 -31q32 -32 32 -77zM449 12q0 -149 -115 -217q-83 -49 -133 -49q-19 0 -19 12q0 13 21 17q172 40 172 180q0 78 -41 108v-8q0 -71 -80 -71q-44 0 -72 29t-28 73q0 54 36 89 q38 36 93 36q73 0 119 -55q47 -56 47 -144z" />
<glyph unicode="&#x3c;" horiz-adv-x="1110" d="M995 135l-878 588v14l878 563v-94l-749 -477l749 -500v-94z" />
<glyph unicode="=" d="M971 752h-850v73h850v-73zM971 551h-850v74h850v-74z" />
<glyph unicode="&#x3e;" horiz-adv-x="1110" d="M995 723l-878 -588v94l749 500l-749 477v94l878 -563v-14z" />
<glyph unicode="?" horiz-adv-x="845" d="M768 1130q0 -111 -55 -202q-30 -49 -56 -75q-33 -33 -151 -134q-150 -129 -150 -223q0 -30 25 -113q2 -8 2 -18q0 -19 -16 -19q-23 0 -44 60q-22 63 -22 120q0 83 33 155q34 75 121 185q131 169 131 291q0 113 -60 177q-60 65 -161 65q-94 0 -158 -67t-64 -167 q0 -22 7 -22q1 2 12 20q21 39 76 39q92 0 92 -94q0 -98 -107 -98q-63 0 -100 42q-37 41 -37 111q0 126 91 205q92 80 237 80q160 0 257 -87t97 -231zM477 98q0 -44 -32 -78q-31 -32 -78 -32q-46 0 -78 32q-33 33 -33 78q0 48 33 79q34 32 80 32q45 0 76 -33q32 -34 32 -78z " />
<glyph unicode="@" horiz-adv-x="2027" d="M1917 823q0 -313 -244 -510q-168 -135 -385 -135q-166 0 -166 117q0 10 6 43q-122 -164 -290 -164q-106 0 -174 73t-68 185q0 207 212 433q211 225 409 225q151 0 174 -134l2 9q25 53 39 86q12 28 30 28q13 0 34 -4t36 -4q18 0 41 10q25 11 37 11t12 -15q0 -16 -49 -121 l-62 -133q-24 -57 -75 -174l-84 -184q-60 -131 -60 -182q0 -50 64 -50q70 0 155 42q86 42 154 110t110 183q42 116 42 237q0 264 -180 435q-178 169 -484 169q-367 0 -604 -258q-238 -259 -238 -653q0 -340 191 -552t495 -212q347 0 615 223q140 114 209 248q12 24 34 24 q27 0 27 -20q0 -34 -74 -123q-338 -408 -841 -408q-358 0 -597 230t-239 573q0 395 307 686q303 285 701 285q188 0 352 -59q165 -59 266 -162q160 -165 160 -408zM1360 915q0 48 -45 91q-33 32 -90 32q-120 0 -248 -194q-178 -269 -178 -477q0 -136 102 -136q150 0 291 299 l111 234q57 122 57 151z" />
<glyph unicode="A" horiz-adv-x="1232" d="M1325 14q0 -18 -31 -18q-15 0 -37 2l-260 4l-260 -4q-20 -2 -30 -2q-41 0 -41 20q0 23 55 23q180 1 180 37q0 3 -4 16l-16 55l-11 29q-19 67 -90 281h-438q-123 -327 -123 -377q0 -29 25 -35q9 -2 102 -8q60 -1 60 -21t-54 -20q-86 0 -219 8q-40 2 -63 2q-37 0 -64 -4 q-22 -2 -26 -2q-29 0 -29 18q0 20 64 21q66 2 94 19q29 18 45 67q285 813 430 1210q6 30 16 56l10 36q6 23 17 23q5 0 10 -12q36 -106 121 -334q15 -41 366 -998q16 -45 42 -57q27 -13 106 -14q53 -2 53 -21zM768 504q-10 26 -45.5 127t-63.5 178l-98 281 q-82 -217 -207 -586h414z" />
<glyph unicode="B" horiz-adv-x="1169" d="M1073 373q0 -210 -190 -310q-90 -49 -265 -61q-62 -2 -278 -2h-250q-35 0 -35 18q0 19 64 19q73 0 87 15q13 14 13 93v1108q0 89 -8 105q-15 25 -105 26q-55 0 -55 21q0 18 51 18h25q30 -2 41 -2l399 -4q221 -2 330 -74q127 -84 127 -243q0 -141 -104 -229 q-105 -89 -293 -111v-12q186 -12 291 -78q155 -98 155 -297zM799 1079q0 196 -90 262q-47 35 -179 35q-34 0 -108 -6v-594h18l113 4q117 5 181 83q65 80 65 216zM858 395q0 258 -209 320q-61 18 -227 18v-610q0 -61 12 -68q20 -14 115 -14q141 0 225 90t84 264z" />
<glyph unicode="C" horiz-adv-x="1337" d="M1245 457l-1 -8q-1 -25 -3 -48q-8 -126 -8 -229q0 -17 4 -50t4 -91v-19q0 -26 -16 -26q-17 0 -29 30q-28 67 -57 88q-147 -129 -355 -129q-300 0 -498 210t-198 530q0 322 181 525q181 204 468 204q104 0 167 -18q66 -19 155 -70q45 -27 67 -27q18 0 35 33q27 57 43 57 q17 0 17 -16q0 -11 -4 -27q-23 -101 -23 -368q0 -39 -6 -45q-7 -7 -17 -7q-20 0 -26 39q-27 166 -76 244q-101 164 -315 164q-166 0 -262 -111q-175 -199 -175 -581q0 -342 144 -531q125 -164 332 -164q105 0 194 53t135 142q54 109 76 227q7 49 27 49t20 -30z" />
<glyph unicode="D" horiz-adv-x="1466" d="M1380 709q0 -361 -252 -562q-184 -147 -493 -147q-2 0 -10.5 0.5t-26.5 1t-36 0.5q-86 2 -187 2h-103l-161 -2q-20 -2 -31 -2q-39 0 -39 20q0 19 65 19q83 0 105 31q8 16 8 77v1104q0 101 -15 117t-106 16q-47 0 -47 23q0 16 35 16h2q1 0 4.5 -0.5t9 -0.5t13 -0.5 t16.5 -0.5q62 -2 92 -2h219q370 0 523 -51q187 -62 301 -243q114 -182 114 -416zM1151 717q0 340 -133 498q-134 159 -416 159q-138 0 -166 -28q-12 -15 -12 -99v-1089q0 -58 3 -70q3 -13 17 -20q52 -25 207 -25q222 0 357 156q143 162 143 518z" />
<glyph unicode="E" horiz-adv-x="1191" d="M1151 332q0 -20 -4 -101t-4 -176v-67q-191 10 -795 10q-49 0 -141 -2h-94h-21q-39 0 -39 18q0 13 13 15q5 0 77 6q53 5 65 22q11 17 11 97v1151q0 59 -17 70q-16 11 -112 11q-33 0 -33 19q0 18 45 18l351 -2q4 0 31 0.5t82.5 1t117.5 0.5h287q51 0 112 9q5 -98 19 -244 l8 -88q2 -14 2 -27q0 -20 -18 -20q-22 0 -33 51q-39 184 -127 233q-65 37 -344 37h-168v-600h49q230 0 280 35t68 203q4 43 23 43q22 0 22 -37q0 -45 -4 -109t-4 -108q0 -213 8 -301q2 -28 2 -35q0 -27 -22 -27q-16 0 -20 18q-6 23 -17 113q-17 122 -100 150q-37 12 -193 12 h-92v-688q450 0 528 18q136 30 154 263q4 51 26 51q21 0 21 -43z" />
<glyph unicode="F" horiz-adv-x="1112" d="M1112 1081q0 -28 -20 -28q-22 0 -29 51q-24 148 -100 215q-48 42 -152 53q-33 4 -164 4q-95 0 -225 -6v-598q262 -1 323 34q62 36 74 202q5 47 25 47t20 -31q0 -15 -2 -31q-6 -141 -6 -262q0 -150 8 -246q2 -10 2 -24q0 -25 -20 -25q-16 0 -21 13q-3 8 -14 94 q-17 125 -65 155q-50 31 -191 31q-82 0 -133 -4l2 -209l-4 -401q0 -59 47 -76q22 -7 100 -6q33 0 33 -17q0 -18 -41 -18h-20q-12 0 -78 2h-64l-305 -2q-39 0 -39 16t71 21t83 19q12 15 12 96l-2 1175q-1 37 -21 46q-21 10 -106 11q-33 0 -33 23q0 20 37 20h33l198 -2 q268 -2 330 -2q344 0 424 17q0 -8 2 -27t5 -55.5t6 -71.5q7 -93 16 -154q4 -25 4 -49z" />
<glyph unicode="G" horiz-adv-x="1361" d="M1407 432q0 -18 -18 -18l-48 2q-94 4 -106 -33q-8 -26 -8 -178v-66q-104 -89 -202 -127q-96 -37 -232 -37q-323 0 -514 194t-191 525q0 336 186 543t492 207q132 0 291 -74q45 -22 78 -22q39 0 51 49q10 28 24 28q17 0 17 -16q0 -10 -4 -43q-13 -127 -13 -168l2 -133 l2 -64q-4 -49 -26 -49q-19 0 -21 29q-11 200 -114 312q-105 114 -275 114q-213 0 -337 -190t-124 -519q0 -314 126 -500t341 -186q165 0 226 94q30 46 30 170q0 103 -19 121q-20 18 -134 17q-29 0 -37 3t-8 13q0 23 45 23h37q28 -6 217 -4l172 2q8 0 30 2h23q41 0 41 -21z " />
<glyph unicode="H" horiz-adv-x="1458" d="M1401 18q0 -18 -39 -18l-283 2q-10 0 -84 -2t-82 -2q-41 0 -41 16q0 17 97 23q52 5 59 17q8 14 8 96v598h-616v-580q0 -94 14 -109q15 -16 96 -22q54 -5 54 -19q0 -18 -41 -18h-19q-31 0 -103 2q-15 0 -30.5 0.5t-23.5 1t-11 0.5q-10 0 -86 -2t-172 -2q-41 0 -41 16 t41 21q9 0 27.5 1.5t28.5 2.5q46 5 57 20q6 11 6 115v1081q0 93 -9 109t-65 18q-42 3 -74 7q-12 1 -12 16q0 16 27 16q2 0 6.5 -0.5t13 -1t15.5 -0.5q45 -4 241 -4q92 0 146 2q20 2 37 2q37 0 37 -20q0 -19 -67 -19t-80 -15q-13 -14 -13 -97v-471h616v440q0 109 -16 128 t-115 17q-31 0 -31 19q0 18 35 18h11h100q98 -2 110 -2q111 0 169 2q11 0 25 0.5t21 1t11 0.5q43 0 43 -18q0 -19 -90 -21q-28 0 -39 -4q-22 -6 -26 -22q-5 -18 -5 -96v-1090q0 -99 10 -115q21 -22 119 -22q33 4 33 -17z" />
<glyph unicode="I" horiz-adv-x="643" d="M590 16q0 -16 -25 -16h-20q-12 6 -279 6q-57 0 -102 -4q-36 -2 -82 -2q-27 0 -27 18q0 17 54 19q81 1 96 19q14 17 14 118v1077q0 102 -10 113q-12 20 -113 25q-39 1 -39 16q0 18 25 18l276 -4q1 0 119 2l78 2q33 0 33 -18q0 -17 -90 -21q-51 -2 -63 -18q-11 -15 -11 -86 v-1094q0 -117 10 -127q21 -21 133 -26q23 0 23 -17z" />
<glyph unicode="J" horiz-adv-x="671" d="M637 1403q0 -17 -43 -17q-76 0 -96 -5q-19 -5 -22 -17t-3 -80v-657l2 -191q1 -141 0 -231q-5 -135 -18 -191q-24 -106 -121 -183t-205 -77q-79 0 -129 42q-49 42 -49 110q0 117 115 117q46 0 78 -29t32 -74q0 -41 -26 -70q-19 -24 -19 -34q0 -19 31 -19q65 0 92 80 q14 41 14 252v1169q0 66 -39 82q-18 6 -98 6q-36 0 -46 5q-9 5 -9 12q0 20 33 20q2 0 8 -0.5t19.5 -1t27.5 -0.5q84 -2 104 -2l301 4q66 0 66 -20z" />
<glyph unicode="K" horiz-adv-x="1363" d="M1421 16q0 -18 -28 -18h-17l-245 2l-240 -2q-16 -2 -27 -2q-39 0 -39 16t52 21q106 10 106 35q0 27 -559 665v-592q0 -71 22 -89q21 -17 121 -17q23 0 23 -21q0 -18 -29 -18q-15 0 -37 2l-284 4q-27 0 -63 -3t-73 -3h-18q-31 0 -31 18q0 22 76 23q70 2 82 31q6 10 6 129 l-2 1140q-1 43 -110 43q-50 0 -50 23q0 18 35 18q5 0 27 -2q29 -4 182 -4q164 0 203 4q30 2 47 2q37 0 37 -22q0 -13 -11 -16q-14 -4 -71 -5q-59 -1 -71 -16q-11 -14 -11 -92v-500l174 174q395 395 395 412q0 26 -96 24q-61 -1 -61 21q0 15 28 16q38 2 199 2h113q67 0 81 -2 q21 -5 21 -20q0 -23 -45 -23q-96 2 -121 -4q-26 -6 -53 -33q-90 -94 -406 -417l-53 -54l-27 -28q6 -8 103 -111q172 -178 493 -571q66 -81 94 -99q24 -15 99 -20q59 -4 59 -21z" />
<glyph unicode="L" horiz-adv-x="1155" d="M1137 162q0 -32 -7 -176h-22q-18 0 -59 4t-107 4l-852 6q-35 0 -35 18q0 14 56 19q79 5 93 17q15 14 15 77v1151q0 76 -15 88t-110 12q-39 0 -39 23q0 18 25 18h18q68 -6 269 -6q19 0 71 3q53 3 88 3h23q37 0 37 -20q0 -12 -12 -15q-19 -5 -70 -6q-59 -1 -71 -19 q-11 -17 -11 -108v-1208q74 -2 153 -2q235 0 338 25q99 24 134 92q34 66 40 182q1 27 25 27q27 0 25 -31l-2 -51v-19q2 -20 2 -28v-80z" />
<glyph unicode="M" horiz-adv-x="1546" d="M1530 16q0 -20 -43 -20h-23q-2 0 -104 2t-117 2q-33 0 -143 -2h-111h-14q-43 0 -43 18q0 21 59 21q105 0 127 22q10 10 10 138v1060q0 -4 -22 -71q-72 -215 -238 -746l-96 -325q-29 -97 -41 -97q-14 0 -31 50q-64 199 -335 929l-82 220q2 -52 2 -107v-666q0 -374 6 -378 q15 -27 98 -27q68 0 68 -19q0 -20 -43 -20q-19 0 -49 2q-38 2 -52 2l-235 -6q-37 0 -37 18q0 22 117 23q50 0 57 16q8 18 8 107v981q0 171 -4 184q-7 28 -35 39q-26 10 -114 16q-33 2 -33 19q0 22 59 22q2 0 6.5 -0.5t13 -1t15.5 -0.5h107q104 0 170 2q3 -7 16.5 -43.5 t42.5 -115t61 -162.5q78 -207 265 -717q44 149 79 262l218 678q20 67 32 98l308 2q66 0 77 -6t11 -18q0 -21 -35 -21q-59 0 -78 -4q-49 -7 -68 -33q-10 -14 -10 -239v-952q0 -82 16 -97q27 -18 134 -18h12q41 0 41 -21z" />
<glyph unicode="N" horiz-adv-x="1343" d="M1315 1403q0 -21 -51 -19l-45 2h-37q-34 0 -39 -11q-6 -12 -6 -68v-1180q0 -103 -2 -127q-1 -18 -13 -18t-28 22l-263 383q-194 284 -552 834l2 -1143q1 -26 30 -34q28 -7 138 -9q26 0 26 -17q0 -20 -53 -20q-18 0 -117 6q-44 2 -63 2h-3q-3 -1 -12.5 -2t-20.5 -2 q-33 -4 -116 -4h-20q-47 0 -47 18q0 19 40 19q121 1 141 15q19 13 19 87v1010q0 169 -69 213q-31 20 -117 20q-53 0 -53 21q0 18 30 18q21 0 105 -2q18 0 34.5 -0.5t24 -1t8.5 -0.5q2 0 8.5 0.5t20.5 1t29 0.5q47 0 131 2l706 -1050v911q0 59 -2 77q-1 13 -16 20 q-14 7 -98 7q-74 0 -74 19q0 20 49 20h72h57q9 0 18.5 -0.5t14 -1t6.5 -0.5l4 1q5 0 14 0.5t19 0.5h61h64q45 0 45 -20z" />
<glyph unicode="O" horiz-adv-x="1474" d="M1389 702q0 -303 -184 -516q-183 -211 -449 -211q-283 0 -475 214q-193 216 -193 528q0 320 185 523q186 204 475 204q272 0 456 -213q185 -214 185 -529zM1159 692q0 376 -153 584q-96 131 -269 131q-164 0 -254 -100q-166 -184 -166 -600q0 -328 116 -512 q115 -183 325 -183q194 0 293 172q108 191 108 508z" />
<glyph unicode="P" horiz-adv-x="1032" d="M1020 1081q0 -198 -170 -309q-108 -70 -270 -70q-70 0 -158 15v-582q0 -48 4 -59q11 -29 45 -35q64 -8 115 -8q22 0 22 -15q0 -20 -28 -20q-11 0 -21 2q-150 -2 -424 -2h-26q-62 0 -62 20q0 15 43 15q96 0 111 18q16 7 18 41v1208q0 63 -35 78q-22 8 -71 8h-21 q-8 -2 -14 -2q-31 0 -31 19q0 20 57 20h451q235 0 342 -82q123 -91 123 -260zM805 1077q0 307 -258 307q-86 0 -113 -28q-12 -12 -12 -64v-544q33 -3 37 -3q135 0 229 60q117 73 117 272z" />
<glyph unicode="Q" horiz-adv-x="1478" d="M1391 700q0 -280 -150 -477q-150 -196 -399 -241v-64q0 -162 60 -222q61 -61 220 -61q7 0 55 4q36 3 54 3q33 0 33 -23q0 -17 -62 -29q-106 -20 -229 -20q-199 0 -291 117q-51 66 -51 229v47l2 27q-197 50 -309 151q-236 213 -236 572q0 197 82 367q84 174 222 268 q141 96 339 96q237 0 395 -135q126 -108 195 -268q70 -163 70 -341zM1161 686q0 375 -143 582q-96 141 -273 141q-206 0 -317 -181q-111 -182 -111 -521t114 -519t327 -180q231 0 332 238q71 167 71 440z" />
<glyph unicode="R" horiz-adv-x="1204" d="M1217 61q0 -86 -144 -86q-160 0 -250 134q-37 55 -50 110q-11 49 -34 270q-12 132 -84 186q-71 54 -233 58v-645q0 -41 65 -51q34 -3 95 -4q26 0 26 -17q0 -18 -35 -18h-24q-24 2 -178 2q-7 0 -105 -2h-94h-80q-45 0 -45 18q0 16 59 17q98 2 105 24q8 11 8 80v1131 q0 82 -17 98q-18 17 -106 18q-51 0 -51 19q0 20 33 20q2 0 18 -2l273 -6q16 0 114 2q73 4 115 4q192 0 302 -85q112 -86 112 -230q0 -143 -115 -237q-113 -92 -311 -109q-20 -2 -21 -6q0 -9 21 -9q216 -38 296 -150t107 -411q17 -168 115 -168q31 0 31 13q0 2 -2 4 q-11 24 -11 37q0 43 45 43q50 0 50 -52zM793 1087q0 293 -254 293q-69 0 -93 -18t-24 -66v-520q197 -2 284 72t87 239z" />
<glyph unicode="S" horiz-adv-x="1019" d="M961 399q0 -174 -135 -300q-133 -124 -322 -124q-110 0 -264 68q-40 18 -62 18q-25 0 -31 -59q-2 -31 -26 -31q-21 0 -21 25q0 14 2 24q17 128 17 232q0 31 -4 115q-2 16 -2 32q0 31 24 31q22 0 29 -49q53 -365 346 -365q125 0 194 71q68 69 68 200q0 114 -66 195 t-229 161q-192 95 -270 186q-76 89 -76 224q0 168 110 280q109 111 277 111q69 0 193 -47q45 -17 63 -17q21 0 30 9q7 7 13 43q4 20 23 20q20 0 20 -25q0 -14 -2 -24q-6 -50 -6 -119q0 -102 10 -156l2 -32q2 -23 -18 -23q-23 0 -31 47q-22 121 -106 202t-189 81 q-103 0 -163 -66t-60 -178q0 -132 88 -211q48 -44 213 -127q194 -97 277 -195q84 -99 84 -227z" />
<glyph unicode="T" horiz-adv-x="1200" d="M1169 1059q0 -27 -24 -27t-35 53l-8 74q-16 76 -47 125q-44 68 -142 86q-61 12 -102 10q-96 -4 -117 -6v-1235q0 -74 39 -92q21 -11 115 -12q24 -1 24 -19t-32 -18q-13 0 -29 2q-109 4 -174 4q-47 0 -127 -2t-152 -2q-47 0 -47 16q0 20 88 21q65 0 82 26q11 17 11 84 v1227q-201 -1 -252 -20q-130 -47 -152 -252q-6 -62 -29 -62q-24 0 -24 43q0 15 2 45l4 48q6 92 18 247h93l417 -6q94 -2 230 2l340 6q5 -132 26 -340q0 -3 2 -15q1 -3 1 -7q1 -3 1 -4z" />
<glyph unicode="U" horiz-adv-x="1363" d="M1346 1403q0 -19 -37 -19q-1 0 -6.5 0.5t-15 1.5t-19.5 1q-14 2 -29 2q-51 0 -61 -27q-4 -13 -4 -47v-768q0 -297 -112 -435q-111 -137 -360 -137q-295 0 -417 168q-80 113 -80 371l-2 821q-6 38 -49 45q-16 2 -76 2q-35 5 -35 21q0 18 29 18h37q3 0 9 -0.5t17 -1 t21 -0.5h59l293 2q14 2 24 2q35 0 35 -22q0 -15 -12 -17q-21 -3 -82 -4q-30 0 -39 -4q-21 -7 -22 -28q-2 -10 -2 -117v-733q0 -269 86 -369q85 -98 256 -98q312 0 352 354q6 53 6 451v116l2 164l-2 141v46l2 22q0 45 -43 55q-13 4 -84 4q-41 0 -41 23q0 18 29 18q12 0 26 -2 q32 -2 179 -2q13 0 51 2h39h30q48 0 48 -20z" />
<glyph unicode="V" horiz-adv-x="1296" d="M1339 1407q0 -17 -39 -18q-88 -1 -120 -27q-31 -25 -64 -115l-69 -190q-256 -701 -355 -1059q-6 -25 -20 -25q-17 0 -68 154q-89 272 -143 422q-84 236 -164 465l-98 276q-21 58 -45 77q-25 21 -82 22q-56 1 -81 4q-14 2 -14 16q0 18 41 18h19q37 0 128 -3t130 -3 q10 0 79 3t195 3h29q37 0 37 -20q0 -23 -74 -25l-125 -4q-43 -1 -43 -26q0 -6 4 -17l17 -53q9 -34 198 -577q44 -129 125 -367q338 958 338 1005q0 50 -100 46l-64 -3q-24 0 -24 17q0 20 61 20h70q76 -2 84 -2h65l136 2q36 0 36 -16z" />
<glyph unicode="W" horiz-adv-x="1867" d="M1927 1407q0 -19 -69 -20q-78 -1 -104 -52q-28 -54 -79 -209q-87 -268 -164 -477q-120 -329 -223 -649q-8 -27 -20 -27q-11 0 -20 21q-12 27 -54 143q-56 158 -125 322q-61 148 -104 262q-144 -347 -285 -723q-8 -25 -21 -25q-9 0 -24 35q-61 148 -471 1256 q-29 78 -43 97q-15 19 -72 21q-98 4 -98 29q0 19 33 19q3 0 24 -3q108 -6 234 -6q25 0 85 3t156 3h23q35 0 35 -18q0 -23 -64 -25q-127 -4 -127 -32q0 -56 377 -1067q116 294 205 510l-203 524q-16 42 -38 55q-24 14 -79 15q-57 1 -57 18q0 23 43 23q28 0 80 -5 q41 -4 164 -4h155l226 -4q68 0 182 8q16 2 29 2q49 0 49 -20q0 -18 -35 -18h-35q-91 0 -139 -25q-20 -10 -76 -147q-69 -165 -82 -195l-37 -92q34 -92 90 -228q97 -233 162 -407q37 108 127.5 368.5t143.5 415.5q81 236 81 267q0 38 -71 38q-101 0 -101 23q0 20 41 20 q28 0 56 -2q40 -4 82 -4l163 2q61 0 68 -5q6 -4 6 -11zM1188 1346q0 36 -127 36h-25l-35 -2q-73 -4 -73 -26q0 -7 121 -355q47 104 110 271q3 9 25 59z" />
<glyph unicode="X" horiz-adv-x="1280" d="M1319 18q0 -18 -57 -18q-47 0 -143 2t-142 2q-104 0 -209 -4q-80 -2 -88 -2q-59 0 -59 22q0 21 47 19l92 -2q51 -2 59 2q31 6 31 39q0 31 -51 133l-219 442l-258 -436q-68 -115 -68 -135q0 -37 68 -43v0v0v0v0v0v0h1v0v0h1v0h1v0h1v0h1h1v0h1h1h1h1h1h1h1h1h1h1h1h1h1h1 h1h1h1h1h1h1h1h1h1h1h1h1h1h1h1h1h1h1h1h1h1h1h1h1h1h1h1h1h1h1h1h1h1h1h1h1h1h1h1h1h1h1h1h1h1h1h1h1h1h1h1h1h1h1h1h1h1h1h1h1h1h1h10q37 0 37 -21q0 -18 -31 -18l-232 2l-174 -2q-32 0 -32 18q0 19 53 25l74 8q28 7 51 27q38 34 252 401q92 159 139 236l-234 438 q-71 133 -99 175q-26 39 -58 52q-33 6 -129 6q-25 0 -25 17q0 22 33 22q61 0 186 -4q92 -2 97 -2q243 0 264 4h28q43 0 43 -16q0 -23 -73 -23q-138 2 -138 -32q0 -38 234 -480q82 121 184 292q101 170 101 190q0 30 -113 30q-55 0 -55 19q0 20 39 20q9 0 77 -2t78 -2 q9 0 95 3t100 3h18q35 0 35 -18t-27 -18q-1 0 -8.5 -0.5t-23 -1.5t-33.5 -1q-70 -2 -95 -24t-87 -131q-69 -125 -234 -379l-22 -35q4 -8 32 -62.5t101.5 -197.5t142.5 -278q90 -175 129 -210q38 -34 154 -32q51 0 51 -19z" />
<glyph unicode="Y" horiz-adv-x="1243" d="M1266 1405q0 -16 -35 -16q-112 -1 -139 -39q-26 -24 -177 -349q-69 -148 -127 -256q-42 -78 -47 -103q-6 -27 -6 -120v-387q0 -68 18 -80t121 -18q56 -5 56 -21t-29 -16h-24l-287 6q-130 0 -199 -4q-16 -2 -29 -2q-28 0 -28 18q0 19 47 21q113 5 133 20q21 17 21 99v432 q-27 57 -119 239l-205 406q-26 51 -74 133q-22 21 -97 21t-75 22q0 16 33 16q57 0 172 -4q98 -2 106 -2l238 2q20 2 33 2q37 0 37 -20q0 -19 -70 -19q-127 0 -127 -45q0 -34 129 -280l186 -354q49 88 117 227l121 244q68 131 68 172q0 25 -35 30q-72 10 -96 9q-46 -2 -46 20 q0 16 39 16l119 -2l68 2q209 6 209 -20z" />
<glyph unicode="Z" horiz-adv-x="1150" d="M1090 440q0 -7 -3 -22l-10 -68q-13 -77 -37 -264q-3 -20 -10 -90l-93 2q-144 2 -230 2h-152q-291 0 -416 -12q-14 -2 -30 -2q-31 0 -31 16l4 12q2 3 49 95q174 336 530 1001q93 176 132 258q-44 10 -205 10q-250 0 -316 -102q-16 -26 -42 -110q-26 -83 -33 -142 q-6 -43 -31 -43q-21 0 -21 20q0 15 2 25l15 98q7 58 16 103l15 84q8 50 24 121q133 -13 385 -13q88 0 189 3t176 3h32q13 0 33 2q-11 -33 -76 -167q-14 -40 -563 -1074q-25 -48 -74 -139q99 -6 240 -6q132 0 191 8q110 18 170 78q88 88 118 303q5 35 27 35q25 0 25 -25z" />
<glyph unicode="[" horiz-adv-x="624" d="M567 -276q0 -23 -61 -23h-324v1722h320q51 0 51 -24q0 -15 -8 -18q-7 -3 -60 -3q-110 0 -131 -10q-14 -7 -16 -20q-2 -16 -2 -76v-1417q0 -80 15 -95q14 -14 102 -14h79q35 0 35 -22z" />
<glyph unicode="\" horiz-adv-x="1001" d="M973 -61h-101l-845 1548h100z" />
<glyph unicode="]" horiz-adv-x="624" d="M444 -299h-319q-66 0 -66 23q0 22 41 22q130 0 158 6q24 5 28 18q5 15 5 68v1422q0 76 -5 94q-4 15 -30 20q-41 6 -133 6q-49 0 -49 21q0 22 47 22h323v-1722z" />
<glyph unicode="^" d="M961 666h-203q-148 193 -287 528q-73 -201 -182 -369q-112 -172 -146 -172q-22 0 -22 23q0 17 24 47q160 197 299 569q45 117 55 135q12 21 33 21q20 0 32 -18q11 -17 63 -140q151 -361 334 -624z" />
<glyph unicode="_" horiz-adv-x="1064" d="M1018 -281h-971v95h971v-95z" />
<glyph unicode="`" horiz-adv-x="1026" d="M586 1044q0 -10 -13 -10q-20 0 -143 129l-186 195h35l59 2h108l84 -182q0 -2 23 -54l29 -67q4 -7 4 -13z" />
<glyph unicode="a" horiz-adv-x="813" d="M879 92q0 -35 -73 -73q-71 -37 -140 -37q-142 0 -148 145q-78 -152 -242 -152q-87 0 -145 53q-57 53 -57 134q0 167 202 266q69 33 242 66v51q0 180 -18 237q-33 105 -148 105q-72 0 -120 -39t-48 -98q0 -17 26 -17q25 0 46 -24q20 -23 20 -56q0 -90 -90 -90 q-47 0 -77 32q-31 33 -31 81q0 97 76 166q83 76 233 76q226 0 277 -123q18 -47 18 -187v-383q0 -88 2 -110q11 -74 59 -74q57 0 95 41q21 22 30 22q11 0 11 -12zM518 309v150q-155 -35 -220 -91q-67 -58 -67 -151q0 -64 38 -107q37 -42 96 -42q89 0 141 98q12 22 12 143z " />
<glyph unicode="b" horiz-adv-x="985" d="M922 487q0 -212 -129 -362t-312 -150q-64 0 -133 27t-94 27q-22 0 -51 -20q-28 -19 -43 -19q-17 0 -17 67v1065q0 208 -26 224q-10 6 -80 6q-49 0 -49 16q0 14 22 14h29q109 0 217 48q28 14 43 14h8v-643q78 117 234 117q171 0 276 -118q105 -119 105 -313zM735 477 q0 192 -60 297t-169 105q-58 0 -109 -36t-69 -89q-19 -55 -19 -324q0 -284 15 -336q23 -86 149 -86q121 0 178 92q84 136 84 377z" />
<glyph unicode="c" horiz-adv-x="837" d="M809 707q0 -95 -92 -95q-90 0 -90 86q0 25 20 68q6 15 6 29q0 40 -42 67t-105 27q-123 0 -191 -107q-67 -106 -67 -299q0 -216 69 -335q68 -117 197 -117q86 0 154 53q29 24 80 94q10 10 18 10q20 0 20 -16q0 -28 -71 -100q-92 -97 -236 -97q-179 0 -298 129 q-118 128 -118 326q0 210 125 349t314 139q120 0 214 -64q93 -63 93 -147z" />
<glyph unicode="d" horiz-adv-x="974" d="M979 41q0 -14 -29 -14h-10q-11 0 -35 2h-16q-100 0 -170 -41q-29 -17 -35 -17q-18 0 -18 25l2 63q-88 -84 -209 -84q-172 0 -284 133t-112 336q0 210 112 342t292 132q140 0 209 -101v320q0 157 -14 192q-12 31 -37 29q-60 -6 -72 -6q-27 0 -27 18q0 19 23 19l74 -3 q62 -2 188 58q7 4 14 4q21 0 21 -49v-43q-2 -44 -2 -58v-706q0 -487 10 -520q4 -15 96 -15q29 0 29 -16zM676 555q0 197 -43 252q-56 70 -141 70q-110 0 -177 -115q-65 -112 -65 -307q0 -185 57 -316q23 -54 73 -91q48 -36 99 -36q63 0 115 38q51 37 66 91q16 56 16 414z " />
<glyph unicode="e" horiz-adv-x="880" d="M827 223q0 -20 -31 -72q-30 -50 -65 -85q-89 -91 -235 -91q-184 0 -309 134q-124 133 -124 329q0 206 118 342q120 138 294 138q146 0 244 -85t104 -219q-60 -10 -174 -8l-143 2q-15 0 -246 -6q-10 -64 -10 -129q0 -208 79 -318q80 -112 222 -112q82 0 131 37 q50 38 106 141q8 17 23 17q16 0 16 -15zM649 641q-7 246 -176 246q-167 0 -207 -246h383z" />
<glyph unicode="f" horiz-adv-x="540" d="M739 1288q0 -44 -25 -70q-26 -28 -67 -28q-38 0 -65 24t-27 62q0 32 27 72q6 10 6 18q0 47 -68 47q-114 0 -151 -147q-19 -82 -19 -273v-100h135q41 0 41 -19q0 -18 -53 -18h-123v-801q0 -28 58 -28q88 1 96 -9q2 -2 2 -8q0 -14 -25 -14q-10 0 -20 2l-168 2l-223 -4 q-37 0 -37 14q0 17 28 17q103 0 113 12q4 4 4 12l2 27v778q-72 0 -88 2q-12 2 -12 16q0 19 37 19h65q7 259 70 375q95 176 283 176q91 0 147 -43q57 -43 57 -113z" />
<glyph unicode="g" horiz-adv-x="956" d="M1008 797q0 -95 -84 -95q-28 0 -53 20q-23 19 -23 44q0 8 6 26t6 27q0 27 -29 27q-24 0 -47 -26q-22 -25 -22 -52q0 -10 10 -70t10 -96q0 -138 -96 -233q-97 -95 -240 -95q-33 0 -135 31q-29 8 -35 8q-43 0 -77 -34q-35 -35 -35 -76q0 -107 129 -107q44 0 158 19 q78 14 153 14q126 0 196 -66t70 -182q0 -176 -150 -293q-149 -116 -380 -116q-171 0 -267 68q-98 69 -98 190q0 115 91 176q46 29 143 51q-146 57 -146 176q0 148 189 205q-123 96 -123 254q0 148 94 236q96 90 248 90q82 0 136 -23q53 -23 122 -90q66 96 162 96 q117 0 117 -104zM627 594q0 297 -164 297q-160 0 -160 -277q0 -311 170 -311q154 0 154 291zM784 -190q0 170 -200 170q-52 0 -169 -19q-111 -18 -167 -18q-105 -55 -105 -195q0 -105 75 -168t198 -63q156 0 262 85t106 208z" />
<glyph unicode="h" horiz-adv-x="976" d="M971 12q0 -16 -35 -16q-11 0 -31 2q-96 -2 -319 -2h-23q-26 0 -26 16q0 15 77 15q48 0 55 11t7 77v415q0 186 -17 232q-34 94 -153 94q-99 0 -160 -88q-20 -27 -20 -127v-522q0 -54 2 -64q1 -20 16 -23q18 -4 88 -5q25 0 25 -17q0 -14 -21 -14l-20 2l-162 2 q-171 2 -188 -4h-21q-22 0 -22 14q0 17 22 17h31l30 2q49 -2 50 28v920q0 326 -11 354q-12 22 -100 23q-49 0 -49 14q0 13 10 14q19 3 70 4q100 1 200 50q5 3 29 10q14 -22 14 -158v-502q91 132 246 132q164 0 234 -91q36 -47 43 -127q4 -25 4 -137v-516q1 -20 106 -20 q19 -5 19 -15z" />
<glyph unicode="i" horiz-adv-x="514" d="M342 1288q0 -92 -92 -92q-38 0 -66 26q-26 25 -26 62q0 96 92 96t92 -92zM496 12q0 -18 -35 -18h-5q-4 1 -16.5 2t-27.5 2q-55 4 -103 4l-213 -4q-14 -2 -24 -2q-23 0 -23 14q0 21 41 21q77 1 85 11q7 8 7 85l-2 621q-1 49 -5 60q-3 9 -25 9l-60 -2q-10 -2 -20 -2 q-23 0 -23 16q0 15 35 17q138 6 235 65l21 13q16 -29 16 -113v1v0v-1v0v-1v-1v-1v-1v-1v-1v-1v-1v-1v-1v-10q-2 -32 -2 -80v-559q0 -82 3 -97q3 -13 22 -18q32 -8 90 -8q29 0 29 -17z" />
<glyph unicode="j" horiz-adv-x="485" d="M346 1286q0 -90 -90 -90q-40 0 -68 26q-26 25 -26 66q0 40 25 66t65 26q94 0 94 -94zM356 -53q0 -222 -75 -347q-77 -128 -207 -128q-65 0 -106 32q-42 33 -42 82q0 97 105 97q86 0 86 -72q0 -16 -13 -66q-2 -6 -2 -16q0 -18 13 -18q38 0 56 62q17 59 17 314l-2 904 q-1 26 -30 26h-23q-10 -2 -94 -2q-23 0 -23 16q0 15 54 15q146 -2 213 49q38 23 47 23q16 0 18 -24q3 -43 4 -155l2 -243q0 -14 2 -88v-64v-397z" />
<glyph unicode="k" horiz-adv-x="960" d="M1042 14q0 -14 -75 -14q-43 0 -111 2q-93 4 -143 4q-33 0 -81 -4t-81 -4q-19 0 -19 14q0 17 39 17q99 0 99 32q0 28 -344 414l2 -418q1 -30 57 -28l55 2q27 0 27 -17q0 -18 -45 -18q3 0 0 1q-3 0 -10 1h-50q-66 2 -133 2h-159q-50 0 -50 16q0 11 10 13q16 3 70 4 q51 2 52 22q4 13 4 107v1001q0 160 -2 168q-4 15 -60 15h-20q-30 -3 -33 -3q-23 0 -23 17q0 16 48 16q95 1 204 60q22 14 33 14q23 0 23 -170v-756q331 297 331 328q0 12 -79 12h-13q-16 -2 -30 -2h-21q-37 0 -37 17q0 18 64 18h84l75 -2h127q70 0 86 -2q13 -2 13 -14 q0 -15 -97 -17q-67 -1 -84 -10q-27 -17 -47 -37l-256 -248q301 -329 404 -456q50 -60 78 -72q20 -10 100 -8q18 0 18 -17z" />
<glyph unicode="l" horiz-adv-x="481" d="M463 14q0 -18 -27 -18h-24q-16 0 -109 4l-63 2q-17 0 -164 -6q-16 -2 -25 -2q-31 -2 -31 18q0 15 23 15h53q58 0 58 24q2 16 2 160v1042q0 69 -4 74q-6 16 -33 16h-17l-57 -2q-29 0 -29 19q0 16 52 18q98 6 182 45l43 21l16 6q16 -60 15 -180l-2 -146l2 -1003 q0 -57 2 -73q1 -10 14 -15q2 -3 76 -4q47 0 47 -15z" />
<glyph unicode="m" horiz-adv-x="1439" d="M1440 12q0 -16 -35 -16q-1 0 -6 0.5t-15.5 1t-22.5 0.5q-54 2 -108 2q-29 0 -217 -4q-26 0 -26 14q0 17 22 17h17l51 2q31 2 36 14q5 13 5 86v508q0 119 -32 169t-108 50q-52 0 -99 -32q-46 -31 -64 -81q-9 -36 -9 -227v-387q0 -64 2 -78q6 -24 37 -24h60q26 0 26 -17 q0 -14 -30 -14h-15q-19 4 -139 4q-18 0 -110 -2q-19 0 -38.5 -0.5t-29.5 -1t-14 -0.5h-23q-25 0 -25 16q0 11 13 13q16 2 82 2q32 1 34 20l3 29v571q0 119 -30 164t-106 45t-126 -47t-50 -119v-581q0 -61 9 -73q8 -11 61 -11h16q16 2 23 2q22 0 22 -17q0 -14 -26 -14h-21 q-46 6 -153 4l-201 -4q-29 0 -29 16q0 15 27 15q79 0 90 7q13 8 14 25v533q0 153 -6 180t-59 27h-29q-24 -2 -39 -2q-26 0 -26 14q0 13 9 14t66 6q44 1 118 25q70 22 81 39q23 23 33 23t12 -17q3 -30 4 -115q83 132 252 132q182 0 221 -138q80 138 256 138q152 0 205 -109 q29 -58 29 -191v-505q0 -70 7 -77q6 -6 64 -11l37 2q23 2 23 -15z" />
<glyph unicode="n" horiz-adv-x="1001" d="M993 12q0 -16 -30 -16h-25q-33 4 -100 4q-205 0 -238 -4h-14q-27 0 -27 14q0 12 11 13q22 3 79 4q39 1 45 11q6 9 6 66v394q0 224 -16 266q-35 92 -139 92q-103 0 -172 -90q-21 -27 -21 -74l2 -639q0 -25 43 -26l62 -2q20 0 20 -15q0 -14 -24 -14h-33q-40 4 -143 4 q-7 0 -19.5 -0.5t-36 -1t-42.5 -0.5q-21 0 -42 -0.5t-31.5 -1t-13.5 -0.5h-12q-31 0 -31 14q0 15 37 19h51q31 0 37 14l6 31v446q0 237 -4 258q-5 25 -51 25q-18 0 -49 -4h-10q-41 0 -41 14q0 18 43 18q59 1 133 23q73 21 100 47q19 17 29 17q14 0 14 -39v-99 q108 138 275 138q146 0 213 -109q36 -59 36 -234v-466q0 -65 7 -72q12 -12 59 -12l22 2h15q20 0 20 -15z" />
<glyph unicode="o" horiz-adv-x="983" d="M922 442q0 -199 -121 -332q-123 -135 -301 -135q-186 0 -312 135q-125 134 -125 332q0 204 122 340t304 136q184 0 309 -137q124 -136 124 -339zM735 444q0 226 -69 351q-51 92 -172 92q-116 0 -180 -118t-64 -327q0 -208 68 -322q69 -116 192 -116q94 0 139 72 q86 136 86 368z" />
<glyph unicode="p" horiz-adv-x="1001" d="M938 455q0 -205 -116 -342q-117 -138 -287 -138q-135 0 -209 99v-477q0 -47 3 -54q3 -8 19 -14q30 -6 119 -6q25 0 25 -19q0 -14 -27 -14h-39h-47q-40 2 -53 2q-3 0 -11.5 -0.5t-25 -1t-31.5 -0.5h-86h-109q-59 0 -59 14q0 19 25 19h61q60 0 64 26q2 16 2 189v1020 q0 58 -56 53q-73 4 -86 4q-18 0 -18 14q0 19 45 19q115 -2 205 53q28 17 41 17q16 0 21 -16q6 -19 7 -93q77 109 217 109q178 0 292 -131t114 -332zM756 453q0 161 -49 272q-66 156 -203 156q-70 0 -123 -51q-51 -49 -55 -121q-4 -83 2 -379q1 -145 6 -175q5 -33 26 -61 q60 -84 154 -84q108 0 160 90q82 136 82 353z" />
<glyph unicode="q" horiz-adv-x="948" d="M975 -496q0 -14 -27 -14q-10 0 -20 2l-246 4q-12 0 -64 -2t-53 -2h-18q-21 0 -21 14q0 17 37 17q91 2 101 16q8 8 8 142v391q-89 -97 -219 -97q-163 0 -278 135q-114 134 -114 330q0 205 127 341q128 137 320 137q61 0 141 -25q60 -19 82 -19q50 0 68 21q17 20 26 20 q17 0 17 -34v-1321q0 -34 49 -35q84 -5 84 -21zM674 340q0 334 -3 394q-3 61 -24 89q-45 62 -145 62q-254 0 -254 -451q0 -199 61 -308q62 -110 172 -110q59 0 108 33t70 82q15 34 15 209z" />
<glyph unicode="r" horiz-adv-x="692" d="M690 778q0 -49 -28 -78q-28 -30 -74 -30q-38 0 -62 21t-24 54q0 29 18 50q19 22 19 28q0 31 -45 31q-58 0 -99 -72q-47 -85 -47 -311v-405q0 -25 18 -31q20 -7 105 -8q23 -5 23 -17q0 -14 -27 -14q-34 0 -88 2t-156 2q-50 0 -86 -2t-67 -2q-33 0 -33 14q0 15 26 15h29 q70 0 82 16q4 7 4 76v563q0 112 -34 130t-107 19q-25 0 -25 15q0 14 21 14h14q32 0 62 -3l26 -3q78 0 168 43l27 12l16 6q8 -53 8 -98v-41q66 144 185 144q65 0 108 -40t43 -100z" />
<glyph unicode="s" horiz-adv-x="741" d="M688 260q0 -120 -87 -202q-88 -83 -208 -83q-68 0 -170 50q-25 14 -47 14q-28 0 -43 -39q-8 -25 -22 -25q-15 0 -15 17q0 4 2 24q6 40 6 121q0 2 -0.5 7.5t-1 17.5t-0.5 24l-2 58v22q0 23 15 23q16 0 18 -23q12 -94 53 -147q83 -107 220 -107q74 0 118 43q45 43 45 115 q0 80 -51 127q-27 25 -52 38q-11 6 -138 54q-228 85 -228 258q0 115 78 193t193 78q37 0 123 -25q21 -6 36 -6q43 0 54 41q6 20 18 20q14 0 14 -16v-1q0 -1 -0.5 -2.5t-1 -4t-0.5 -4.5l-2 -86q-1 -46 11 -158v-4q0 -17 -17 -17q-13 0 -31 62q-23 76 -78 119q-57 45 -130 45 q-71 0 -115 -43q-45 -44 -45 -109q0 -103 137 -156q214 -84 270 -139q74 -72 74 -174z" />
<glyph unicode="t" horiz-adv-x="581" d="M621 121q0 -19 -52 -66q-89 -80 -209 -80q-112 0 -170 58q-32 32 -32 192v611q-1 20 -23 22h-78q-45 0 -45 14q0 15 23 17q161 15 250 155q13 19 30 19q15 0 15 -14v-9q-2 -14 -2 -34q0 -85 8 -111q16 -4 61 -4q114 0 150 10q10 2 14 2q17 0 17 -18q0 -31 -166 -31 q-10 0 -84 2v-379q0 -292 14 -359q15 -73 94 -73q69 0 152 76q7 10 18 10q15 0 15 -10z" />
<glyph unicode="u" horiz-adv-x="1003" d="M1024 70q0 -16 -45 -17q-163 -11 -281 -69q-7 -4 -14 -4q-12 0 -12 16l2 115q-95 -136 -264 -136q-151 0 -217 88q-28 38 -32 68q-5 33 -5 166v469q0 70 -9 84q-8 12 -55 14l-26 -2q-56 -5 -56 17q0 14 35 14q46 0 107 -4q10 0 19.5 -0.5t14.5 -1t7 -0.5q71 0 133 6v-571 q0 -160 20 -209q33 -80 133 -80q109 0 160 90q37 65 37 209v317q0 59 -2 105l-4 67q-2 31 -14 36q-13 5 -46 5q-86 -2 -86 19q0 12 43 12h19q22 -2 108 -2q114 0 152 2v-571q0 -148 6 -187t32 -45t115 -6q25 0 25 -14z" />
<glyph unicode="v" horiz-adv-x="786" d="M850 879q0 -17 -39 -17q-7 0 -37 2h-12q-36 0 -57 -45l-25 -78l-172 -528q-6 -17 -41 -125q-33 -113 -53 -113q-14 0 -29 39q-2 5 -20 56q-54 145 -92.5 247.5t-56.5 151t-19 47.5q-107 303 -129 330q-18 18 -58 16l-47 -2q-20 0 -20 17q0 16 28 16l144 -4q1 0 129 2 q31 0 57.5 0.5t38 1t12.5 0.5h10q21 0 21 -14q0 -17 -64 -17q-63 0 -63 -16q0 -23 18 -68q30 -76 127 -352q38 -114 68 -184q55 178 102 313q91 268 91 291q0 18 -31 18q-13 0 -27 -2h-18q-27 0 -27 17q0 14 25 14l127 -2l77 2q62 2 62 -14z" />
<glyph unicode="w" horiz-adv-x="1226" d="M1292 879q0 -17 -30 -17q-17 0 -37 2h-17q-43 0 -82 -121q-19 -66 -43 -155l-63 -205q-36 -111 -102 -340q-18 -70 -35 -70q-15 0 -36 52q-27 66 -110 292q-41 115 -67 185q-31 82 -47 133q-77 -218 -207 -637q-8 -25 -25 -25t-29 31q-10 32 -24 70l-49 131 q-15 37 -80 239q-43 134 -70 222q-57 164 -84 188q-19 8 -66 8q-48 0 -48 19q0 14 22 14h17h71q90 -2 148 -2q21 0 67 2h43h25q28 0 28 -16q0 -19 -20 -19l-51 2q-49 1 -49 -20q0 -18 39 -129q65 -184 159 -484q94 304 160 494l33 98q23 78 43 78t43 -72q37 -121 160 -462 q18 -50 47 -136l184 619q0 16 -25 16q-2 0 -9 -0.5t-21.5 -1t-28.5 -0.5q-22 0 -22 17q0 16 28 16h21h215q24 0 24 -16z" />
<glyph unicode="x" horiz-adv-x="862" d="M913 14q0 -16 -36 -16h-23q-16 2 -31 2l-202 2q-61 0 -123 -2q-46 -2 -60 -2q-37 0 -37 16q0 13 13 15q16 2 88 2q57 0 57 18q0 16 -20 49q-37 66 -152 264l-12 21q-211 -301 -211 -334q0 -18 115 -20q20 0 20 -15q0 -18 -35 -18q-1 0 -45 2t-84 2h-18q-22 0 -54 -2 l-40 2q-7 0 -15 -0.5t-12 -1t-6 -0.5q-23 0 -23 16q0 18 45 19q71 5 109 49l170 256q4 6 22.5 33.5t34.5 50.5q-40 69 -176 330q-40 78 -62 94q-20 14 -104 16q-31 0 -31 15q0 16 29 16l232 -4q14 0 94 2q90 2 96 2q53 0 53 -16q0 -18 -71 -19q-91 -2 -91 -22q0 -15 39 -84 q44 -82 99 -187l8 -16q62 85 124 185t62 118q0 11 -49 10l-43 -2q-14 0 -14 17q0 16 26 16l26 -2q26 -1 44 -2q28 -2 41 -2q128 6 111 6h22q20 2 21 2q24 0 24 -12t-11 -16q-13 -5 -56 -5q-61 0 -78 -16q-18 -16 -39 -51l-39 -66q-24 -40 -78 -121l-68 -100l35 -59 q11 -19 84 -152q95 -165 113 -195q27 -44 51 -58q23 -13 83 -13q58 0 58 -17z" />
<glyph unicode="y" horiz-adv-x="821" d="M868 879q0 -16 -49 -17q-47 -1 -62 -8q-13 -6 -24 -35l-14 -37l-17 -51q-11 -35 -41 -133l-45 -147q-165 -529 -268 -807q-66 -174 -180 -174q-50 0 -81 28q-32 29 -32 74q0 39 26 63q27 25 66 25q56 0 80 -45q18 -35 31 -35q18 0 57 101q61 161 91 268 q-171 450 -259 694q-74 204 -81 205q-11 10 -67 10q-54 0 -54 21q0 16 26 16q23 0 70 -3q46 -3 72 -3h37q113 4 118 4l105 2q22 0 22 -16t-76 -17q-63 -2 -63 -20q0 -15 41 -127q11 -31 35 -99l35 -102q27 -80 75 -205q20 -47 45 -119q197 618 197 648q0 18 -15 22 q-13 4 -87 4q-21 0 -21 17q0 14 25 14q8 0 16 -2q61 -4 115 -4h57q32 0 48 2t28 2q18 0 18 -14z" />
<glyph unicode="z" horiz-adv-x="808" d="M768 293q0 -8 -8 -45q-40 -170 -47 -250l-289 2q-101 0 -205 -2q-75 -4 -115 -4h-6q-55 0 -55 16q0 2 6 13l135 237l357 600q-45 6 -129 6q-132 0 -185 -48q-55 -50 -84 -191q-6 -25 -26 -25q-17 0 -17 16q0 4 15 89q23 143 41 196q144 -6 542 -6h27q2 -6 2 -10 q0 -23 -106 -205q-195 -330 -390 -649q74 -2 134 -2q243 0 299 90q42 66 65 172q6 18 25 18q14 0 14 -18z" />
<glyph unicode="{" horiz-adv-x="624" d="M586 1405q0 -19 -66 -19q-77 0 -110 -46t-33 -150q0 -50 4 -123t4 -123q0 -210 -127 -315q-59 -48 -125 -60q-10 -1 -10 -8q0 -8 12 -8q48 -1 109 -49q141 -108 141 -297q0 -54 -4 -133t-4 -133q0 -104 30 -155.5t89 -49.5l49 2q37 1 37 -19t-58 -20q-76 0 -129 18 q-85 30 -137 111q-51 79 -51 184q0 36 5 138t5 137q0 142 -46 191q-47 50 -105 54q-46 6 -46 29q0 21 46 27q87 15 122 78q31 57 31 186q0 63 -6 140q-6 76 -6 120q0 103 55 186q56 84 139 111q43 14 142 14q43 0 43 -18z" />
<glyph unicode="|" horiz-adv-x="1064" d="M590 -354h-117v1773h117v-1773z" />
<glyph unicode="}" horiz-adv-x="624" d="M602 561q0 -20 -45 -26q-83 -12 -121 -78q-30 -55 -30 -187q0 -34 5 -129t5 -129q0 -103 -56 -188q-56 -84 -139 -111q-42 -14 -141 -14q-45 0 -45 18q0 19 67 19q81 0 112 46q32 47 32 155q0 41 -4 126t-4 113q0 216 124 318q58 47 127 59q11 5 11 8q0 8 -13 8 q-47 1 -108 49q-141 111 -141 299q0 55 4 134t4 133q0 104 -30 154.5t-91 47.5l-47 -2q-37 -1 -37 19t53 20q78 0 133 -18q89 -29 139 -109t50 -188q0 -35 -5 -137t-5 -137q0 -141 46 -190q47 -50 103 -54q47 -5 47 -29z" />
<glyph unicode="~" horiz-adv-x="1394" d="M1143 1542q-50 -92 -131 -149q-80 -56 -158 -56q-38 0 -197 52q-115 38 -184 38q-56 0 -92 -23q-39 -25 -100 -99l-31 20q128 207 293 207q57 0 192 -47q111 -39 166 -39q116 0 211 115z" />
<glyph unicode="&#xa1;" horiz-adv-x="729" d="M471 807q0 -46 -32 -76q-33 -31 -79 -31q-44 0 -76 32t-32 79q0 45 32 77t78 32t77 -33q32 -34 32 -80zM479 -401q-73 -142 -114 -142q-29 0 -47 20q-15 16 -60 103l-10 21q94 534 88 913q0 45 26 45q27 0 27 -51q0 -370 90 -909z" />
<glyph unicode="&#xa2;" horiz-adv-x="1042" d="M1006 1300q0 -5 -35 -61l-113 -178q51 -35 51 -103q0 -38 -24 -64t-60 -26q-44 0 -71 39l-334 -514q77 -131 209 -131q63 0 125 38t96 97q12 23 29 23q18 0 18 -14q0 -31 -59 -93q-99 -106 -234 -106q-144 0 -256 84l-172 -266q-24 -37 -37 -37q-26 0 -26 26q0 10 20 41 l170 264q-141 157 -141 353q0 200 128 340q127 139 312 139q121 0 215 -55l111 166q15 22 22 36q12 25 31 25q25 0 25 -23zM766 1034q-38 90 -148 90q-123 0 -190 -104q-68 -106 -68 -297q0 -183 35 -274z" />
<glyph unicode="&#xa3;" horiz-adv-x="1056" d="M1016 291q0 -142 -43 -215q-28 -48 -81 -79q-55 -32 -110 -32q-84 0 -258 76q-134 59 -231 59q-64 0 -103 -26q-31 -20 -75 -76q-18 -23 -33 -23q-13 0 -35 25q-20 23 -20 43q0 14 22 20q252 69 252 345q0 68 -25 151h-190q-39 0 -39 25q0 26 43 26h168q-57 218 -57 328 q0 197 109 315q110 119 290 119q152 0 247 -81t95 -210q0 -69 -39 -113t-98 -44q-115 0 -115 106q0 56 45 86q29 19 99 25q28 0 28 24q0 38 -43 84q-58 64 -170 64q-119 0 -188 -87q-70 -88 -70 -233q0 -141 68 -383h336q49 0 49 -22q0 -29 -51 -29h-326v-24 q0 -125 -72 -220q-137 -163 -145 -172l-2 -6q0 -6 6 -6q8 0 25 12q99 72 215 72q78 0 192 -47q129 -53 172 -53q67 0 94 90q7 27 11 90q2 41 26 41q27 0 27 -45z" />
<glyph unicode="&#xa5;" horiz-adv-x="1144" d="M1188 1331q0 -14 -29 -16q-105 -6 -139 -37q-13 -10 -41 -68q-5 -8 -57 -120l-72 -152q-27 -59 -74 -152h219q37 0 37 -26q0 -23 -53 -23h-227l-15 -30q-38 -80 -43 -97q-8 -29 -8 -84v-12h309q37 0 37 -27q0 -22 -53 -22h-293v-338q0 -60 16 -73q15 -12 99 -17 q73 -4 73 -21q0 -16 -26 -16h-21l-129 4l-161 2q3 0 -1 0t-19.5 -0.5t-35 -1t-54 -1t-69.5 -1.5q-16 -2 -28 -2q-27 0 -27 18q0 17 41 19q111 4 131 16q21 12 21 39l2 55v318h-346q-41 0 -41 24q0 25 57 25h330v45q-32 76 -86 178h-260q-41 0 -41 25q0 24 57 24h219 q-91 189 -125 252q-32 62 -65 131q-56 114 -68 125q-23 20 -139 21q-31 0 -31 20q0 17 37 17q35 0 156 -4q90 -2 94 -2q15 0 45.5 0.5t87 1t104.5 0.5q20 2 33 2q37 0 37 -19q0 -18 -35 -18h-43q-113 0 -113 -41q0 -32 119 -264l174 -334l168 336q115 238 115 266 q0 26 -53 34q-48 7 -76 5q-43 -1 -43 18q0 17 90 17h59q182 0 234 -2q39 -2 39 -17z" />
<glyph unicode="&#xa6;" horiz-adv-x="1064" d="M590 707h-117v712h117v-712zM590 -354h-117v680h117v-680z" />
<glyph unicode="&#xa7;" d="M879 559q0 -148 -115 -274q84 -111 84 -234q0 -152 -99 -254t-247 -102q-121 0 -199 66t-78 167q0 68 37 108t98 40q43 0 79 -31q34 -30 34 -72q0 -81 -141 -88q-45 -1 -45 -20q0 -51 66 -93t149 -42q198 0 198 227q0 104 -43 172q-47 74 -159 156q-178 132 -222 188 q-61 77 -61 191q0 135 119 280q-70 93 -70 195q0 138 89 224q88 85 235 85q118 0 193 -63t75 -162q0 -125 -113 -125q-106 0 -106 92q0 47 27 65q28 19 104 23q18 0 18 16q0 46 -59 81q-60 36 -133 36q-86 0 -137 -51t-51 -137q0 -82 47 -147q47 -64 174 -156 q144 -105 190 -181q62 -97 62 -180zM803 449q0 117 -203 270l-117 90q-2 1 -6 4.5t-11.5 10t-14.5 12.5l-91 79l-8 -10q-49 -61 -49 -139q0 -90 105 -184q51 -47 221 -181q20 -15 106 -90q68 79 68 138z" />
<glyph unicode="&#xa8;" horiz-adv-x="1026" d="M786 1143q0 -39 -27 -66q-26 -26 -69 -26q-44 0 -72 27t-28 69q0 41 30 71q29 29 72 29q42 0 68 -29t26 -75zM434 1145q0 -39 -30 -68q-29 -28 -70 -28q-42 0 -70 28t-28 70q0 44 28 72t72 28q38 0 68 -30t30 -72z" />
<glyph unicode="&#xa9;" horiz-adv-x="1644" d="M1559 711q0 -305 -216 -521q-215 -215 -520 -215q-306 0 -521 215q-214 214 -214 525q0 303 218 516t530 213q295 0 509 -217t214 -516zM1483 715q0 277 -196 473q-194 194 -474 194q-265 0 -457 -199q-192 -200 -192 -472q0 -279 192 -477q191 -197 467 -197t467 197 q193 199 193 481zM1167 563q0 -1 -2 -33q-6 -86 -6 -135q0 -2 2 -30t2 -50v-12q0 -22 -16 -22q-13 0 -43 57q-6 15 -12 27q-78 -93 -220 -93q-198 0 -327 126t-129 319q0 189 119 313q119 123 305 123q109 0 207 -61q30 -19 38 -19q11 0 19 21q16 45 33 45q14 0 14 -15 q0 -6 -2 -20q-14 -69 -14 -223q0 -29 -21 -29q-16 0 -22 27q-27 131 -80 184t-158 53q-124 0 -192 -107q-70 -110 -70 -296q0 -187 77 -296q77 -108 210 -108q203 0 247 246q6 33 23 33q18 0 18 -25z" />
<glyph unicode="&#xaa;" horiz-adv-x="737" d="M678 635q0 -23 -49 -47q-52 -25 -97 -25q-92 0 -92 84q-72 -88 -151 -88q-61 0 -101 32q-38 31 -38 83q0 166 286 200v25q0 104 -10 137q-16 60 -92 60q-52 0 -76 -27q-25 -28 -25 -43q0 -8 11 -8q55 -6 55 -53q0 -60 -68 -60q-79 0 -79 74q0 65 57 106q58 41 149 41 q116 0 166 -51q29 -31 29 -137v-225q0 -71 5 -88q4 -15 28 -15q20 0 51 25q15 12 27 12q14 0 14 -12zM436 756v86q-168 -39 -168 -133q0 -82 74 -82q94 0 94 129z" />
<glyph unicode="&#xab;" horiz-adv-x="854" d="M780 125q0 -12 -12 -12q-10 0 -20 12q-187 181 -302 283q-14 11 -14 26q0 51 3 63q3 11 24 29q156 138 268 279q18 24 33 24q16 0 16 -18q0 -41 -205 -348q3 -4 27.5 -42t63 -98t81.5 -128l29 -45q8 -13 8 -25zM449 125q0 -14 -13 -14q-10 0 -20 12q-183 180 -301 285 q-15 12 -15 26q0 52 3 64q3 11 24 26q178 171 268 281q21 24 33 24q16 0 16 -16q0 -40 -206 -350q121 -190 202 -316q9 -14 9 -22z" />
<glyph unicode="&#xac;" d="M971 0h-131v379h-719v74h850v-453z" />
<glyph unicode="&#xad;" horiz-adv-x="624" d="M594 406h-563v106h563v-106z" />
<glyph unicode="&#xae;" horiz-adv-x="1644" d="M1559 711q0 -305 -216 -521q-215 -215 -520 -215q-306 0 -521 215q-214 214 -214 525q0 303 218 516t530 213q295 0 509 -217t214 -516zM1483 715q0 277 -196 473q-194 194 -474 194q-265 0 -457 -199q-192 -200 -192 -472q0 -279 192 -477q191 -197 467 -197t467 197 q193 199 193 481zM1212 336q0 -57 -98 -57q-101 0 -164 79q-25 34 -32 68q-8 32 -23 162q-7 79 -55 110q-38 25 -125 29v-332q0 -57 12 -61q22 -8 78 -8q26 0 26 -17q0 -16 -32 -16h-15q-28 2 -133 2h-39q-46 -2 -65 -2h-49q-39 0 -39 16q0 17 45 17q46 0 54 7q9 7 9 48v668 q0 44 -8 54q-7 9 -49 9h-10q-8 -2 -15 -2q-26 0 -26 18q0 19 26 19h17q21 -4 162 -4h77q9 0 41 2h31q126 0 199 -52t73 -141q0 -106 -104 -161q-61 -34 -168 -41q-10 0 -10 -7q1 -4 10 -4q130 -12 187 -83q56 -70 73 -246q11 -97 62 -97q10 0 10 4q0 3 -2 5q-4 11 -4 16 q0 35 35 35q38 0 38 -37zM926 944q0 164 -150 164q-46 0 -53 -11q-8 -13 -8 -32v-301q211 0 211 180z" />
<glyph unicode="&#xaf;" horiz-adv-x="1026" d="M756 1098h-486v100h486v-100z" />
<glyph unicode="&#xb0;" d="M799 1194q0 -104 -74 -175t-184 -71q-100 0 -173 73t-73 173q0 105 73 178q72 72 179 72t179 -72q73 -73 73 -178zM707 1198q0 71 -47 120q-46 48 -115 48q-64 0 -109 -50t-45 -122q0 -73 46 -120q47 -48 114 -48q69 0 112 48q44 49 44 124z" />
<glyph unicode="&#xb1;" d="M971 651h-387v-381h-74v381h-389v74h389v379h74v-379h387v-74zM971 25h-850v73h850v-73z" />
<glyph unicode="&#xb2;" horiz-adv-x="724" d="M666 807q0 -3 -3 -19q-5 -29 -8 -49l-10 -92l-4 -61l-2 -21q-191 6 -242 6l-334 -4q-22 0 -22 17q0 14 72 67q198 149 272 257q72 105 72 253q0 228 -160 228q-57 0 -99 -30t-42 -71q0 -16 22 -16q90 0 90 -80q0 -74 -80 -74q-106 0 -106 111q0 90 70 148q69 57 184 57 q124 0 201 -75q75 -74 75 -196q0 -133 -91 -242q-92 -110 -310 -243h82q74 2 113 2q120 0 144 4q28 5 44 21q8 12 24 96q6 26 27 26t21 -20z" />
<glyph unicode="&#xb3;" horiz-adv-x="724" d="M641 811q0 -109 -97 -182q-98 -74 -243 -74q-103 0 -164 37t-61 100q0 88 94 88q84 0 84 -71q0 -50 -59 -72q-15 -6 -15 -12q0 -35 101 -35q94 0 151 61t57 158q0 92 -47 145q-48 54 -129 54q-11 0 -39 -2h-8q-28 0 -28 16q0 14 41 20q180 27 180 185q0 77 -40 120 q-41 44 -108 44q-44 0 -84 -19q-37 -18 -37 -41q0 -14 35 -22q54 -12 54 -62q0 -67 -70 -67q-100 0 -100 94q0 73 65 116q67 44 172 44q117 0 189 -57q71 -56 71 -146q0 -169 -227 -191v-8q125 -11 193 -65q69 -55 69 -156z" />
<glyph unicode="&#xb4;" horiz-adv-x="1026" d="M778 1358l-186 -195q-123 -129 -143 -129q-13 0 -13 10q0 6 4 13q10 25 68 160l65 143h68h29q36 -2 71 -2h37z" />
<glyph unicode="&#xb5;" horiz-adv-x="1003" d="M1024 70q0 -16 -45 -17q-163 -11 -281 -69q-7 -4 -14 -4q-12 0 -12 16l2 115q-95 -136 -260 -136q-116 0 -172 78q7 -54 14 -137q1 -28 12 -106l17 -105q4 -24 4 -51q0 -46 -35 -104q-34 -56 -64 -56q-33 0 -65 56q-33 57 -33 110q0 9 23 168q41 285 41 469v469 q0 70 -9 84q-8 12 -55 14l-26 -2q-56 -5 -56 17q0 14 35 14q46 0 107 -4q10 0 19.5 -0.5t14.5 -1t7 -0.5q71 0 133 6v-571q0 -160 20 -209q33 -80 133 -80q109 0 160 90q37 65 37 209v317q0 59 -2 105l-4 67q-2 31 -14 36q-13 5 -46 5q-86 -2 -86 19q0 12 43 12h19 q22 -2 108 -2q114 0 152 2v-571q0 -148 6 -187t32 -45t115 -6q25 0 25 -14z" />
<glyph unicode="&#xb6;" d="M1055 1403q0 -15 -56 -17q-82 -1 -105 -8q-22 -6 -29 -21q-7 -14 -7 -77v-842q0 -237 -6 -297q-18 -173 -96 -274q-139 -182 -357 -182q-115 0 -189 52q-75 53 -75 132q0 53 36 89t91 36q109 0 109 -96q0 -65 -101 -95q-26 -7 -26 -22q0 -23 48 -41q51 -19 103 -19 q122 0 174 97q43 82 43 307v633q-216 2 -329 73q-160 100 -160 273q0 216 178 282q98 37 311 37h396q47 0 47 -20zM801 672v710h-133v-1042q0 -265 -4 -301q-15 -204 -89 -266l11 -13q140 91 184 240q26 90 31 328v0v-1v0v0v-1v0v0v0v-1v0v0v0v0v0v0v0v0v0v0v0v0v0v0v0v0v1 v0v0v0v0v1v0v0v0v1v0v0v1v0v0v1v0v0v1v0v1v0v1v0v1v0v1v0v1v0v1v0v1v0v1v0v1v0v1v0v1v1v0v1v0v1v1v0v1v1v0v1v1v1v0v1v1v1v1v0v1v1v1v1v1v1v1v1v1v1v1v1v1v1v1v1v1v1v1v1v1v1v1v1v1v1v1v1v1v1v1v1v1v1v1v1v1v1v1v1v1v1v1v1v1v1v1v1v1v1v1v1v1v1v1v1v1v1v1v1v1v1v1v1v1v1v1v1 v1v1v1v1v1v1v1v1v1v1v1v1v1v1v1v1v1v1v1v1v1v1v1v1v1v1v1v1v1v1v1v1v1v1v1v1v1v1v1v1v1v1v1v1v1v1v1v1v1v1v1v1v1v1v1v1v1v1v1v1v1v1v1v1v1v1v1v1v1v1v1v1v1v1v1v1v1v1v1v1v1v1v1v1v1v1v1v1v1v1v1v1v1v1v1v1v1v1v1v1v1v1v1v1v1v1v1v1v1v1v1v1v1v1v1v1v1v1v1v1v1v1v1v1v1v1v1 v1v1v1v1v1v1v1v1v1v1v1v1v1v1v1v1v1v1v1v1v1v1v1v1v1v1v1v1v1v1v1v1v1v1v1v1v1v1v1v1v1v1v1v1v1v1v1v1v1v1v1v1v1v1v1v1v1v1v1v1v1v1v1v1v1v1v1v1v1v1v1v1v1v1v1v1v1v1v1v1v1v1v1v1v1v1v1v1v1v1v1v1v1v1v1v1v1v1v1v1v1v1v1v1v1v1v1v1v1v1v1v1v10z" />
<glyph unicode="&#xb7;" horiz-adv-x="530" d="M375 465q0 -44 -32 -78q-31 -33 -79 -33t-79 33q-31 32 -31 80q0 46 32 77t80 31q46 0 77 -31q32 -32 32 -79z" />
<glyph unicode="&#xb8;" horiz-adv-x="1026" d="M719 -217q0 -70 -56 -119t-139 -49q-44 0 -98 26q-53 26 -53 48q0 12 14 12q9 0 31 -16q28 -23 67 -23q41 0 73 45q32 46 32 105q0 98 -76 98q-15 0 -29 -2v100h43v-71q81 0 137 -45q54 -44 54 -109z" />
<glyph unicode="&#xb9;" horiz-adv-x="724" d="M575 584q0 -17 -36 -17h-17q-7 0 -43 2h-35h-47h-69q-60 -2 -68 -2h-39q-41 0 -41 19q0 16 27 16h61q34 0 35 14l2 15v59v567q0 48 -10 48q-45 -7 -84 -7h-21q-26 0 -26 15q0 11 24 16q126 17 222 101q15 12 22 12q15 0 17 -8q2 -10 2 -56v-757q2 -19 24 -19 q100 0 100 -18z" />
<glyph unicode="&#xba;" horiz-adv-x="737" d="M649 842q0 -122 -79 -202q-79 -81 -197 -81q-121 0 -203 81t-82 200q0 121 80 204q79 82 199 82t201 -82t81 -202zM512 840q0 256 -143 256q-66 0 -105 -68t-39 -186q0 -254 154 -254q133 0 133 252z" />
<glyph unicode="&#xbb;" horiz-adv-x="854" d="M756 506q0 -51 -3 -63q-3 -11 -24 -29q-166 -149 -268 -279q-18 -24 -33 -24q-16 0 -16 16q0 42 206 350q-131 193 -176 268q-9 19 -26 48q-8 18 -8 22q0 12 12 12q10 0 20 -12q188 -184 301 -283q15 -12 15 -26zM422 506q0 -52 -3 -64q-3 -11 -24 -28 q-150 -132 -268 -279q-21 -24 -33 -24q-16 0 -16 18q0 36 207 348q-37 53 -201 316q-8 18 -8 22q0 12 12 12q10 0 21 -12q164 -161 299 -283q14 -11 14 -26z" />
<glyph unicode="&#xbc;" horiz-adv-x="1726" d="M1612 141q0 -20 -19 -20q-16 0 -19 9t-9 67q-2 30 -21 32q-24 4 -71 4v-143q0 -38 3 -45q3 -9 19 -10l82 -2q27 0 27 -17q0 -16 -62 -16h-135q-24 0 -82 -2h-72q-22 -2 -30 -2q-35 0 -35 18q0 20 49 19q52 -2 78 4q14 4 14 51v141h-102q-174 0 -213 4q-43 4 -43 19 q0 9 192 252q89 113 150 196q50 68 86 115q38 47 51 47q23 0 23 -28v-564q3 0 57 2q24 0 29 10q4 8 4 61q0 52 22 52q24 0 23 -28l-2 -45q-4 -104 6 -164v-17zM1290 1419l-774 -1419h-80l774 1419h80zM551 584q0 -17 -37 -17h-16q-7 0 -43 2h-35h-47h-70q-60 -2 -67 -2h-39 q-41 0 -41 19q0 16 26 16h62q34 0 35 14l2 15v59v567q0 48 -11 48q-46 -7 -84 -7h-20q-27 0 -27 15q0 11 25 16q124 16 221 101q15 12 23 12q14 0 16 -8q2 -10 2 -56v-757q2 -19 25 -19q100 0 100 -18zM1337 668q-94 -136 -282 -383l-11 -13q80 -2 150 -2h135v82q0 46 2 112 q0 15 1 41.5t2.5 75.5t2.5 87z" />
<glyph unicode="&#xbd;" horiz-adv-x="1726" d="M1630 238q0 -11 -10 -68q-5 -32 -10 -90l-4 -64l-2 -20q-153 8 -244 6l-332 -4q-22 0 -22 16q0 13 26 33q187 144 236 195q153 158 153 350q0 227 -159 227q-62 0 -101 -29q-41 -30 -41 -71q0 -17 23 -17q90 0 90 -79q0 -74 -80 -74q-106 0 -106 110q0 92 69 149 q68 56 184 56q126 0 201 -74q76 -75 76 -196q0 -132 -89 -241q-88 -107 -312 -244l73 2h121q120 0 144 4q30 5 45 20q6 7 24 96q6 27 27 27q20 0 20 -20zM1229 1419l-774 -1419h-80l774 1419h80zM539 584q0 -17 -37 -17h-17q-7 0 -43 2h-34h-48h-69q-60 -2 -68 -2h-39 q-41 0 -41 19q0 16 27 16h61q34 0 35 14l2 15v59v567q0 48 -10 48q-46 -7 -84 -7h-20q-27 0 -27 15q0 11 25 16q124 16 221 101q15 12 22 12q15 0 17 -8q2 -10 2 -56v-757q2 -19 24 -19q101 0 101 -18z" />
<glyph unicode="&#xbe;" horiz-adv-x="1726" d="M1636 143q0 -22 -18 -22q-24 0 -25 39q-4 58 -12 66q-7 7 -84 7v-143q0 -36 3 -44q2 -6 20 -11l82 -2q26 0 26 -19q0 -14 -61 -14h-135q-24 0 -82 -2h-72q-22 -2 -31 -2q-35 0 -35 18q0 21 50 19q51 -2 77 4q15 5 15 51v141h-103q-174 0 -213 4q-43 4 -43 19q0 6 195 252 q47 59 164 219q102 139 121 139q22 0 22 -37v-555q30 2 56 2q34 0 34 50t4 61q4 12 19 12q23 0 22 -28l-2 -52q-1 -69 6 -157v-15zM1352 1419l-774 -1419h-80l774 1419h80zM678 811q0 -109 -97 -182q-98 -74 -243 -74q-103 0 -164 37t-61 100q0 88 94 88q84 0 84 -71 q0 -49 -60 -72q-14 -6 -14 -12q0 -35 100 -35q95 0 152 61t57 158q0 92 -47 145q-48 54 -129 54q-11 0 -39 -2h-8q-29 0 -29 16q0 14 41 20q181 27 181 185q0 77 -40 120q-41 44 -108 44q-44 0 -84 -19q-37 -18 -37 -41q0 -14 35 -22q53 -12 53 -62q0 -67 -69 -67 q-101 0 -101 94q0 72 66 116q67 44 172 44q116 0 188 -57t72 -146q0 -169 -227 -191v-8q125 -11 193 -65q69 -55 69 -156zM1362 668q-68 -90 -150 -207q-9 -13 -59 -82l-84 -107q80 -2 150 -2h135v82q0 46 2 112q0 15 1 41.5t2.5 75.5t2.5 87z" />
<glyph unicode="&#xbf;" horiz-adv-x="845" d="M610 809q0 -46 -32 -77q-34 -32 -78 -32q-47 0 -79 32t-32 79t33 79q34 32 80 32t77 -33q31 -32 31 -80zM782 -260q0 -125 -92 -205t-235 -80q-160 0 -257 88q-98 89 -98 232q0 105 56 200q40 67 204 209q150 129 150 228q0 29 -23 110q-2 10 -2 21q0 16 17 16 q22 0 43 -59q20 -57 20 -123q0 -85 -33 -155q-35 -75 -120 -183q-129 -164 -129 -293q0 -111 59 -176q60 -66 160 -66q96 0 160 67q63 66 63 167q0 23 -4 24q-3 -1 -14 -20q-23 -41 -78 -41q-92 0 -92 96q0 97 106 97q139 0 139 -154z" />
<glyph unicode="&#xc0;" horiz-adv-x="1232" d="M684 1565q0 -11 -12 -11q-20 0 -144 129l-186 193l35 2l59 2h43q28 0 66 -2l84 -182q3 -7 22 -54l17 -36l12 -29q4 -7 4 -12zM1325 14q0 -18 -31 -18q-15 0 -37 2l-260 4l-260 -4q-20 -2 -30 -2q-41 0 -41 20q0 23 55 23q180 1 180 37q0 3 -4 16l-16 55l-11 29 q-19 67 -90 281h-438q-123 -327 -123 -377q0 -29 25 -35q9 -2 102 -8q60 -1 60 -21t-54 -20q-86 0 -219 8q-40 2 -63 2q-37 0 -64 -4q-22 -2 -26 -2q-29 0 -29 18q0 20 64 21q66 2 94 19q29 18 45 67q285 813 430 1210q6 30 16 56l10 36q6 23 17 23q5 0 10 -12 q36 -106 121 -334q15 -41 366 -998q16 -45 42 -57q27 -13 106 -14q53 -2 53 -21zM768 504q-10 26 -45.5 127t-63.5 178l-98 281q-82 -217 -207 -586h414z" />
<glyph unicode="&#xc1;" horiz-adv-x="1232" d="M901 1876l-186 -193q-125 -129 -144 -129q-12 0 -12 11q0 5 4 12q10 25 68 160l65 141q40 2 68 2q50 0 100 -2zM1325 14q0 -18 -31 -18q-15 0 -37 2l-260 4l-260 -4q-20 -2 -30 -2q-41 0 -41 20q0 23 55 23q180 1 180 37q0 3 -4 16l-16 55l-11 29q-19 67 -90 281h-438 q-123 -327 -123 -377q0 -29 25 -35q9 -2 102 -8q60 -1 60 -21t-54 -20q-86 0 -219 8q-40 2 -63 2q-37 0 -64 -4q-22 -2 -26 -2q-29 0 -29 18q0 20 64 21q66 2 94 19q29 18 45 67q285 813 430 1210q6 30 16 56l10 36q6 23 17 23q5 0 10 -12q36 -106 121 -334q15 -41 366 -998 q16 -45 42 -57q27 -13 106 -14q53 -2 53 -21zM768 504q-10 26 -45.5 127t-63.5 178l-98 281q-82 -217 -207 -586h414z" />
<glyph unicode="&#xc2;" horiz-adv-x="1232" d="M883 1544h-135q-72 68 -150 225q-46 -93 -99 -161q-55 -70 -83 -70q-19 0 -19 14q0 6 13 19q91 90 174 266q33 72 51 72q16 0 55 -74q78 -148 193 -291zM1325 14q0 -18 -31 -18q-15 0 -37 2l-260 4l-260 -4q-20 -2 -30 -2q-41 0 -41 20q0 23 55 23q180 1 180 37 q0 3 -4 16l-16 55l-11 29q-19 67 -90 281h-438q-123 -327 -123 -377q0 -29 25 -35q9 -2 102 -8q60 -1 60 -21t-54 -20q-86 0 -219 8q-40 2 -63 2q-37 0 -64 -4q-22 -2 -26 -2q-29 0 -29 18q0 20 64 21q66 2 94 19q29 18 45 67q285 813 430 1210q6 30 16 56l10 36q6 23 17 23 q5 0 10 -12q36 -106 121 -334q15 -41 366 -998q16 -45 42 -57q27 -13 106 -14q53 -2 53 -21zM768 504q-10 26 -45.5 127t-63.5 178l-98 281q-82 -217 -207 -586h414z" />
<glyph unicode="&#xc3;" horiz-adv-x="1232" d="M922 1755q0 -49 -42 -117q-42 -67 -122 -67q-52 0 -187 71q-124 66 -149 66q-41 0 -41 -43q0 -21 31 -55q10 -10 10 -17q0 -16 -21 -16q-20 0 -41 27q-20 26 -20 53q0 54 44 95q43 40 105 40q69 0 191 -63q123 -64 149 -64q24 0 45 72q11 35 29 35q19 0 19 -17zM1325 14 q0 -18 -31 -18q-15 0 -37 2l-260 4l-260 -4q-20 -2 -30 -2q-41 0 -41 20q0 23 55 23q180 1 180 37q0 3 -4 16l-16 55l-11 29q-19 67 -90 281h-438q-123 -327 -123 -377q0 -29 25 -35q9 -2 102 -8q60 -1 60 -21t-54 -20q-86 0 -219 8q-40 2 -63 2q-37 0 -64 -4q-22 -2 -26 -2 q-29 0 -29 18q0 20 64 21q66 2 94 19q29 18 45 67q285 813 430 1210q6 30 16 56l10 36q6 23 17 23q5 0 10 -12q36 -106 121 -334q15 -41 366 -998q16 -45 42 -57q27 -13 106 -14q53 -2 53 -21zM768 504q-10 26 -45.5 127t-63.5 178l-98 281q-82 -217 -207 -586h414z" />
<glyph unicode="&#xc4;" horiz-adv-x="1232" d="M901 1661q0 -38 -28 -66q-26 -26 -68 -26q-43 0 -72 27q-28 27 -28 69t29 71t73 29q41 0 67 -29q27 -30 27 -75zM549 1665q0 -39 -30 -68q-29 -28 -70 -28q-42 0 -70 28q-29 29 -29 70q0 43 29 72q28 28 70 28q40 0 70 -30t30 -72zM1325 14q0 -18 -31 -18q-15 0 -37 2 l-260 4l-260 -4q-20 -2 -30 -2q-41 0 -41 20q0 23 55 23q180 1 180 37q0 3 -4 16l-16 55l-11 29q-19 67 -90 281h-438q-123 -327 -123 -377q0 -29 25 -35q9 -2 102 -8q60 -1 60 -21t-54 -20q-86 0 -219 8q-40 2 -63 2q-37 0 -64 -4q-22 -2 -26 -2q-29 0 -29 18q0 20 64 21 q66 2 94 19q29 18 45 67q285 813 430 1210q6 30 16 56l10 36q6 23 17 23q5 0 10 -12q36 -106 121 -334q44 -120 366 -997q17 -46 42 -58q27 -13 106 -14q53 -2 53 -21zM768 504q-10 26 -45.5 127t-63.5 178l-98 281q-82 -217 -207 -586h414z" />
<glyph unicode="&#xc5;" horiz-adv-x="1232" d="M809 1741q0 -77 -52 -126q-53 -50 -132 -50q-71 0 -124 51q-52 51 -52 123q0 76 52 127q53 51 128 51t128 -51q52 -51 52 -125zM1325 14q0 -18 -31 -18q-15 0 -37 2l-260 4l-260 -4q-20 -2 -30 -2q-41 0 -41 20q0 23 55 23q180 1 180 37q0 3 -4 16l-16 55l-11 29 q-19 67 -90 281h-438q-123 -327 -123 -377q0 -29 25 -35q9 -2 102 -8q60 -1 60 -21t-54 -20q-86 0 -219 8q-40 2 -63 2q-37 0 -64 -4q-22 -2 -26 -2q-29 0 -29 18q0 20 64 21q66 2 94 19q29 18 45 67q285 813 430 1210q6 30 16 56l10 36q6 23 17 23q5 0 10 -12 q36 -106 121 -334q15 -41 366 -998q16 -45 42 -57q27 -13 106 -14q53 -2 53 -21zM739 1743q0 52 -31 84q-32 33 -81 33q-46 0 -76 -35q-31 -36 -31 -86q0 -48 32 -83q31 -34 79 -34t78 34t30 87zM768 504q-10 26 -45.5 127t-63.5 178l-98 281q-82 -217 -207 -586h414z" />
<glyph unicode="&#xc6;" horiz-adv-x="1912" d="M1870 322q0 -3 -0.5 -9.5t-1 -18.5t-0.5 -22q-4 -68 -4 -200v-84q-231 10 -781 10q-27 0 -153 -2h-103h-14q-41 0 -41 20q0 21 55 21q79 0 95 18q16 17 16 107v295h-504q-211 -331 -211 -383q0 -21 20 -26q25 -6 128 -13q39 -1 39 -19t-35 -18h-21h-112q-110 2 -181 2 q-79 0 -102 6q-14 4 -14 14q0 16 53 21q123 8 164 74q6 6 67 108l555 942q109 183 154 262h37l65 -2q88 -2 131 -2q10 0 160 2q136 2 160 2l213 -2q23 0 100 7q0 -8 21 -256l6 -76q2 -14 2 -25q0 -22 -18 -22q-15 0 -19 22q-28 183 -105 246t-374 63q-104 0 -174 -2v-608h88 q229 0 274 62q29 40 35 141q6 78 25 78q22 0 22 -35q0 -19 -4 -72q-6 -90 -6 -145q0 -194 8 -303q0 -7 0.5 -15.5t1 -13t0.5 -6.5q0 -27 -20 -27q-15 0 -19 9q-4 8 -10 59q-17 127 -37 160q-21 35 -92 57q-30 10 -266 12v-694q333 0 434 12q138 18 184 78q38 50 56 195 q6 49 32 49q21 0 21 -53zM938 504v813q-56 -101 -143 -246q-110 -187 -183 -315q-88 -154 -145 -252h471z" />
<glyph unicode="&#xc7;" horiz-adv-x="1337" d="M1245 459q0 -23 -4 -58q-10 -91 -10 -227q0 -53 10 -143v-19q0 -26 -16 -26q-17 0 -29 30q-29 70 -57 88q-150 -129 -359 -129q-25 0 -57 2v-40q80 0 136 -45q54 -44 54 -109q0 -70 -56 -119t-138 -49q-44 0 -98 26t-54 48q0 12 15 12q8 0 30 -16q28 -23 68 -23 q41 0 73 44q31 43 31 104q0 100 -75 100q-15 0 -29 -2v76q-265 39 -428 240q-164 202 -164 491q0 322 181 525q181 204 468 204q103 0 166 -18q67 -19 154 -70q45 -27 67 -27q18 0 35 33q27 57 43 57q17 0 17 -16q0 -7 -5 -27q-30 -133 -22 -334l2 -47q2 -39 -23 -39 q-20 0 -26 39q-33 195 -109 289q-96 119 -282 119q-166 0 -262 -111q-175 -199 -175 -581q0 -338 146 -531q125 -164 330 -164q105 0 194 53t135 142q54 104 76 227q7 49 27 49t20 -28z" />
<glyph unicode="&#xc8;" horiz-adv-x="1191" d="M715 1565q0 -11 -13 -11q-18 0 -143 129l-186 193l35 2l59 2h43q27 0 65 -2l84 -182q12 -26 23 -54l16 -36l13 -29q4 -7 4 -12zM1151 332q0 -20 -4 -101t-4 -176v-67q-191 10 -795 10q-49 0 -141 -2h-94h-21q-39 0 -39 18q0 13 13 15q5 0 77 6q53 5 65 22q11 17 11 97 v1151q0 59 -17 70q-16 11 -112 11q-33 0 -33 19q0 18 45 18l351 -2q4 0 31 0.5t82.5 1t117.5 0.5h287q51 0 112 9q5 -98 19 -244l8 -88q2 -14 2 -27q0 -20 -18 -20q-22 0 -33 51q-39 184 -127 233q-65 37 -344 37h-168v-600h49q230 0 280 35t68 203q4 43 23 43q22 0 22 -37 q0 -45 -4 -109t-4 -108q0 -213 8 -301q2 -28 2 -35q0 -27 -22 -27q-16 0 -20 18q-6 23 -17 113q-17 122 -100 150q-37 12 -193 12h-92v-688q450 0 528 18q136 30 154 263q4 51 26 51q21 0 21 -43z" />
<glyph unicode="&#xc9;" horiz-adv-x="1191" d="M920 1876l-187 -193q-125 -129 -143 -129q-12 0 -12 11q0 5 4 12q28 68 67 160l66 141q40 2 67 2q51 0 101 -2zM1151 332q0 -20 -4 -101t-4 -176v-67q-191 10 -795 10q-49 0 -141 -2h-94h-21q-39 0 -39 18q0 13 13 15q5 0 77 6q53 5 65 22q11 17 11 97v1151q0 59 -17 70 q-16 11 -112 11q-33 0 -33 19q0 18 45 18l351 -2q4 0 31 0.5t82.5 1t117.5 0.5h287q51 0 112 9q5 -98 19 -244l8 -88q2 -14 2 -27q0 -20 -18 -20q-22 0 -33 51q-39 184 -127 233q-65 37 -344 37h-168v-600h49q230 0 280 35t68 203q4 43 23 43q22 0 22 -37q0 -45 -4 -109 t-4 -108q0 -213 8 -301q2 -28 2 -35q0 -27 -22 -27q-16 0 -20 18q-6 23 -17 113q-17 122 -100 150q-37 12 -193 12h-92v-688q450 0 528 18q136 30 154 263q4 51 26 51q21 0 21 -43z" />
<glyph unicode="&#xca;" horiz-adv-x="1191" d="M874 1544h-135q-70 66 -149 225q-44 -89 -100 -161q-55 -70 -82 -70q-19 0 -19 14q0 7 12 19q91 90 174 266q33 72 52 72q16 0 55 -74q80 -151 192 -291zM1151 332q0 -20 -4 -101t-4 -176v-67q-191 10 -795 10q-49 0 -141 -2h-94h-21q-39 0 -39 18q0 13 13 15q5 0 77 6 q53 5 65 22q11 17 11 97v1151q0 59 -17 70q-18 12 -112 12q-33 0 -33 18t45 18l351 -2q4 0 31 0.5t82.5 1t117.5 0.5h287q51 0 112 9q5 -98 19 -244l8 -88q2 -14 2 -27q0 -20 -18 -20q-22 0 -33 51q-39 184 -127 233q-65 37 -344 37h-168v-600h49q230 0 280 35t68 203 q4 43 23 43q22 0 22 -37q0 -45 -4 -109t-4 -108q0 -213 8 -301q2 -28 2 -35q0 -27 -22 -27q-16 0 -20 18q-6 23 -17 113q-17 122 -100 150q-37 12 -193 12h-92v-688q450 0 528 18q136 30 154 263q4 51 26 51q21 0 21 -43z" />
<glyph unicode="&#xcb;" horiz-adv-x="1191" d="M920 1661q0 -38 -28 -66q-26 -26 -69 -26t-71 27q-29 27 -29 69q0 41 30 71q29 29 72 29q42 0 68 -29q27 -30 27 -75zM567 1665q0 -40 -29 -68t-71 -28t-70 28t-28 70q0 44 28 72t70 28q41 0 71 -30q29 -29 29 -72zM1151 332q0 -20 -4 -101t-4 -176v-67q-191 10 -795 10 q-49 0 -141 -2h-94h-21q-39 0 -39 18q0 13 13 15q5 0 77 6q53 5 65 22q11 17 11 97v1151q0 59 -17 70q-18 12 -112 12q-33 0 -33 18t45 18l351 -2q4 0 31 0.5t82.5 1t117.5 0.5h287q51 0 112 9q5 -98 19 -244l8 -88q2 -14 2 -27q0 -20 -18 -20q-22 0 -33 51 q-39 184 -127 233q-65 37 -344 37h-168v-600h49q230 0 280 35t68 203q4 43 23 43q22 0 22 -37q0 -45 -4 -109t-4 -108q0 -213 8 -301q2 -28 2 -35q0 -27 -22 -27q-16 0 -20 18q-6 23 -17 113q-17 122 -100 150q-37 12 -193 12h-92v-688q450 0 528 18q136 30 154 263 q4 51 26 51q21 0 21 -43z" />
<glyph unicode="&#xcc;" horiz-adv-x="643" d="M377 1565q0 -11 -12 -11q-19 0 -144 129l-186 193l35 2l59 2h43q28 0 66 -2l84 -182q3 -7 22 -54l16 -36l13 -29q4 -7 4 -12zM590 16q0 -16 -25 -16h-20q-12 6 -279 6q-57 0 -102 -4q-36 -2 -82 -2q-27 0 -27 18q0 17 54 19q81 1 96 19q14 17 14 118v1077q0 102 -10 113 q-12 20 -113 25q-39 1 -39 16q0 18 25 18l276 -4q1 0 119 2l78 2q33 0 33 -18q0 -17 -90 -21q-51 -2 -63 -18q-11 -15 -11 -86v-1094q0 -117 10 -127q21 -21 133 -26q23 0 23 -17z" />
<glyph unicode="&#xcd;" horiz-adv-x="643" d="M594 1876l-186 -193q-125 -129 -144 -129q-12 0 -12 11q0 5 4 12q10 25 68 160l65 141q40 2 68 2q50 0 100 -2zM590 16q0 -16 -25 -16h-20q-12 6 -279 6q-57 0 -102 -4q-36 -2 -82 -2q-27 0 -27 18q0 17 54 19q81 1 96 19q14 17 14 118v1077q0 102 -10 113 q-12 20 -113 25q-39 1 -39 16q0 18 25 18l276 -4q1 0 119 2l78 2q33 0 33 -18q0 -17 -90 -21q-51 -2 -63 -18q-11 -15 -11 -86v-1094q0 -117 10 -127q21 -21 133 -26q23 0 23 -17z" />
<glyph unicode="&#xce;" horiz-adv-x="643" d="M575 1544h-135q-70 66 -149 225q-44 -89 -100 -161q-55 -70 -82 -70q-19 0 -19 14q0 7 12 19q91 90 174 266q33 72 52 72q16 0 55 -74q79 -151 192 -291zM590 16q0 -16 -25 -16h-20q-12 6 -279 6q-57 0 -102 -4q-36 -2 -82 -2q-27 0 -27 18q0 17 54 19q81 1 96 19 q14 17 14 118v1077q0 102 -10 113q-12 20 -113 25q-39 1 -39 16q0 18 25 18l276 -4q1 0 119 2l78 2q33 0 33 -18q0 -17 -90 -21q-51 -2 -63 -18q-11 -15 -11 -86v-1094q0 -117 10 -127q21 -21 133 -26q23 0 23 -17z" />
<glyph unicode="&#xcf;" horiz-adv-x="643" d="M565 1663q0 -41 -27 -68q-26 -26 -69 -26q-42 0 -71 28t-29 68q0 42 29 71t73 29q41 0 67 -29q27 -30 27 -73zM274 1665q0 -40 -29 -68t-71 -28t-70 28t-28 70q0 44 28 72t70 28q41 0 71 -30q29 -29 29 -72zM590 16q0 -16 -25 -16h-20q-12 6 -279 6q-57 0 -102 -4 q-36 -2 -82 -2q-27 0 -27 18q0 17 54 19q81 1 96 19q14 17 14 118v1077q0 102 -10 113q-12 20 -113 25q-39 1 -39 16q0 18 25 18l276 -4q1 0 119 2l78 2q33 0 33 -18q0 -17 -90 -21q-51 -2 -63 -18q-11 -15 -11 -86v-1094q0 -117 10 -127q21 -21 133 -26q23 0 23 -17z" />
<glyph unicode="&#xd0;" horiz-adv-x="1466" d="M1380 707q0 -359 -252 -560q-184 -147 -491 -147q-2 0 -10.5 0.5t-26.5 1t-37 0.5q-88 2 -188 2h-103l-161 -2q-20 -2 -31 -2q-39 0 -39 20q0 19 65 19q83 0 105 31q8 16 8 77v553h-143q-35 0 -35 25t47 25h131v501q0 101 -15 117t-106 16q-47 0 -47 23q0 16 35 16h2 q1 0 4.5 -0.5t9 -0.5t13 -0.5t16.5 -0.5q62 -2 92 -2h219q367 0 523 -51q188 -62 301 -244q114 -183 114 -417zM1151 717q0 340 -133 498q-134 159 -418 159q-136 0 -164 -28q-12 -15 -12 -99v-497h274q31 0 31 -27q0 -23 -45 -23h-260v-542q0 -58 3 -70q3 -13 17 -20 q52 -25 207 -25q223 0 357 156q143 165 143 518z" />
<glyph unicode="&#xd1;" horiz-adv-x="1343" d="M963 1755q0 -49 -42 -117q-42 -67 -122 -67q-52 0 -187 71q-125 66 -149 66q-41 0 -41 -43q0 -21 31 -55q10 -10 10 -17q0 -16 -21 -16q-20 0 -41 27q-20 26 -20 53q0 54 44 95q43 40 105 40q70 0 191 -63q123 -64 149 -64q24 0 45 72q11 35 29 35q19 0 19 -17z M1315 1403q0 -21 -51 -19l-45 2h-37q-34 0 -39 -11q-6 -12 -6 -68v-1180q0 -103 -2 -127q-1 -18 -13 -18t-28 22l-263 383q-194 284 -552 834l2 -1143q1 -26 30 -34q28 -7 138 -9q26 0 26 -17q0 -20 -53 -20q-18 0 -117 6q-44 2 -63 2h-3q-3 -1 -12.5 -2t-20.5 -2 q-33 -4 -116 -4h-20q-47 0 -47 18q0 19 40 19q121 1 141 15q19 13 19 87v1010q0 169 -69 213q-31 20 -117 20q-53 0 -53 21q0 18 30 18q21 0 105 -2q18 0 34.5 -0.5t24 -1t8.5 -0.5q2 0 8.5 0.5t20.5 1t29 0.5q47 0 131 2l706 -1050v911q0 59 -2 77q-1 13 -16 20 q-14 7 -98 7q-74 0 -74 19q0 20 49 20h72h57q9 0 18.5 -0.5t14 -1t6.5 -0.5l4 1q5 0 14 0.5t19 0.5h61h64q45 0 45 -20z" />
<glyph unicode="&#xd2;" horiz-adv-x="1474" d="M795 1565q0 -11 -13 -11q-18 0 -143 129l-186 193l34 2l60 2h43q27 0 65 -2l84 -182q12 -26 23 -54l16 -36l13 -29q4 -7 4 -12zM1389 702q0 -303 -184 -516q-183 -211 -449 -211q-283 0 -475 214q-193 216 -193 528q0 320 185 523q186 204 475 204q272 0 456 -213 q185 -214 185 -529zM1159 692q0 376 -153 584q-96 131 -269 131q-164 0 -254 -100q-166 -184 -166 -600q0 -328 116 -512q115 -183 325 -183q194 0 293 172q108 191 108 508z" />
<glyph unicode="&#xd3;" horiz-adv-x="1474" d="M1010 1876l-187 -193q-125 -129 -143 -129q-12 0 -12 11q0 5 4 12q28 68 67 160l66 141q40 2 67 2q51 0 101 -2zM1389 702q0 -303 -184 -516q-183 -211 -449 -211q-283 0 -475 214q-193 216 -193 528q0 320 185 523q186 204 475 204q272 0 456 -213q185 -214 185 -529z M1159 692q0 376 -153 584q-96 131 -269 131q-164 0 -254 -100q-166 -184 -166 -600q0 -328 116 -512q115 -183 325 -183q194 0 293 172q108 191 108 508z" />
<glyph unicode="&#xd4;" horiz-adv-x="1474" d="M991 1544h-135q-70 66 -149 225q-44 -89 -100 -161q-55 -70 -83 -70q-18 0 -18 14q0 7 12 19q91 90 174 266q33 72 51 72q17 0 56 -74q79 -151 192 -291zM1389 702q0 -303 -184 -516q-183 -211 -449 -211q-283 0 -475 214q-193 216 -193 528q0 320 185 523 q186 204 475 204q272 0 456 -213q185 -214 185 -529zM1159 692q0 376 -153 584q-96 131 -269 131q-164 0 -254 -100q-166 -184 -166 -600q0 -328 116 -512q115 -183 325 -183q194 0 293 172q108 191 108 508z" />
<glyph unicode="&#xd5;" horiz-adv-x="1474" d="M1030 1755q0 -49 -42 -117q-42 -67 -122 -67q-51 0 -186 71q-125 66 -150 66q-41 0 -41 -43q0 -21 31 -55q10 -10 10 -17q0 -16 -20 -16t-41 27q-20 26 -20 53q0 54 44 95q43 40 105 40q68 0 190 -63q123 -64 150 -64q24 0 45 72q11 35 29 35t18 -17zM1389 702 q0 -303 -184 -516q-183 -211 -449 -211q-283 0 -475 214q-193 216 -193 528q0 320 185 523q186 204 475 204q272 0 456 -213q185 -214 185 -529zM1159 692q0 376 -153 584q-96 131 -269 131q-164 0 -254 -100q-166 -184 -166 -600q0 -328 116 -512q115 -183 325 -183 q194 0 293 172q108 191 108 508z" />
<glyph unicode="&#xd6;" horiz-adv-x="1474" d="M1010 1661q0 -38 -28 -66q-26 -26 -69 -26t-71 27q-29 27 -29 69q0 41 30 71q29 29 72 29q42 0 68 -29q27 -30 27 -75zM657 1665q0 -40 -29 -68t-71 -28t-70 28t-28 70q0 44 28 72t70 28q41 0 71 -30q29 -29 29 -72zM1389 702q0 -303 -184 -516q-183 -211 -449 -211 q-283 0 -475 214q-193 216 -193 528q0 320 185 523q186 204 475 204q272 0 456 -213q185 -214 185 -529zM1159 692q0 376 -153 584q-96 131 -269 131q-164 0 -254 -100q-166 -184 -166 -600q0 -328 116 -512q115 -183 325 -183q194 0 293 172q108 191 108 508z" />
<glyph unicode="&#xd7;" d="M821 360l-274 275l-268 -268l-54 51l271 270l-277 275l53 51l275 -275l268 269l51 -54l-266 -266l272 -274z" />
<glyph unicode="&#xd8;" horiz-adv-x="1474" d="M1389 700q0 -304 -184 -515q-183 -210 -449 -210q-192 0 -361 115l-114 -190q-11 -19 -31 -19q-33 0 -33 23q0 4 16 30l115 191q-260 215 -260 596q0 313 185 517q186 206 468 206q186 0 344 -105l115 191q7 14 29 14q31 0 31 -22q0 -4 -13 -27l-117 -192 q259 -235 259 -603zM1030 1249q-101 158 -289 158q-190 0 -290 -145q-134 -193 -134 -551q0 -291 91 -488zM1159 705q0 262 -96 487l-621 -1024q128 -156 314 -156q249 0 350 293q53 154 53 400z" />
<glyph unicode="&#xd9;" horiz-adv-x="1363" d="M813 1565q0 -11 -12 -11q-19 0 -144 129l-186 193l35 2l59 2h43q28 0 66 -2l84 -182q3 -7 22 -54l17 -36l12 -29q4 -7 4 -12zM1346 1403q0 -19 -37 -19q-1 0 -6.5 0.5t-15 1.5t-19.5 1q-14 2 -29 2q-51 0 -61 -27q-4 -13 -4 -47v-768q0 -297 -112 -435 q-111 -137 -360 -137q-295 0 -417 168q-80 113 -80 371l-2 821q-6 38 -49 45q-16 2 -76 2q-35 5 -35 21q0 18 29 18h37q3 0 9 -0.5t17 -1t21 -0.5h59l293 2q14 2 24 2q35 0 35 -22q0 -15 -12 -17q-21 -3 -82 -4q-30 0 -39 -4q-21 -7 -22 -28q-2 -10 -2 -117v-733 q0 -269 86 -369q85 -98 256 -98q312 0 352 354q6 53 6 451v116l2 164l-2 141v46l2 22q0 45 -43 55q-13 4 -84 4q-41 0 -41 23q0 18 29 18q12 0 26 -2q32 -2 179 -2q13 0 51 2h39h30q48 0 48 -20z" />
<glyph unicode="&#xda;" horiz-adv-x="1363" d="M1018 1876l-187 -193q-125 -129 -143 -129q-12 0 -12 11q0 5 4 12q10 25 68 160l65 141q40 2 68 2q50 0 100 -2zM1346 1403q0 -19 -37 -19q-1 0 -6.5 0.5t-15 1.5t-19.5 1q-14 2 -29 2q-51 0 -61 -27q-4 -13 -4 -47v-768q0 -297 -112 -435q-111 -137 -360 -137 q-295 0 -417 168q-80 113 -80 371l-2 821q-6 38 -49 45q-16 2 -76 2q-35 5 -35 21q0 18 29 18h37q3 0 9 -0.5t17 -1t21 -0.5h59l293 2q14 2 24 2q35 0 35 -22q0 -15 -12 -17q-21 -3 -82 -4q-30 0 -39 -4q-21 -7 -22 -28q-2 -10 -2 -117v-733q0 -269 86 -369q85 -98 256 -98 q312 0 352 354q6 53 6 451v116l2 164l-2 141v46l2 22q0 45 -43 55q-13 4 -84 4q-41 0 -41 23q0 18 29 18q12 0 26 -2q32 -2 179 -2q13 0 51 2h39h30q48 0 48 -20z" />
<glyph unicode="&#xdb;" horiz-adv-x="1363" d="M973 1544h-135q-72 68 -150 225q-46 -93 -99 -161q-55 -70 -83 -70q-19 0 -19 14q0 6 13 19q91 90 174 266q33 72 51 72q16 0 55 -74q78 -148 193 -291zM1346 1403q0 -19 -37 -19q-1 0 -6.5 0.5t-15 1.5t-19.5 1q-14 2 -29 2q-51 0 -61 -27q-4 -13 -4 -47v-768 q0 -297 -112 -435q-111 -137 -360 -137q-295 0 -417 168q-80 113 -80 371l-2 821q-6 38 -49 45q-16 2 -76 2q-35 5 -35 21q0 18 29 18h37q3 0 9 -0.5t17 -1t21 -0.5h59l293 2q14 2 24 2q35 0 35 -22q0 -15 -12 -17q-21 -3 -82 -4q-30 0 -39 -4q-21 -7 -22 -28 q-2 -10 -2 -117v-733q0 -269 86 -369q85 -98 256 -98q312 0 352 354q6 53 6 451v116l2 164l-2 141v46l2 22q0 45 -43 55q-13 4 -84 4q-41 0 -41 23q0 18 29 18q12 0 26 -2q32 -2 179 -2q13 0 51 2h39h30q48 0 48 -20z" />
<glyph unicode="&#xdc;" horiz-adv-x="1363" d="M993 1661q0 -39 -27 -66q-26 -26 -69 -26t-72 27q-28 27 -28 69t29 71t73 29q42 0 68 -29t26 -75zM641 1665q0 -39 -30 -68q-29 -28 -70 -28q-42 0 -70 28q-29 29 -29 70q0 43 29 72q28 28 70 28q40 0 70 -30t30 -72zM1346 1403q0 -19 -37 -19q-1 0 -6.5 0.5t-15 1.5 t-19.5 1q-14 2 -29 2q-51 0 -61 -27q-4 -13 -4 -47v-768q0 -297 -112 -435q-111 -137 -360 -137q-295 0 -417 168q-80 113 -80 371l-2 821q-6 38 -49 45q-16 2 -76 2q-35 5 -35 21q0 18 29 18h37q3 0 9 -0.5t17 -1t21 -0.5h59l293 2q14 2 24 2q35 0 35 -22q0 -15 -12 -17 q-21 -3 -82 -4q-30 0 -39 -4q-21 -7 -22 -28q-2 -10 -2 -117v-733q0 -269 86 -369q85 -98 256 -98q312 0 352 354q6 53 6 451v116l2 164l-2 141v46l2 22q0 45 -43 55q-13 4 -84 4q-41 0 -41 23q0 18 29 18q12 0 26 -2q32 -2 179 -2q13 0 51 2h39h30q48 0 48 -20z" />
<glyph unicode="&#xdd;" horiz-adv-x="1243" d="M944 1876l-186 -193q-124 -129 -144 -129q-12 0 -12 11q0 5 4 12q10 25 68 160l65 141q40 2 68 2q50 0 100 -2zM1266 1405q0 -16 -35 -16q-112 -1 -139 -39q-26 -24 -177 -349q-69 -148 -127 -256q-42 -78 -47 -103q-6 -27 -6 -120v-387q0 -68 18 -80t121 -18 q56 -5 56 -21t-29 -16h-24l-287 6q-130 0 -199 -4q-16 -2 -29 -2q-28 0 -28 18q0 19 47 21q113 5 133 20q21 17 21 99v432q-27 57 -119 239l-205 406q-26 51 -74 133q-22 21 -97 21t-75 22q0 16 33 16q57 0 172 -4q98 -2 106 -2l238 2q20 2 33 2q37 0 37 -20q0 -19 -70 -19 q-127 0 -127 -45q0 -34 129 -280l186 -354q49 88 117 227l121 244q68 131 68 172q0 25 -35 30q-72 10 -96 9q-46 -2 -46 20q0 16 39 16l119 -2l68 2q209 6 209 -20z" />
<glyph unicode="&#xde;" horiz-adv-x="1083" d="M1047 772q0 -87 -50 -170q-49 -82 -129 -129q-120 -70 -284 -70q-72 0 -160 15v-299q0 -55 21 -69q19 -12 122 -17q23 0 23 -17q0 -16 -25 -16h-20l-135 4q-21 0 -40.5 0.5t-29 1t-10.5 0.5q-31 0 -109 -3t-117 -3h-10q-39 0 -39 18q0 17 54 19q75 2 92 16q18 15 18 66 v1181q0 60 -15 72q-16 12 -108 17q-39 1 -39 16q0 18 25 18h18q9 0 26 -0.5t48 -1t57 -0.5q27 0 57 -0.5t46 -1t24 -0.5l55 2q80 2 117 2h23q35 0 35 -18q0 -17 -90 -21q-51 -2 -63 -18q-11 -15 -11 -86v-180q168 0 260 -6q158 -10 261 -101q102 -90 102 -221zM831 766 q0 295 -282 295q-86 0 -113 -29q-12 -12 -12 -59v-524q218 1 313 74q94 72 94 243z" />
<glyph unicode="&#xdf;" horiz-adv-x="1013" d="M950 422q0 -226 -143 -354q-104 -93 -229 -93q-86 0 -142 45q-55 45 -55 115q0 46 29 77q28 30 73 30q39 0 66 -24q26 -23 26 -58q0 -54 -65 -82q-33 -15 -33 -29q0 -17 27 -30q26 -13 59 -13q97 0 149 108q52 107 52 300q0 415 -283 415h-39q-28 0 -28 19q0 16 47 16 q258 2 258 320q0 231 -176 231q-146 0 -197 -145q-33 -94 -33 -340v-930l-241 -4q-74 0 -74 14q0 17 37 17q65 -1 80 6q28 12 28 69v703q0 327 58 448q95 195 329 195q151 0 254 -83t103 -206q0 -119 -84 -203q-83 -83 -221 -100v-10q100 -6 198 -64q170 -102 170 -360z" />
<glyph unicode="&#xe0;" horiz-adv-x="813" d="M442 1044q0 -10 -12 -10q-20 0 -143 129l-187 195h35l60 2h108l84 -182q0 -2 23 -54l28 -67q4 -7 4 -13zM879 92q0 -35 -73 -73q-71 -37 -140 -37q-142 0 -148 145q-78 -152 -242 -152q-87 0 -145 53q-57 53 -57 134q0 167 202 266q69 33 242 66v51q0 180 -18 237 q-33 105 -148 105q-72 0 -120 -39t-48 -98q0 -17 26 -17q25 0 46 -24q20 -23 20 -56q0 -90 -90 -90q-47 0 -77 32q-31 33 -31 81q0 97 76 166q83 76 233 76q226 0 277 -123q18 -47 18 -187v-383q0 -88 2 -110q11 -74 59 -74q57 0 95 41q21 22 30 22q11 0 11 -12zM518 309 v150q-155 -35 -220 -91q-67 -58 -67 -151q0 -64 38 -107q37 -42 96 -42q89 0 141 98q12 22 12 143z" />
<glyph unicode="&#xe1;" horiz-adv-x="813" d="M672 1358l-187 -195q-123 -129 -143 -129q-12 0 -12 10q0 6 4 13q27 68 67 160l66 143h68h28q36 -2 72 -2h37zM879 92q0 -35 -73 -73q-71 -37 -140 -37q-142 0 -148 145q-78 -152 -242 -152q-87 0 -145 53q-57 53 -57 134q0 167 202 266q69 33 242 66v51q0 180 -18 237 q-33 105 -148 105q-72 0 -120 -39t-48 -98q0 -17 26 -17q25 0 46 -24q20 -23 20 -56q0 -90 -90 -90q-47 0 -77 32q-31 33 -31 81q0 97 76 166q83 76 233 76q226 0 277 -123q18 -47 18 -187v-383q0 -88 2 -110q11 -74 59 -74q57 0 95 41q21 22 30 22q11 0 11 -12zM518 309 v150q-155 -35 -220 -91q-67 -58 -67 -151q0 -64 38 -107q37 -42 96 -42q89 0 141 98q12 22 12 143z" />
<glyph unicode="&#xe2;" horiz-adv-x="813" d="M637 1024h-135q-77 73 -150 227q-44 -90 -99 -159q-57 -72 -85 -72q-18 0 -18 14q0 10 12 17q95 95 174 266q33 72 51 72q16 0 55 -74q79 -152 195 -291zM879 92q0 -35 -73 -73q-71 -37 -140 -37q-142 0 -148 145q-78 -152 -242 -152q-87 0 -145 53q-57 53 -57 134 q0 167 202 266q69 33 242 66v51q0 180 -18 237q-33 105 -148 105q-72 0 -120 -39t-48 -98q0 -17 26 -17q25 0 46 -24q20 -23 20 -56q0 -90 -90 -90q-47 0 -77 32q-31 33 -31 81q0 97 76 166q83 76 233 76q226 0 277 -123q18 -47 18 -187v-383q0 -88 2 -110q11 -74 59 -74 q57 0 95 41q21 22 30 22q11 0 11 -12zM518 309v150q-155 -35 -220 -91q-67 -58 -67 -151q0 -64 38 -107q37 -42 96 -42q89 0 141 98q12 22 12 143z" />
<glyph unicode="&#xe3;" horiz-adv-x="813" d="M698 1235q0 -51 -42 -117q-41 -65 -121 -65q-57 0 -184 67q-128 68 -152 68q-15 0 -28 -14t-13 -29q0 -22 30 -55q11 -6 11 -17q0 -14 -21 -14q-20 0 -41 25q-20 24 -20 55q0 52 44 93q43 40 105 40q66 0 189 -63q121 -62 151 -62q24 0 45 70q10 34 29 34q18 0 18 -16z M879 92q0 -35 -73 -73q-71 -37 -140 -37q-142 0 -148 145q-78 -152 -242 -152q-87 0 -145 53q-57 53 -57 134q0 167 202 266q69 33 242 66v51q0 180 -18 237q-33 105 -148 105q-72 0 -120 -39t-48 -98q0 -17 26 -17q25 0 46 -24q20 -23 20 -56q0 -90 -90 -90q-47 0 -77 32 q-31 33 -31 81q0 97 76 166q83 76 233 76q226 0 277 -123q18 -47 18 -187v-383q0 -88 2 -110q11 -74 59 -74q57 0 95 41q21 22 30 22q11 0 11 -12zM518 309v150q-155 -35 -220 -91q-67 -58 -67 -151q0 -64 38 -107q37 -42 96 -42q89 0 141 98q12 22 12 143z" />
<glyph unicode="&#xe4;" horiz-adv-x="813" d="M668 1143q0 -38 -28 -66q-26 -26 -69 -26t-71 27q-29 27 -29 69q0 41 30 71q29 29 72 29q42 0 68 -29q27 -30 27 -75zM315 1145q0 -40 -29 -68t-71 -28t-70 28t-28 70q0 44 28 72t72 28q39 0 69 -30q29 -29 29 -72zM879 92q0 -35 -73 -73q-71 -37 -140 -37 q-142 0 -148 145q-78 -152 -242 -152q-87 0 -145 53q-57 53 -57 134q0 167 202 266q69 33 242 66v51q0 180 -18 237q-33 105 -148 105q-72 0 -120 -39t-48 -98q0 -17 26 -17q25 0 46 -24q20 -23 20 -56q0 -90 -90 -90q-47 0 -77 32q-31 33 -31 81q0 97 76 166q83 76 233 76 q226 0 277 -123q18 -47 18 -187v-383q0 -88 2 -110q11 -74 59 -74q57 0 95 41q21 22 30 22q11 0 11 -12zM518 309v150q-155 -35 -220 -91q-67 -58 -67 -151q0 -64 38 -107q37 -42 96 -42q89 0 141 98q12 22 12 143z" />
<glyph unicode="&#xe5;" horiz-adv-x="813" d="M588 1221q0 -77 -52 -126q-54 -51 -133 -51q-69 0 -123 52q-53 51 -53 123q0 76 53 127q52 51 128 51t128 -51t52 -125zM879 92q0 -35 -73 -73q-71 -37 -140 -37q-142 0 -148 145q-78 -152 -242 -152q-87 0 -145 53q-57 53 -57 134q0 167 202 266q69 33 242 66v51 q0 180 -18 237q-33 105 -148 105q-72 0 -120 -39t-48 -98q0 -17 26 -17q25 0 46 -24q20 -23 20 -56q0 -90 -90 -90q-47 0 -77 32q-31 33 -31 81q0 97 76 166q83 76 233 76q226 0 277 -123q18 -47 18 -187v-383q0 -88 2 -110q11 -74 59 -74q57 0 95 41q21 22 30 22 q11 0 11 -12zM518 1223q0 50 -32 84q-31 32 -80 32q-46 0 -76 -34q-31 -36 -31 -86q0 -48 32 -83q31 -34 79 -34q47 0 77 34q31 36 31 87zM518 309v150q-155 -35 -220 -91q-67 -58 -67 -151q0 -64 38 -107q37 -42 96 -42q89 0 141 98q12 22 12 143z" />
<glyph unicode="&#xe6;" horiz-adv-x="1347" d="M1296 223q0 -21 -29 -69q-27 -45 -61 -82q-95 -97 -250 -97q-253 0 -370 213q-96 -213 -277 -213q-102 0 -163 56q-60 55 -60 147q0 166 203 273q81 42 266 86q0 184 -20 243q-35 107 -144 107q-73 0 -122 -37q-50 -38 -50 -88q0 -21 33 -21q20 0 41 -25q20 -24 20 -54 q0 -89 -90 -89q-48 0 -78 30t-30 77q0 90 78 164q79 74 231 74q90 0 150 -26q59 -26 120 -91q99 117 250 117q267 0 344 -265q-103 -42 -342 -82q-1 0 -46.5 -8t-90.5 -16q-12 -1 -90 -17q-2 -36 -2 -73q0 -236 112 -342q75 -70 183 -70q162 0 245 176q8 17 23 17 q16 0 16 -15zM1128 647q-45 242 -192 242q-191 0 -215 -320q289 39 407 78zM555 502q-313 -73 -313 -283q0 -72 43 -114t116 -42q135 0 152 218q2 36 2 221z" />
<glyph unicode="&#xe7;" horiz-adv-x="837" d="M809 707q0 -95 -92 -95q-90 0 -90 86q0 25 20 68q6 15 6 29q0 40 -42 67t-105 27q-123 0 -191 -107q-67 -106 -67 -299q0 -216 69 -335q68 -117 197 -117q86 0 154 53q29 24 80 94q10 10 18 10q20 0 20 -16q0 -25 -71 -100q-91 -97 -234 -97q-17 0 -45 2v-40 q80 0 136 -45q55 -44 55 -109q0 -69 -57 -119q-56 -49 -138 -49q-44 0 -98 26q-53 26 -53 48q0 12 14 12q9 0 31 -16q31 -23 67 -23q41 0 73 44t32 104q0 100 -76 100q-15 0 -29 -2v76q-151 34 -240 156q-90 124 -90 292q0 207 124 346q125 140 311 140q124 0 218 -64 q93 -63 93 -147z" />
<glyph unicode="&#xe8;" horiz-adv-x="880" d="M551 1044q0 -10 -12 -10q-21 0 -144 129l-186 195h35l59 2h109l84 -182q0 -4 22 -54l29 -67q4 -7 4 -13zM827 223q0 -20 -31 -72q-30 -50 -65 -85q-89 -91 -235 -91q-184 0 -309 134q-124 133 -124 329q0 206 118 342q120 138 294 138q146 0 244 -85t104 -219 q-60 -10 -174 -8l-143 2q-15 0 -246 -6q-10 -64 -10 -129q0 -208 79 -318q80 -112 222 -112q82 0 131 37q50 38 106 141q8 17 23 17q16 0 16 -15zM649 641q-7 246 -176 246q-167 0 -207 -246h383z" />
<glyph unicode="&#xe9;" horiz-adv-x="880" d="M743 1358l-186 -195q-123 -129 -143 -129q-13 0 -13 10q0 5 5 13q27 68 67 160l66 143h67h29q36 -2 72 -2h36zM827 223q0 -20 -31 -72q-30 -50 -65 -85q-89 -91 -235 -91q-184 0 -309 134q-124 133 -124 329q0 206 118 342q120 138 294 138q146 0 244 -85t104 -219 q-60 -10 -174 -8l-143 2q-15 0 -246 -6q-10 -64 -10 -129q0 -208 79 -318q80 -112 222 -112q82 0 131 37q50 38 106 141q8 17 23 17q16 0 16 -15zM649 641q-7 246 -176 246q-167 0 -207 -246h383z" />
<glyph unicode="&#xea;" horiz-adv-x="880" d="M733 1024h-135q-76 71 -149 227q-42 -86 -100 -159q-57 -72 -85 -72q-18 0 -18 14q0 10 12 17q95 95 174 266q33 72 51 72q17 0 56 -74q81 -155 194 -291zM827 223q0 -20 -31 -72q-30 -50 -65 -85q-89 -91 -235 -91q-184 0 -309 134q-124 133 -124 329q0 206 118 342 q119 137 294 137q147 0 244 -84q98 -85 104 -219q-60 -10 -174 -8l-143 2q-15 0 -246 -6q-10 -64 -10 -129q0 -208 79 -318q80 -112 222 -112q82 0 131 37q50 38 106 141q8 17 23 17q16 0 16 -15zM649 641q-7 246 -176 246q-167 0 -207 -246h383z" />
<glyph unicode="&#xeb;" horiz-adv-x="880" d="M758 1143q0 -38 -28 -66q-26 -26 -68 -26q-44 0 -72 27q-29 27 -29 69q0 41 30 71q29 29 73 29q41 0 67 -29q27 -30 27 -75zM406 1145q0 -39 -30 -68q-29 -28 -71 -28q-41 0 -69 28q-29 29 -29 70q0 43 29 72q28 28 71 28q39 0 69 -30t30 -72zM827 223q0 -20 -31 -72 q-30 -50 -65 -85q-89 -91 -235 -91q-184 0 -309 134q-124 133 -124 329q0 206 118 342q120 138 294 138q146 0 244 -85t104 -219q-60 -10 -174 -8l-143 2q-15 0 -246 -6q-10 -64 -10 -129q0 -208 79 -318q80 -112 222 -112q82 0 131 37q50 38 106 141q8 17 23 17 q16 0 16 -15zM649 641q-7 246 -176 246q-167 0 -207 -246h383z" />
<glyph unicode="&#xec;" horiz-adv-x="514" d="M330 1044q0 -10 -13 -10q-20 0 -143 129l-186 195h35l59 2h108l84 -182q0 -2 23 -54l29 -67q4 -7 4 -13zM494 12q0 -18 -35 -18h-5q-4 1 -16.5 2t-27.5 2q-55 4 -103 4l-213 -4q-14 -2 -24 -2q-23 0 -23 14q0 21 41 21q77 1 85 11q7 8 7 85l-2 621q-1 49 -5 60 q-3 9 -26 9l-59 -2q-10 -2 -20 -2q-23 0 -23 16q0 15 35 17q138 6 235 65l21 13q16 -29 16 -113v1v0v-1v0v-1v-1v-1v-1v-1v-1v-1v-1v-1v-1v-10q-2 -32 -2 -80v-559q0 -82 3 -97q3 -13 22 -18q32 -8 90 -8q29 0 29 -17z" />
<glyph unicode="&#xed;" horiz-adv-x="514" d="M524 1358l-186 -195q-123 -129 -143 -129q-13 0 -13 10q0 6 4 13q10 25 68 160l65 143h68h29q36 -2 71 -2h37zM496 12q0 -18 -35 -18h-5q-4 1 -16.5 2t-27.5 2q-55 4 -103 4l-213 -4q-14 -2 -24 -2q-23 0 -23 14q0 21 41 21q77 1 85 11q7 8 7 85l-2 621q-1 49 -5 60 q-3 9 -25 9l-60 -2q-10 -2 -20 -2q-23 0 -23 16q0 15 35 17q138 6 235 65l21 13q16 -29 16 -113v1v0v-1v0v-1v-1v-1v-1v-1v-1v-1v-1v-1v-1v-10q-2 -32 -2 -80v-559q0 -82 3 -97q3 -13 22 -18q32 -8 90 -8q29 0 29 -17z" />
<glyph unicode="&#xee;" horiz-adv-x="514" d="M494 1024h-136q-76 71 -149 227q-44 -90 -99 -159q-57 -72 -85 -72q-19 0 -19 14q0 10 12 17q97 97 175 266q33 72 51 72q16 0 55 -74q79 -152 195 -291zM496 12q0 -18 -35 -18h-5q-4 1 -16.5 2t-27.5 2q-55 4 -103 4l-213 -4q-14 -2 -24 -2q-23 0 -23 14q0 21 41 21 q77 1 85 11q7 8 7 85l-2 621q-1 49 -5 60q-3 9 -25 9l-60 -2q-10 -2 -20 -2q-23 0 -23 16q0 15 35 17q138 6 235 65l21 13q16 -29 16 -113v1v0v-1v0v-1v-1v-1v-1v-1v-1v-1v-1v-1v-1v-10q-2 -32 -2 -80v-559q0 -82 3 -97q3 -13 22 -18q32 -8 90 -8q29 0 29 -17z" />
<glyph unicode="&#xef;" horiz-adv-x="514" d="M494 1145q0 -40 -28 -68q-26 -26 -69 -26t-71 27q-29 27 -29 69q0 41 30 71q29 29 72 29q41 0 67 -29q28 -31 28 -73zM215 1145q0 -39 -30 -68q-29 -28 -70 -28q-42 0 -70 28q-29 29 -29 70q0 43 29 72q28 28 72 28q38 0 68 -30t30 -72zM494 12q0 -18 -35 -18h-5 q-4 1 -16.5 2t-27.5 2q-55 4 -103 4l-213 -4q-14 -2 -24 -2q-23 0 -23 14q0 21 41 21q77 1 85 11q7 8 7 85l-2 621q-1 49 -5 60q-3 9 -26 9l-59 -2q-10 -2 -20 -2q-23 0 -23 16q0 15 35 17q138 6 235 65l21 13q16 -29 16 -113v1v0v-1v0v-1v-1v-1v-1v-1v-1v-1v-1v-1v-1v-10 q-2 -32 -2 -80v-559q0 -82 3 -97q3 -13 22 -18q32 -8 90 -8q29 0 29 -17z" />
<glyph unicode="&#xf0;" horiz-adv-x="983" d="M920 508q0 -246 -144 -404q-117 -129 -291 -129q-170 0 -284 111q-138 135 -138 334q0 201 122 335t307 134q113 0 182 -72q-61 198 -164 332q-9 -3 -29 -13q-7 -4 -26 -13t-31 -15l-94 -47q-21 -11 -70 -37q-53 -29 -67 -29q-23 0 -23 21q0 15 51 39l176 86q34 18 88 41 q-41 56 -123 130q-84 77 -143 109q-22 12 -22 17q0 10 18 10q49 0 178 -70q84 -46 191 -143l71 35q111 55 131 55q21 0 21 -18q0 -14 -23 -25q-66 -29 -108 -49q-17 -10 -60 -29q304 -306 304 -696zM733 444q0 414 -244 414q-113 0 -176 -118t-63 -324q0 -193 63 -301 q64 -109 176 -109q115 0 180 116q64 115 64 322z" />
<glyph unicode="&#xf1;" horiz-adv-x="1001" d="M793 1235q0 -51 -42 -117q-41 -65 -122 -65q-57 0 -184 67q-128 68 -152 68q-15 0 -28 -14t-13 -29q0 -21 31 -55q10 -6 10 -17q0 -14 -21 -14q-20 0 -41 25q-20 24 -20 55q0 52 44 93q43 40 105 40q66 0 189 -63q121 -62 151 -62q24 0 45 70q10 34 29 34t19 -16zM993 12 q0 -16 -30 -16h-25q-33 4 -100 4q-205 0 -238 -4h-14q-27 0 -27 14q0 12 11 13q22 3 79 4q39 1 45 11q6 9 6 66v394q0 224 -16 266q-35 92 -139 92q-103 0 -172 -90q-21 -27 -21 -74l2 -639q0 -25 43 -26l62 -2q20 0 20 -15q0 -14 -24 -14h-33q-40 4 -143 4q-7 0 -19.5 -0.5 t-36 -1t-42.5 -0.5q-21 0 -42 -0.5t-31.5 -1t-13.5 -0.5h-12q-31 0 -31 14q0 15 37 19h51q31 0 37 14l6 31v446q0 237 -4 258q-5 25 -51 25q-18 0 -49 -4h-10q-41 0 -41 14q0 18 43 18q59 1 133 23q73 21 100 47q19 17 29 17q14 0 14 -39v-99q108 138 275 138 q146 0 213 -109q36 -59 36 -234v-466q0 -65 7 -72q12 -12 59 -12l22 2h15q20 0 20 -15z" />
<glyph unicode="&#xf2;" horiz-adv-x="983" d="M565 1044q0 -10 -12 -10q-20 0 -143 129l-187 195h35l59 2h109l84 -182q0 -4 22 -54l29 -67q4 -7 4 -13zM922 442q0 -199 -121 -332q-123 -135 -301 -135q-186 0 -312 135q-125 134 -125 332q0 204 122 340t304 136q184 0 309 -137q124 -136 124 -339zM735 444 q0 226 -69 351q-51 92 -172 92q-116 0 -180 -118t-64 -327q0 -208 68 -322q69 -116 192 -116q94 0 139 72q86 136 86 368z" />
<glyph unicode="&#xf3;" horiz-adv-x="983" d="M758 1358l-187 -195q-123 -129 -143 -129q-12 0 -12 10q0 6 4 13q27 68 67 160l66 143h68h28q36 -2 72 -2h37zM922 442q0 -199 -121 -332q-123 -135 -301 -135q-186 0 -312 135q-125 134 -125 332q0 204 122 340t304 136q184 0 309 -137q124 -136 124 -339zM735 444 q0 226 -69 351q-51 92 -172 92q-116 0 -180 -118t-64 -327q0 -208 68 -322q69 -116 192 -116q94 0 139 72q86 136 86 368z" />
<glyph unicode="&#xf4;" horiz-adv-x="983" d="M748 1024h-136q-76 71 -149 227q-44 -90 -99 -159q-57 -72 -85 -72q-19 0 -19 14q0 10 12 17q95 95 174 266q33 72 52 72q16 0 55 -74q79 -152 195 -291zM922 442q0 -199 -121 -332q-123 -135 -301 -135q-186 0 -312 135q-125 134 -125 332q0 204 122 340t304 136 q184 0 309 -137q124 -136 124 -339zM735 444q0 226 -69 351q-51 92 -172 92q-116 0 -180 -118t-64 -327q0 -208 68 -322q69 -116 192 -116q94 0 139 72q86 136 86 368z" />
<glyph unicode="&#xf5;" horiz-adv-x="983" d="M782 1235q0 -51 -42 -117q-41 -65 -122 -65q-56 0 -183 67q-128 68 -152 68q-15 0 -28 -14t-13 -29q0 -22 30 -55q11 -6 11 -17q0 -14 -21 -14q-20 0 -41 25q-20 24 -20 55q0 52 44 93q43 40 105 40q66 0 189 -63q121 -62 151 -62q24 0 45 70q10 34 29 34q18 0 18 -16z M922 442q0 -199 -121 -332q-123 -135 -301 -135q-186 0 -312 135q-125 134 -125 332q0 204 122 340t304 136q184 0 309 -137q124 -136 124 -339zM735 444q0 226 -69 351q-51 92 -172 92q-116 0 -180 -118t-64 -327q0 -208 68 -322q69 -116 192 -116q94 0 139 72 q86 136 86 368z" />
<glyph unicode="&#xf6;" horiz-adv-x="983" d="M764 1143q0 -38 -28 -66q-26 -26 -68 -26q-44 0 -72 27q-29 27 -29 69q0 41 30 71q29 29 73 29q41 0 67 -29q27 -30 27 -75zM412 1145q0 -39 -30 -68q-29 -28 -71 -28q-41 0 -69 28q-29 29 -29 70q0 43 29 72q28 28 71 28q39 0 69 -30t30 -72zM922 442q0 -199 -121 -332 q-123 -135 -301 -135q-186 0 -312 135q-125 134 -125 332q0 204 122 340t304 136q184 0 309 -137q124 -136 124 -339zM735 444q0 226 -69 351q-51 92 -172 92q-116 0 -180 -118t-64 -327q0 -208 68 -322q69 -116 192 -116q94 0 139 72q86 136 86 368z" />
<glyph unicode="&#xf7;" d="M643 940q0 -43 -29 -72q-28 -28 -69 -28q-44 0 -72 28q-29 29 -29 72q0 41 29 70q28 28 72 28q41 0 69 -28q29 -29 29 -70zM971 651h-850v74h850v-74zM643 440q0 -42 -29 -71t-69 -29q-43 0 -72 29t-29 71t30 70q31 29 71 29t69 -29t29 -70z" />
<glyph unicode="&#xf8;" horiz-adv-x="983" d="M922 444q0 -201 -121 -334q-123 -135 -301 -135q-125 0 -234 68l-63 -104q-12 -21 -29 -21q-27 0 -27 21q1 4 7 14l10 18l63 103q-164 140 -164 370q0 200 122 337t300 137q117 0 217 -60l84 137q8 15 25 15q25 0 25 -21q0 -10 -15 -28l-78 -130q179 -147 179 -387z M666 799q-66 88 -172 88q-116 0 -180 -117q-64 -116 -64 -321q0 -165 37 -277zM735 438q0 172 -43 310l-381 -629q83 -115 199 -115q115 0 172 129q53 123 53 305z" />
<glyph unicode="&#xf9;" horiz-adv-x="1003" d="M573 1044q0 -10 -12 -10q-20 0 -143 129l-187 195h35l60 2h108l84 -182q0 -2 23 -54l28 -67q4 -7 4 -13zM1024 70q0 -16 -45 -17q-163 -11 -281 -69q-7 -4 -14 -4q-12 0 -12 16l2 115q-95 -136 -264 -136q-151 0 -217 88q-28 38 -32 68q-5 33 -5 166v469q0 70 -9 84 q-8 12 -55 14l-26 -2q-56 -5 -56 17q0 14 35 14q46 0 107 -4q10 0 19.5 -0.5t14.5 -1t7 -0.5q71 0 133 6v-571q0 -160 20 -209q33 -80 133 -80q109 0 160 90q37 65 37 209v317q0 59 -2 105l-4 67q-2 31 -14 36q-13 5 -46 5q-86 -2 -86 19q0 12 43 12h19q22 -2 108 -2 q114 0 152 2v-571q0 -148 6 -187t32 -45t115 -6q25 0 25 -14z" />
<glyph unicode="&#xfa;" horiz-adv-x="1003" d="M768 1358l-186 -195q-123 -129 -144 -129q-12 0 -12 10q0 6 4 13q10 25 68 160l65 143h68h28q36 -2 72 -2h37zM1024 70q0 -16 -45 -17q-163 -11 -281 -69q-7 -4 -14 -4q-12 0 -12 16l2 115q-95 -136 -264 -136q-151 0 -217 88q-28 38 -32 68q-5 33 -5 166v469q0 70 -9 84 q-8 12 -55 14l-26 -2q-56 -5 -56 17q0 14 35 14q46 0 107 -4q10 0 19.5 -0.5t14.5 -1t7 -0.5q71 0 133 6v-571q0 -160 20 -209q33 -80 133 -80q109 0 160 90q37 65 37 209v317q0 59 -2 105l-4 67q-2 31 -14 36q-13 5 -46 5q-86 -2 -86 19q0 12 43 12h19q22 -2 108 -2 q114 0 152 2v-571q0 -148 6 -187t32 -45t115 -6q25 0 25 -14z" />
<glyph unicode="&#xfb;" horiz-adv-x="1003" d="M756 1024h-135q-77 73 -150 227q-44 -90 -99 -159q-57 -72 -85 -72q-19 0 -19 14q0 9 13 17q95 95 174 266q33 72 51 72q16 0 55 -74q79 -152 195 -291zM1024 70q0 -16 -45 -17q-163 -11 -281 -69q-7 -4 -14 -4q-12 0 -12 16l2 115q-95 -136 -264 -136q-151 0 -217 88 q-28 38 -32 68q-5 33 -5 166v469q0 70 -9 84q-8 12 -55 14l-26 -2q-56 -5 -56 17q0 14 35 14q46 0 107 -4q10 0 19.5 -0.5t14.5 -1t7 -0.5q71 0 133 6v-571q0 -160 20 -209q33 -80 133 -80q109 0 160 90q37 65 37 209v317q0 59 -2 105l-4 67q-2 31 -14 36q-13 5 -46 5 q-86 -2 -86 19q0 12 43 12h19q22 -2 108 -2q114 0 152 2v-571q0 -148 6 -187t32 -45t115 -6q25 0 25 -14z" />
<glyph unicode="&#xfc;" horiz-adv-x="1003" d="M774 1143q0 -38 -28 -66q-26 -26 -68 -26q-44 0 -72 27t-28 69t29 71t73 29q42 0 68 -29t26 -75zM422 1145q0 -39 -30 -68q-29 -28 -70 -28q-42 0 -70 28q-29 29 -29 70q0 43 29 72q28 28 72 28q38 0 68 -30t30 -72zM1024 70q0 -16 -45 -17q-163 -11 -281 -69 q-7 -4 -14 -4q-12 0 -12 16l2 115q-95 -136 -264 -136q-151 0 -217 88q-28 38 -32 68q-5 33 -5 166v469q0 70 -9 84q-8 12 -55 14l-26 -2q-56 -5 -56 17q0 14 35 14q46 0 107 -4q10 0 19.5 -0.5t14.5 -1t7 -0.5q71 0 133 6v-571q0 -160 20 -209q33 -80 133 -80q109 0 160 90 q37 65 37 209v317q0 59 -2 105l-4 67q-2 31 -14 36q-13 5 -46 5q-86 -2 -86 19q0 12 43 12h19q22 -2 108 -2q114 0 152 2v-571q0 -148 6 -187t32 -45t115 -6q25 0 25 -14z" />
<glyph unicode="&#xfd;" horiz-adv-x="821" d="M868 879q0 -16 -49 -17q-47 -1 -62 -8q-13 -6 -24 -35l-14 -37l-17 -51q-11 -35 -41 -133l-45 -147q-165 -529 -268 -807q-66 -174 -180 -174q-50 0 -81 28q-32 29 -32 74q0 39 26 63q27 25 66 25q56 0 80 -45q18 -35 31 -35q18 0 57 101q61 161 91 268 q-171 450 -259 694q-74 204 -81 205q-11 10 -67 10q-54 0 -54 21q0 16 26 16q23 0 70 -3q46 -3 72 -3h37q113 4 118 4l105 2q22 0 22 -16t-76 -17q-63 -2 -63 -20q0 -15 41 -127q11 -31 35 -99l35 -102q27 -80 75 -205q20 -47 45 -119q197 618 197 648q0 18 -15 22 q-13 4 -87 4q-21 0 -21 17q0 14 25 14q8 0 16 -2q61 -4 115 -4h57q32 0 48 2t28 2q18 0 18 -14zM575 1329l-186 -194q-123 -129 -143 -129q-13 0 -13 10q0 4 5 12q27 68 67 160l66 143h67h29q36 -2 72 -2h36z" />
<glyph unicode="&#xfe;" horiz-adv-x="1001" d="M938 455q0 -205 -115 -343q-114 -137 -288 -137q-137 0 -209 99l2 -518q2 -21 23 -26q26 -6 116 -7q25 0 25 -19q0 -14 -33 -14h-33q-28 2 -109 2l-51 -2h-155h-52q-55 0 -55 14q0 19 25 19h61q60 0 64 26q2 16 2 189v1515q0 69 -4 74q-6 16 -33 16h-17l-57 -2 q-29 0 -29 19q0 13 52 18q88 0 188 47q14 10 37 19l16 6q15 -53 15 -182q0 -17 -2 -47v-402q84 101 210 101q168 0 275 -115q131 -142 131 -350zM756 459q0 195 -69 309q-70 115 -183 115q-69 0 -125 -53q-55 -52 -55 -117l2 -21v-35v-155q0 -261 8 -338q8 -64 60 -109 t120 -45q113 0 177 121q65 122 65 328z" />
<glyph unicode="&#xff;" horiz-adv-x="821" d="M702 1143q0 -39 -27 -66q-26 -26 -69 -26q-42 0 -71 27t-29 69q0 41 30 71q29 29 72 29q42 0 68 -29t26 -75zM350 1145q0 -40 -29 -68t-71 -28t-70 28t-28 70q0 44 28 72t72 28q39 0 69 -30q29 -29 29 -72zM868 879q0 -16 -49 -17q-47 -1 -62 -8q-13 -6 -24 -35l-14 -37 l-17 -51q-11 -35 -41 -133l-45 -147q-165 -529 -268 -807q-66 -174 -180 -174q-50 0 -81 28q-32 29 -32 74q0 39 26 63q27 25 66 25q56 0 80 -45q18 -35 31 -35q18 0 57 101q61 161 91 268q-171 450 -259 694q-74 204 -81 205q-11 10 -67 10q-54 0 -54 21q0 16 26 16 q23 0 70 -3q46 -3 72 -3h37q113 4 118 4l105 2q22 0 22 -16t-76 -17q-63 -2 -63 -20q0 -15 41 -127q11 -31 35 -99l35 -102q27 -80 75 -205q20 -47 45 -119q197 618 197 648q0 18 -15 22q-13 4 -87 4q-21 0 -21 17q0 14 25 14q8 0 16 -2q61 -4 115 -4h57q32 0 48 2t28 2 q18 0 18 -14z" />
<glyph unicode="&#x152;" horiz-adv-x="1937" d="M1896 324l-2 -39q-6 -117 -6 -211v-86q-201 10 -647 10h-323q-211 0 -271 10q-248 39 -404 234q-157 196 -157 463q0 228 107 412q106 182 282 259q121 52 303 58q-30 -2 3 -3q64 -3 311 -4l276 -2q385 -1 461 7q4 -46 13 -164t13 -168q3 -21 3 -27q0 -20 -19 -20 q-14 0 -18 22q-33 189 -110 249t-370 60q-90 0 -174 -2v-608h95q200 0 246 37q47 38 59 201q4 43 22 43q23 0 23 -37v-25q0 -68 -5 -126t-5 -66q0 -227 10 -301q2 -22 2 -31q0 -31 -21 -31q-14 0 -19 20q-6 25 -20 122q-17 129 -139 147q-24 3 -248 8v-694q88 -2 150 -2 q180 0 237 6q163 17 222 76q31 31 40 60q7 23 29 157q6 37 31 37q20 0 20 -51zM965 152v1134q0 74 -39 92q-22 11 -103 11q-147 0 -231 -35q-301 -127 -301 -629q0 -329 131 -511q130 -181 366 -181q112 0 136 12q41 21 41 107z" />
<glyph unicode="&#x153;" horiz-adv-x="1525" d="M1475 223q0 -36 -62 -119q-99 -129 -276 -129q-197 0 -326 170q-119 -170 -315 -170q-184 0 -309 136q-124 134 -124 335t123 336q124 136 306 136q191 0 313 -148q136 148 305 148q194 0 299 -134q55 -71 61 -170q-51 -6 -79 -6h-195q-63 0 -291 -6q-10 -59 -10 -129 q0 -206 80 -318t227 -112q84 0 133 43q57 49 84 107q21 45 39 45q17 0 17 -15zM1296 641q-2 248 -178 248q-160 0 -207 -248h385zM737 449q0 223 -71 346q-52 94 -170 94q-116 0 -180 -120q-64 -119 -64 -333q0 -204 69 -318t193 -114q91 0 137 70q86 131 86 375z" />
<glyph unicode="&#x178;" horiz-adv-x="1243" d="M918 1661q0 -38 -28 -66q-26 -26 -69 -26t-71 27q-29 27 -29 69q0 41 30 71q29 29 72 29q42 0 68 -29q27 -30 27 -75zM565 1665q0 -40 -29 -68t-71 -28t-70 28t-28 70q0 44 28 72t70 28q41 0 71 -30q29 -29 29 -72zM1266 1405q0 -16 -35 -16q-112 -1 -139 -39 q-26 -24 -177 -349q-69 -148 -127 -256q-42 -78 -47 -103q-6 -27 -6 -120v-387q0 -68 18 -80t121 -18q56 -5 56 -21t-29 -16h-24l-287 6q-130 0 -199 -4q-16 -2 -29 -2q-28 0 -28 18q0 19 47 21q113 5 133 20q21 17 21 99v432q-27 57 -119 239l-205 406q-26 51 -74 133 q-22 21 -97 21t-75 22q0 16 33 16q57 0 172 -4q98 -2 106 -2l238 2q20 2 33 2q37 0 37 -20q0 -18 -70 -18q-127 0 -127 -46q0 -34 129 -280l186 -354q49 88 117 227l121 244q68 131 68 172q0 25 -35 30q-72 10 -96 9q-46 -2 -46 20q0 16 39 16l119 -2l68 2q209 6 209 -20z " />
<glyph unicode="&#x2c6;" horiz-adv-x="1026" d="M766 1024h-135q-77 73 -150 227q-44 -90 -99 -159q-57 -72 -85 -72q-18 0 -18 14q0 10 12 17q95 95 174 266q33 72 51 72q16 0 55 -74q79 -152 195 -291z" />
<glyph unicode="&#x2dc;" horiz-adv-x="1026" d="M805 1235q0 -51 -42 -117q-41 -65 -122 -65q-56 0 -183 67q-128 68 -153 68q-14 0 -27 -14q-14 -16 -14 -29q0 -21 31 -55q10 -6 10 -17q0 -14 -20 -14t-41 25t-21 55q0 52 44 93q43 40 106 40q65 0 188 -63q121 -62 152 -62q24 0 45 70q10 34 28 34q19 0 19 -16z" />
<glyph unicode="&#x2000;" horiz-adv-x="958" />
<glyph unicode="&#x2001;" horiz-adv-x="1917" />
<glyph unicode="&#x2002;" horiz-adv-x="958" />
<glyph unicode="&#x2003;" horiz-adv-x="1917" />
<glyph unicode="&#x2004;" horiz-adv-x="639" />
<glyph unicode="&#x2005;" horiz-adv-x="479" />
<glyph unicode="&#x2006;" horiz-adv-x="319" />
<glyph unicode="&#x2007;" horiz-adv-x="319" />
<glyph unicode="&#x2008;" horiz-adv-x="239" />
<glyph unicode="&#x2009;" horiz-adv-x="383" />
<glyph unicode="&#x200a;" horiz-adv-x="106" />
<glyph unicode="&#x2010;" horiz-adv-x="624" d="M594 406h-563v106h563v-106z" />
<glyph unicode="&#x2011;" horiz-adv-x="624" d="M594 406h-563v106h563v-106z" />
<glyph unicode="&#x2012;" horiz-adv-x="624" d="M594 406h-563v106h563v-106z" />
<glyph unicode="&#x2013;" horiz-adv-x="1013" d="M963 406h-914v106h914v-106z" />
<glyph unicode="&#x2014;" horiz-adv-x="1243" d="M1198 406h-1155v106h1155v-106z" />
<glyph unicode="&#x2018;" horiz-adv-x="536" d="M418 1122q0 -51 -38 -87t-91 -36q-77 0 -127 55q-49 53 -49 138q0 151 118 217q86 47 138 47q22 0 22 -16q0 -15 -24 -21q-168 -45 -168 -172q0 -54 28 -92q5 70 86 70q45 0 75 -30t30 -73z" />
<glyph unicode="&#x2019;" horiz-adv-x="536" d="M424 1251q0 -149 -119 -217q-83 -47 -137 -47q-23 0 -23 17q0 14 25 20q95 27 131 63q37 37 37 107q0 55 -27 94q0 -69 -88 -69q-46 0 -75 29t-29 73q0 51 38 87q37 36 93 36q76 0 125 -54q49 -53 49 -139z" />
<glyph unicode="&#x201a;" horiz-adv-x="536" d="M424 14q0 -149 -119 -217q-85 -47 -137 -47q-23 0 -23 17q0 14 25 20q95 27 131 63q37 37 37 107q0 53 -27 92q0 -69 -88 -69q-46 0 -75 29t-29 73q0 51 38 87q37 36 93 36q76 0 125 -54q49 -53 49 -137z" />
<glyph unicode="&#x201c;" horiz-adv-x="913" d="M801 1122q0 -51 -38 -87q-37 -36 -93 -36q-75 0 -126 54q-50 53 -50 137q0 153 118 219q86 47 140 47q22 0 22 -16q0 -15 -24 -21q-170 -45 -170 -170q0 -56 28 -94q5 70 88 70q45 0 75 -30t30 -73zM424 1122q0 -51 -38 -87t-91 -36q-77 0 -127 55q-49 53 -49 138 q0 151 119 217q86 47 137 47q22 0 22 -16q0 -15 -24 -21q-168 -45 -168 -172q0 -54 28 -92q5 70 86 70q45 0 75 -30t30 -73z" />
<glyph unicode="&#x201d;" horiz-adv-x="913" d="M795 1251q0 -151 -119 -217q-86 -47 -139 -47q-23 0 -23 17q0 14 25 20q94 27 132 65t38 103q0 56 -29 96q-4 -69 -88 -69q-46 0 -75 29q-30 30 -30 73q0 51 38 87q37 36 93 36q78 0 127 -54q50 -55 50 -139zM418 1251q0 -149 -119 -217q-83 -47 -137 -47q-23 0 -23 17 q0 14 25 20q95 27 131 63q37 37 37 107q0 55 -27 94q0 -69 -88 -69q-46 0 -75 29t-29 73q0 51 38 87q37 36 93 36q76 0 125 -54q49 -53 49 -139z" />
<glyph unicode="&#x201e;" horiz-adv-x="913" d="M795 14q0 -151 -119 -217q-86 -47 -139 -47q-23 0 -23 17q0 14 25 20q97 28 132 63q38 38 38 105q0 56 -29 94q-4 -69 -88 -69q-46 0 -75 29q-30 30 -30 73q0 51 38 87q37 36 93 36q76 0 126 -53q51 -54 51 -138zM418 14q0 -149 -119 -217q-85 -47 -137 -47q-23 0 -23 17 q0 14 25 20q95 27 131 63q37 37 37 107q0 53 -27 92q0 -69 -88 -69q-46 0 -75 29t-29 73q0 51 38 87t91 36q76 0 126 -53t50 -138z" />
<glyph unicode="&#x2022;" horiz-adv-x="1419" d="M1008 721q0 -123 -86 -209t-209 -86t-209 86t-86 209q0 124 86 210q85 85 213 85q119 0 205 -87q86 -88 86 -208z" />
<glyph unicode="&#x2026;" horiz-adv-x="1589" d="M1434 96q0 -44 -31 -77q-30 -31 -78 -31t-79 31q-32 32 -32 79q0 46 33 77q34 32 80 32t76 -32q31 -33 31 -79zM905 98q0 -44 -32 -78q-31 -32 -78 -32q-46 0 -78 32q-33 33 -33 78q0 48 33 79q34 32 80 32q45 0 76 -33q32 -34 32 -78zM373 96q0 -45 -32 -77 q-31 -31 -77 -31q-48 0 -79 31t-31 79q0 46 31 77q32 32 79 32q45 0 77 -32t32 -79z" />
<glyph unicode="&#x202f;" horiz-adv-x="383" />
<glyph unicode="&#x2039;" horiz-adv-x="522" d="M449 125q0 -14 -13 -14q-10 0 -20 12q-183 180 -301 285q-15 12 -15 26q0 52 3 64q3 11 24 26q178 171 268 281q21 24 33 24q16 0 16 -16q0 -40 -206 -350q121 -190 202 -316q9 -14 9 -22z" />
<glyph unicode="&#x203a;" horiz-adv-x="522" d="M422 506q0 -52 -3 -64q-3 -11 -24 -28q-150 -132 -268 -279q-21 -24 -33 -24q-16 0 -16 18q0 36 207 348q-37 53 -201 316q-8 18 -8 22q0 12 12 12q10 0 21 -12q164 -161 299 -283q14 -11 14 -26z" />
<glyph unicode="&#x205f;" horiz-adv-x="479" />
<glyph unicode="&#x20ac;" horiz-adv-x="1282" d="M909 752h-450v-41q0 -32 2 -86h346v-74h-342q23 -230 108 -371q101 -164 267 -164q83 0 154 53t108 142q43 104 61 227q6 49 21 49q16 0 16 -30l-2 -56q-6 -119 -6 -229q0 -12 3 -50t3 -91v-19q0 -26 -14 -26q-12 0 -23 30q-22 67 -45 88q-118 -129 -285 -129 q-240 0 -399 209q-114 153 -147 367h-226v74h217q-2 58 -2 90v37h-215v73h220q21 250 141 414q145 205 375 205q85 0 134 -18q53 -19 124 -70q34 -27 53 -27q14 0 29 33q21 57 32 57q15 0 15 -16q0 -11 -4 -27q-19 -104 -19 -368q0 -40 -4 -45q-5 -7 -12 -7q-17 0 -23 39 q-22 168 -59 244q-83 164 -254 164q-131 0 -209 -111q-119 -169 -137 -467h448v-73z" />
<glyph unicode="&#x2122;" horiz-adv-x="1499" d="M1470 729q0 -14 -28 -14h-15h-1q-1 0 -3 0.5t-4.5 0.5t-6 0.5t-7.5 0.5h-35h-53q-123 0 -139 -2h-11q-28 0 -28 14q0 16 32 16q59 0 66 7q6 6 6 67v471q-50 -147 -172 -516q-15 -49 -29 -49t-32 51q-32 89 -195 498v-492q0 -21 5 -29t42 -8q45 0 45 -14t-33 -14h-24 q-22 2 -33 2q-10 0 -119 -4q-28 0 -28 14q0 16 69 16q21 0 24 8q3 7 3 48v483q0 76 -5 91q-5 14 -34 16q-59 4 -59 18q0 13 14 14q20 2 102 2h95l8 -20l55 -139q31 -73 131 -332q27 85 119 348q9 25 49 143q82 2 158 2h20q45 0 45 -16q0 -15 -46 -16q-45 -1 -52 -21 q-2 -8 -2 -110v-467q0 -39 6 -45q7 -7 72 -7q28 0 28 -16zM651 1239q0 -16 -16 -16q-24 0 -25 28q-12 148 -145 144l-64 -2v-605q0 -30 11 -36q13 -8 61 -9q21 0 21 -14t-29 -14h-12q-28 2 -72 2h-84h-51q-9 0 -17 -0.5t-12 -0.5l-4 -1q-29 0 -29 14t31 14h23q30 0 35 8 q6 10 6 44v598h-11q-102 0 -133 -17q-50 -27 -57 -114q-5 -35 -21 -35q-18 0 -18 26q0 73 14 172q20 2 35 2h39l78 -2h88l45 -2q170 -8 297 7q0 -6 1.5 -18.5t4 -35t4.5 -43.5q6 -60 6 -94z" />
<glyph unicode="&#x25fc;" horiz-adv-x="890" d="M0 891h891v-891h-891v891z" />
<glyph unicode="&#xfb01;" horiz-adv-x="1028" d="M1008 12q0 -18 -35 -18l-14 2q-16 2 -35 2l-136 4l-180 -4q-14 -2 -24 -2q-23 0 -23 14q0 21 39 21h33q47 0 54 12q7 11 7 84v287v141q-2 164 -2 231v39q0 21 -9 25q-8 4 -50 4h-283v-791q0 -25 15 -30t108 -6q33 0 33 -17q0 -14 -27 -14q-8 0 -18 2h-49l-66 2h-45h-5 q-5 -1 -16 -1.5t-23 -0.5q-56 -2 -122 -2h-39q-63 0 -63 14q0 17 45 17q69 0 86 5q14 4 16 23v799q-76 0 -88 3t-12 17q0 19 61 19h37v37q0 160 30 254t101 159q109 101 281 101q115 0 191 -50q75 -50 75 -128q0 -45 -29 -74t-71 -29q-46 0 -76 30q-31 31 -31 71q0 50 45 79 q25 19 25 27q0 45 -135 45q-122 0 -178 -66q-56 -67 -56 -216v-240h363q92 0 137 31q16 -32 16 -123v-45q-2 -28 -2 -47v-623q0 -42 29 -53q13 -4 68 -4h20q27 0 27 -17z" />
<glyph unicode="&#xfb02;" horiz-adv-x="1032" d="M1014 14q0 -18 -27 -18h-16q-38 0 -129 4q-7 0 -13 0.5t-11 0.5h-9t-6.5 0.5t-4.5 0.5h-2h-1l-25 -1q-33 -2 -57 -3l-47 -2h-39q-14 -2 -27 -2q-29 0 -29 18q0 15 50 15q59 0 77 8q8 6 9 22v1108q-82 22 -82 99q0 52 45 79q24 18 24 27q0 45 -121 45q-223 0 -223 -282 v-240h92q58 0 72 -2q10 -1 10 -17q0 -18 -51 -18h-123v-793q0 -36 65 -36q64 0 64 -17q0 -14 -26 -14q-9 0 -23 2l-137 2h-5q-4 -1 -13 -1.5t-19 -0.5q-54 -2 -121 -2h-41q-61 0 -61 16q0 15 45 15q72 0 88 6q10 4 14 22v801q-76 0 -88 3t-12 18q0 16 61 16h37v37 q0 160 30 254t101 159q112 101 266 101q99 0 170 -43q26 8 62 24q14 10 37 19l16 6q14 -50 14 -186q0 -15 -2 -45v-187q0 -43 2 -231v-318v-362q0 -61 6 -77q4 -12 34 -13q8 0 17 -0.5t14 -1t7 -0.5h33q29 -2 29 -15z" />
</font>
</defs>
</svg>
