<svg width="35" height="24" viewBox="0 0 35 24" fill="none" xmlns="http://www.w3.org/2000/svg">
<g clip-path="url(#clip0_81_2111)">
<path d="M35 6.13711C35 6.134 35 6.1309 34.9999 6.1278C34.9999 6.1075 34.9998 6.0873 34.9996 6.06709C34.9995 6.05836 34.9993 6.04964 34.9992 6.04092C34.9989 6.026 34.9987 6.01099 34.9984 5.99606C34.9982 5.98751 34.9979 5.97887 34.9977 5.97031C34.9973 5.9548 34.9969 5.93929 34.9963 5.92377C34.9961 5.91648 34.9958 5.9091 34.9955 5.9018C34.9948 5.88436 34.9942 5.867 34.9933 5.84964C34.9931 5.84436 34.9929 5.83908 34.9926 5.83379C34.9916 5.81333 34.9906 5.79296 34.9894 5.77258C34.9892 5.77031 34.9892 5.76805 34.989 5.76587C34.9582 5.23975 34.8625 4.73149 34.7098 4.24931C34.7094 4.24805 34.709 4.24671 34.7086 4.24545C34.7025 4.22625 34.6963 4.20713 34.6901 4.18809C34.688 4.1818 34.686 4.17551 34.6839 4.16922C34.6798 4.1569 34.6757 4.14465 34.6715 4.13241C34.3834 3.27941 33.9059 2.47832 33.2388 1.79732C32.681 1.22809 32.041 0.79413 31.3576 0.495346C31.3539 0.493669 31.35 0.491992 31.3462 0.490398C31.3277 0.482348 31.3093 0.474465 31.2908 0.466667C31.2811 0.462558 31.2715 0.458532 31.2618 0.454423C31.2507 0.449811 31.2397 0.445283 31.2286 0.440755C30.6215 0.191614 29.9655 0.0406709 29.2793 0.00721174C29.2778 0.00712788 29.2763 0.00704402 29.2748 0.00696017C29.2571 0.00612159 29.2394 0.00536688 29.2216 0.00469602C29.2111 0.00427673 29.2005 0.00385744 29.1899 0.00352201C29.1756 0.00301887 29.1614 0.00259958 29.147 0.00218029C29.1318 0.00176101 29.1166 0.00142558 29.1014 0.001174C29.0903 0.000922432 29.0793 0.000754717 29.0682 0.000587002C29.0418 0.000251572 29.0154 0 28.989 0C28.9885 0 28.9881 0 28.9876 0C28.9875 0 28.9875 0 28.9874 0C28.9618 0 28.9361 0.000167715 28.9104 0.000503145C28.9012 0.000587002 28.8921 0.000838574 28.8829 0.00100629C28.8669 0.00125786 28.8509 0.00159329 28.8348 0.00201258C28.8221 0.00234801 28.8095 0.0027673 28.7969 0.00318658C28.7848 0.00360587 28.7726 0.0039413 28.7606 0.00444444C28.7453 0.00503145 28.73 0.00570231 28.7147 0.00637317C28.7059 0.00679245 28.6972 0.00721174 28.6884 0.00763103C28.6703 0.00855346 28.6523 0.00955975 28.6342 0.010566C28.6292 0.0109015 28.6242 0.011153 28.6192 0.0114885C28.5977 0.0128302 28.5762 0.0142558 28.5548 0.0157652C28.5547 0.0157652 28.5547 0.0157652 28.5546 0.0157652C28.0447 0.0528302 27.5523 0.154801 27.0854 0.313627C27.0765 0.316646 27.0674 0.319665 27.0585 0.322767C27.0485 0.326205 27.0386 0.329727 27.0287 0.333166C27.0122 0.338952 26.9958 0.344822 26.9794 0.350692C26.9759 0.35195 26.9725 0.353208 26.969 0.354465C26.1536 0.650314 25.3882 1.13115 24.7355 1.79732C24.0029 2.54507 23.499 3.43799 23.2236 4.38516C23.2212 4.39329 23.2189 4.40143 23.2166 4.40964C23.2115 4.427 23.2065 4.44444 23.2018 4.4618C23.1948 4.48696 23.188 4.51228 23.1813 4.53761C23.1788 4.54717 23.1764 4.55665 23.1739 4.56621C23.1682 4.58792 23.1627 4.60973 23.1574 4.63161C23.1556 4.63883 23.1539 4.64595 23.1521 4.65317C23.1371 4.71463 23.1231 4.77652 23.1099 4.83866C23.1096 4.84034 23.1092 4.84201 23.1088 4.84377C23.0885 4.94021 23.0705 5.03757 23.0547 5.1356C23.0545 5.13669 23.0544 5.13769 23.0542 5.13878C23.0438 5.20352 23.0344 5.2686 23.026 5.33392C23.0258 5.3361 23.0254 5.33836 23.0252 5.34054C23.0217 5.36855 23.0183 5.39673 23.0151 5.42482C23.0144 5.43119 23.0136 5.43765 23.013 5.44403C23.0099 5.47178 23.007 5.49954 23.0043 5.52738C23.004 5.53057 23.0037 5.53375 23.0033 5.53702C23.0006 5.56562 22.9982 5.5943 22.9958 5.62306C22.9948 5.63522 22.9939 5.6473 22.993 5.65945C22.9918 5.67614 22.9905 5.69275 22.9894 5.70943C22.9884 5.72394 22.9874 5.73845 22.9865 5.75296C22.9857 5.76688 22.9849 5.7808 22.9842 5.79463C22.9826 5.82524 22.9811 5.85585 22.9799 5.88654C22.9795 5.8961 22.9791 5.90566 22.9788 5.91522C22.9781 5.93375 22.9776 5.95229 22.9771 5.97082C22.9769 5.98088 22.9766 5.99103 22.9764 6.00117C22.976 6.01971 22.9757 6.03832 22.9754 6.05686C22.9752 6.06667 22.9752 6.07648 22.9752 6.08629C22.9747 6.1387 22.9748 6.19111 22.9757 6.24352C22.9758 6.2488 22.976 6.25409 22.9761 6.25937C22.9767 6.28738 22.9774 6.3153 22.9783 6.34331C22.9789 6.36419 22.9799 6.38507 22.9807 6.40587C22.9812 6.41769 22.9816 6.42952 22.9822 6.44134C22.9836 6.47111 22.9853 6.5008 22.9872 6.53048C22.9873 6.53291 22.9874 6.53543 22.9876 6.53786C23.0148 6.96981 23.0859 7.38943 23.1963 7.79212C23.1978 7.79639 23.1991 7.80075 23.2006 7.80503C23.2022 7.81057 23.2036 7.81618 23.2051 7.82172C23.215 7.85132 23.2244 7.88109 23.2335 7.91103C23.2365 7.92134 23.2396 7.93166 23.2428 7.94197C23.2525 7.97518 23.2617 8.00847 23.2703 8.04201C23.3585 8.38172 23.3919 8.7335 23.3699 9.0821C23.3237 9.84579 23.015 10.5952 22.444 11.1789L22.4417 11.1812L21.8508 11.6576C21.3999 11.9396 20.895 12.0969 20.3838 12.1291C20.0342 12.1517 19.682 12.1153 19.3419 12.02C18.8467 11.8579 18.3351 11.7632 17.8206 11.7354C17.8185 11.7353 17.6155 11.7279 17.6047 11.7277C17.585 11.7274 17.3143 11.7296 17.2903 11.7305C17.2837 11.7307 17.2139 11.7336 17.1856 11.7351C17.1834 11.7352 17.1812 11.7353 17.179 11.7354C16.6645 11.7632 16.1529 11.858 15.6578 12.02C15.3178 12.1152 14.9655 12.1516 14.6159 12.1291C14.1047 12.0969 13.5999 11.9396 13.1489 11.6576L12.5581 11.1812L12.5558 11.1789C11.9847 10.5952 11.6761 9.84579 11.6299 9.0821C11.6079 8.7335 11.6412 8.38172 11.7295 8.04201C11.738 8.00847 11.7473 7.97509 11.757 7.94189C11.7601 7.93157 11.7632 7.92126 11.7663 7.91094C11.7753 7.88109 11.7848 7.85124 11.7946 7.82163C11.7962 7.8161 11.7976 7.81048 11.7991 7.80495C11.8006 7.80067 11.8019 7.79631 11.8034 7.79203C11.9138 7.38943 11.9848 6.96973 12.0122 6.53786C12.0124 6.53535 12.0125 6.53283 12.0126 6.53031C12.0144 6.50071 12.0161 6.47111 12.0175 6.44134C12.0181 6.42943 12.0185 6.41753 12.019 6.40562C12.0199 6.38482 12.0208 6.36411 12.0215 6.34331C12.0224 6.31522 12.023 6.28713 12.0236 6.25904C12.0237 6.25392 12.0239 6.24872 12.0239 6.24361C12.0248 6.19111 12.0249 6.13862 12.0245 6.08612C12.0244 6.07639 12.0244 6.06667 12.0243 6.05694C12.024 6.03832 12.0237 6.01971 12.0233 6.00109C12.023 5.99103 12.0228 5.98096 12.0225 5.9709C12.022 5.95237 12.0216 5.93375 12.0209 5.91522C12.0206 5.90574 12.0202 5.89635 12.0197 5.88688C12.0185 5.8561 12.0171 5.82524 12.0154 5.79447C12.0147 5.78063 12.0139 5.76679 12.0131 5.75304C12.0122 5.73845 12.0112 5.72394 12.0102 5.70935C12.0091 5.69275 12.0079 5.67614 12.0067 5.65954C12.0058 5.64738 12.0049 5.63522 12.0039 5.62306C12.0016 5.59438 11.999 5.5657 11.9963 5.53711C11.996 5.53384 11.9957 5.53057 11.9953 5.5273C11.9926 5.49954 11.9898 5.47187 11.9867 5.44419C11.986 5.43774 11.9852 5.43128 11.9845 5.42491C11.9813 5.39681 11.9779 5.36872 11.9744 5.3408C11.9741 5.33853 11.9738 5.33627 11.9736 5.334C11.9652 5.26868 11.9557 5.20361 11.9454 5.13895C11.9452 5.13786 11.9451 5.13677 11.9449 5.1356C11.9291 5.03757 11.911 4.94029 11.8908 4.84386C11.8904 4.8421 11.89 4.84042 11.8897 4.83866C11.8765 4.77652 11.8625 4.71472 11.8475 4.65325C11.8458 4.64604 11.844 4.63874 11.8422 4.63153C11.8368 4.60973 11.8313 4.58801 11.8257 4.56629C11.8232 4.55673 11.8207 4.54717 11.8183 4.53761C11.8116 4.51228 11.8048 4.48704 11.7978 4.46189C11.793 4.44444 11.788 4.427 11.783 4.40956C11.7807 4.40143 11.7784 4.39337 11.776 4.38524C11.5006 3.43799 10.9968 2.54507 10.2641 1.79732C9.61139 1.13115 8.84597 0.650314 8.03058 0.354465C8.02713 0.353208 8.02368 0.35195 8.02023 0.350692C8.0038 0.344738 7.98728 0.338868 7.97077 0.333082C7.96091 0.329644 7.95097 0.326122 7.94103 0.322683C7.93207 0.319581 7.92303 0.316562 7.91408 0.313459C7.89715 0.307673 7.88031 0.301971 7.8633 0.296436C7.41182 0.147505 6.93675 0.0514885 6.44525 0.0157652C6.44517 0.0157652 6.44509 0.0157652 6.44501 0.0157652C6.42356 0.0141719 6.40212 0.0127463 6.38067 0.0114885C6.37566 0.011153 6.37065 0.0109015 6.36564 0.010566C6.34756 0.00947589 6.32949 0.0084696 6.31141 0.00763103C6.30262 0.00721174 6.29391 0.00679245 6.28512 0.00637317C6.26984 0.00570231 6.25455 0.00503145 6.23927 0.00444444C6.22719 0.0039413 6.21503 0.00360587 6.20296 0.00318658C6.1903 0.0027673 6.17773 0.00234801 6.16508 0.00201258C6.14906 0.00159329 6.13304 0.00134172 6.11693 0.00100629C6.10773 0.000838574 6.09861 0.000587002 6.08941 0.000503145C6.06377 0.000167715 6.03814 0 6.0125 0C6.01242 0 6.01242 0 6.01234 0C6.01185 0 6.01144 0 6.01094 0C5.98457 0 5.95811 0.000251572 5.93174 0.000587002C5.92065 0.000754717 5.90955 0.00100629 5.89854 0.001174C5.88334 0.00142558 5.86814 0.00176101 5.85294 0.00218029C5.83865 0.00259958 5.82427 0.00301887 5.80997 0.00352201C5.79946 0.00385744 5.78886 0.00427673 5.77834 0.00469602C5.76059 0.00536688 5.74284 0.00612159 5.7251 0.00696017C5.72362 0.00704402 5.72214 0.00712788 5.72066 0.00721174C5.03444 0.0406709 4.37837 0.191614 3.77135 0.440755C3.76026 0.445283 3.74917 0.449811 3.73807 0.454423C3.72838 0.458449 3.71877 0.462558 3.70907 0.466667C3.69058 0.474465 3.6721 0.482432 3.65369 0.490398C3.64983 0.492075 3.64605 0.493753 3.64219 0.49543C2.95893 0.794214 2.31888 1.22818 1.76116 1.7974C1.094 2.47832 0.616467 3.27941 0.328404 4.13233C0.324214 4.14465 0.320024 4.15698 0.315998 4.16939C0.313944 4.1756 0.31189 4.1818 0.309836 4.18809C0.303591 4.20721 0.297347 4.22642 0.291267 4.24562C0.290856 4.24688 0.290527 4.24805 0.290117 4.24931C0.137458 4.73149 0.0417387 5.23975 0.0109276 5.76595C0.0107633 5.76813 0.0106812 5.77031 0.0105168 5.77249C0.00936655 5.79296 0.00829843 5.81342 0.00731248 5.83396C0.00706599 5.83916 0.00681951 5.84436 0.00657302 5.84964C0.00575139 5.86709 0.00509409 5.88453 0.00443679 5.90205C0.0041903 5.90935 0.00386165 5.91656 0.00361516 5.92386C0.00312218 5.93945 0.00262921 5.95505 0.00221839 5.97065C0.00197191 5.97912 0.00172542 5.98767 0.00156109 5.99614C0.00123244 6.01115 0.000985953 6.02625 0.000739464 6.04134C0.000575139 6.04998 0.000410814 6.05853 0.000328651 6.06717C8.21627e-05 6.08788 0 6.10868 0 6.12948C0 6.13208 0 6.13459 0 6.13719C0 6.13736 0 6.13753 0 6.13769C0 6.14314 8.21627e-05 6.1486 8.21627e-05 6.15405C0.000164325 6.17342 0.000246488 6.19279 0.000410814 6.21224C0.000657302 6.23069 0.000985953 6.24914 0.00139677 6.26759C0.00156109 6.27363 0.00156109 6.27966 0.00172542 6.2857C0.00230056 6.30969 0.00295786 6.33358 0.00386165 6.35748C0.00386165 6.35757 0.00386165 6.35757 0.00386165 6.35765C0.0593215 7.9647 0.719828 9.41484 1.76091 10.4774H1.76247C3.36884 12.1159 5.65698 12.6334 7.69413 12.0294C7.74449 12.0121 7.7956 11.9962 7.84711 11.9823C8.18981 11.8853 8.54509 11.8482 8.89765 11.871C9.40886 11.9031 9.91367 12.0605 10.3647 12.3425L10.9555 12.8189L10.9578 12.8212C11.5288 13.4049 11.8375 14.1543 11.8837 14.918C11.9049 15.2544 11.8744 15.5938 11.793 15.9224C11.6157 16.4661 11.5108 17.0434 11.4902 17.6427C11.4902 17.6428 11.4902 17.6428 11.4902 17.6428C11.4894 17.6667 11.4886 17.6906 11.4881 17.7146C11.4879 17.7207 11.4878 17.7267 11.4877 17.7328C11.4873 17.7513 11.487 17.7696 11.4868 17.7882C11.4865 17.8075 11.4864 17.8269 11.4864 17.8464C11.4864 17.8518 11.4863 17.8573 11.4863 17.8627C11.4863 17.8629 11.4863 17.8631 11.4863 17.8632C11.4863 17.8658 11.4863 17.8683 11.4863 17.8709C11.4863 17.8917 11.4865 17.9125 11.4867 17.9332C11.4868 17.9419 11.4869 17.9504 11.4871 17.9591C11.4873 17.9742 11.4876 17.9892 11.4879 18.0043C11.4881 18.0127 11.4883 18.0213 11.4886 18.0298C11.489 18.0454 11.4894 18.061 11.49 18.0766C11.4902 18.0839 11.4905 18.0911 11.4908 18.0984C11.4914 18.1158 11.4921 18.1333 11.4929 18.1508C11.4932 18.156 11.4934 18.1612 11.4937 18.1665C11.4946 18.187 11.4957 18.2075 11.4969 18.2279C11.497 18.2301 11.4971 18.2323 11.4973 18.2345C11.5281 18.7607 11.6238 19.2689 11.7765 19.7511C11.7769 19.7524 11.7772 19.7535 11.7776 19.7548C11.7837 19.774 11.7899 19.7932 11.7962 19.8123C11.7982 19.8185 11.8003 19.8248 11.8023 19.831C11.8065 19.8434 11.8106 19.8558 11.8148 19.8681C12.1028 20.721 12.5803 21.5221 13.2475 22.203C13.8052 22.7722 14.4453 23.2061 15.1285 23.505C15.1324 23.5067 15.1362 23.5083 15.14 23.51C15.1584 23.5181 15.1769 23.526 15.1954 23.5338C15.205 23.5379 15.2147 23.5419 15.2244 23.546C15.2355 23.5506 15.2466 23.5551 15.2577 23.5597C15.8647 23.8088 16.5208 23.9597 17.207 23.9932C17.2085 23.9933 17.21 23.9934 17.2114 23.9935C17.2292 23.9943 17.2469 23.9951 17.2647 23.9957C17.2752 23.9961 17.2858 23.9966 17.2963 23.9969C17.3106 23.9974 17.3249 23.9978 17.3393 23.9982C17.3415 23.9983 17.3437 23.9983 17.3459 23.9984C17.3468 23.9984 17.3478 23.9985 17.3487 23.9985C17.352 23.9986 17.3555 23.9987 17.3588 23.9987C17.3676 23.9988 17.3762 23.9991 17.3849 23.9992C17.396 23.9995 17.407 23.9997 17.4181 23.9998C17.4191 23.9998 17.4201 23.9998 17.4211 23.9998C17.4222 23.9998 17.4232 23.9999 17.4242 23.9999C17.4403 24.0001 17.4565 24.0002 17.4726 24.0003C17.4808 24.0003 17.4891 24.0004 17.4973 24.0004C17.4978 24.0004 17.4982 24.0004 17.4987 24.0004C17.4988 24.0004 17.4988 24.0004 17.4988 24.0004C17.4993 24.0004 17.4997 24.0004 17.5001 24.0004C17.5004 24.0004 17.5008 24.0004 17.5012 24.0004C17.5012 24.0004 17.5012 24.0004 17.5013 24.0004C17.5018 24.0004 17.5022 24.0004 17.5027 24.0004C17.5104 24.0004 17.5182 24.0003 17.526 24.0003C17.5426 24.0002 17.5592 24.0002 17.5758 23.9999C17.5768 23.9999 17.5779 23.9998 17.579 23.9998C17.5799 23.9998 17.5809 23.9998 17.5819 23.9998C17.593 23.9997 17.6041 23.9994 17.6151 23.9992C17.6236 23.9991 17.632 23.9989 17.6404 23.9987C17.644 23.9986 17.6477 23.9985 17.6513 23.9984C17.6523 23.9984 17.6533 23.9983 17.6543 23.9983C17.6564 23.9982 17.6586 23.9982 17.6607 23.9982C17.675 23.9977 17.6894 23.9973 17.7037 23.9968C17.7142 23.9965 17.7248 23.9961 17.7353 23.9956C17.7531 23.995 17.7708 23.9942 17.7886 23.9934C17.79 23.9933 17.7915 23.9932 17.793 23.9931C18.4792 23.9597 19.1353 23.8087 19.7423 23.5596C19.7534 23.5551 19.7644 23.5505 19.7755 23.5459C19.7852 23.5419 19.7948 23.5378 19.8045 23.5337C19.823 23.5259 19.8415 23.5179 19.86 23.5099C19.8637 23.5083 19.8676 23.5066 19.8714 23.505C20.5546 23.2062 21.1948 22.7722 21.7525 22.203C22.4197 21.5221 22.8972 20.7209 23.1852 19.8679C23.1894 19.8557 23.1935 19.8434 23.1977 19.8311C23.1997 19.8248 23.2018 19.8185 23.2038 19.8122C23.2101 19.7931 23.2162 19.774 23.2223 19.7549C23.2227 19.7536 23.2231 19.7523 23.2235 19.751C23.3762 19.2688 23.4719 18.7606 23.5027 18.2345C23.5029 18.2322 23.503 18.2299 23.5031 18.2278C23.5043 18.2074 23.5054 18.1869 23.5063 18.1665C23.5066 18.1613 23.5068 18.156 23.5071 18.1507C23.5079 18.1333 23.5086 18.1159 23.5092 18.0985C23.5095 18.0912 23.5098 18.0839 23.51 18.0766C23.5105 18.061 23.511 18.0455 23.5114 18.03C23.5117 18.0215 23.5119 18.0128 23.5121 18.0043C23.5124 17.9893 23.5127 17.9743 23.5129 17.9594C23.5131 17.9507 23.5132 17.942 23.5133 17.9332C23.5136 17.913 23.5137 17.8928 23.5137 17.8725C23.5137 17.8694 23.5137 17.8663 23.5137 17.8632C23.5137 17.8631 23.5137 17.8629 23.5137 17.8628C23.5137 17.8582 23.5137 17.8536 23.5137 17.849C23.5136 17.8288 23.5135 17.8086 23.5132 17.7883C23.513 17.77 23.5127 17.7517 23.5123 17.7334C23.5121 17.7272 23.5121 17.721 23.5119 17.7147C23.5114 17.6909 23.5107 17.6671 23.5099 17.6433C23.5099 17.6431 23.5099 17.6429 23.5099 17.6428C23.4892 17.0436 23.3843 16.4662 23.2071 15.9226C23.1257 15.594 23.0952 15.2546 23.1164 14.9182C23.1626 14.1545 23.4713 13.405 24.0423 12.8214L24.0446 12.819L24.6354 12.3426C25.0864 12.0606 25.5912 11.9033 26.1024 11.8712C26.455 11.8484 26.8102 11.8855 27.153 11.9825C27.2045 11.9964 27.2556 12.0122 27.306 12.0296C29.3432 12.6335 31.6313 12.1161 33.2376 10.4776H33.2392C34.2803 9.41501 34.9408 7.96486 34.9962 6.35782C34.9962 6.35765 34.9962 6.35748 34.9962 6.35732C34.997 6.3335 34.9978 6.30969 34.9983 6.28587C34.9984 6.27966 34.9985 6.27346 34.9986 6.26717C34.9989 6.24889 34.9993 6.23069 34.9996 6.21241C34.9998 6.1922 34.9999 6.17199 35 6.1517C35 6.14709 35.0001 6.14247 35.0001 6.13786C35 6.13744 35 6.13727 35 6.13711Z" fill="#F2F2EB"/>
</g>
<defs>
<clipPath id="clip0_81_2111">
<rect width="35" height="24" fill="white"/>
</clipPath>
</defs>
</svg>
