<svg width="348" height="81" viewBox="0 0 348 81" fill="none" xmlns="http://www.w3.org/2000/svg">
<path d="M74.8114 51.3635C78.1238 54.7115 79.7801 59.1 79.7801 63.4885C79.7801 67.8797 78.1238 72.2682 74.8114 75.6161C71.499 78.9641 67.157 80.6381 62.8124 80.6381C58.4705 80.6381 54.1285 78.9641 50.8161 75.6161C49.6944 74.4824 48.7649 73.229 48.0223 71.9009C47.9118 71.6668 47.7906 71.4379 47.659 71.2143C47.1719 70.3813 46.5583 69.6308 45.8448 68.9974C44.257 67.5843 42.1716 66.7273 39.8913 66.7273C37.6058 66.7273 35.5204 67.5869 33.93 69.0054C33.1822 69.6708 32.545 70.4612 32.0526 71.3447C31.9763 71.4751 31.9052 71.6109 31.8394 71.7466C28.9535 77.0506 23.374 80.6434 16.965 80.6434C7.59647 80.6354 0 72.9602 0 63.4885C0 54.0195 7.59647 46.3389 16.9676 46.3389C23.3476 46.3389 28.9035 49.8971 31.7999 55.1559C31.8946 55.3475 31.9921 55.5365 32.1 55.7228C32.5872 56.5717 33.2086 57.3355 33.9353 57.9796C35.5204 59.3954 37.6006 60.255 39.8808 60.255H39.8887C44.3281 60.247 45.6394 53.7321 40.9288 46.3389H40.9341C39.9651 44.8885 38.8618 43.5499 37.6401 42.3337C37.6401 42.331 37.6374 42.3337 37.6374 42.3337C36.5026 41.2026 35.265 40.1753 33.9327 39.2651C29.2879 36.0875 23.503 34.2991 16.965 34.2991C14.9138 34.2991 12.8627 33.9239 10.9194 33.1787C10.9168 33.176 10.9168 33.176 10.9168 33.176C8.74713 32.3431 6.71439 31.0417 4.96601 29.2772C1.65622 25.9266 0 21.5381 0 17.1496C0 12.761 1.65622 8.37252 4.96865 5.02192C8.28108 1.67397 12.6257 0 16.9676 0C21.3096 0 25.6516 1.67397 28.964 5.02192C30.091 6.16096 31.0257 7.41977 31.7709 8.75841C31.7735 8.76373 31.7735 8.7664 31.7762 8.77172C31.8762 8.98196 31.9842 9.18422 32.1 9.38382C32.5872 10.2328 33.2086 10.9966 33.9353 11.6406C35.5231 13.0591 37.6085 13.9161 39.8913 13.9161C42.1742 13.9161 44.2597 13.0564 45.85 11.6406C46.5847 10.9859 47.2113 10.2142 47.7037 9.35189C47.7064 9.34923 47.709 9.34656 47.709 9.3439C47.8064 9.17624 47.896 9.00591 47.9776 8.83293C50.8687 3.56351 56.4298 0 62.8151 0C72.1862 0 79.7827 7.67792 79.7827 17.1496C79.7827 26.6185 72.1862 34.2991 62.8151 34.2991C56.4614 34.2991 50.924 30.7702 48.0197 25.546C48.0171 25.5434 48.0171 25.5434 48.0171 25.5407C47.9091 25.3145 47.7933 25.0936 47.6669 24.878C47.1797 24.0397 46.5662 23.2919 45.85 22.6532C44.2623 21.24 42.1769 20.3831 39.8966 20.3831C35.4493 20.3831 34.1354 26.9033 38.8486 34.2991C39.8176 35.7495 40.9209 37.0909 42.1453 38.3071C47.2377 43.3822 54.405 46.3389 62.8177 46.3389C67.157 46.3389 71.499 48.0156 74.8114 51.3635Z" fill="url(#paint0_linear_59_50)"/>
<path d="M193.079 6.31787C193.079 2.88211 195.862 0.0957031 199.235 0.0957031C202.635 0.0957031 205.391 2.88211 205.391 6.31787C205.391 9.72703 202.635 12.54 199.235 12.54C195.862 12.54 193.079 9.72703 193.079 6.31787ZM203.972 6.31787C203.972 3.61397 201.884 1.44765 199.235 1.44765C196.613 1.44765 194.498 3.61131 194.498 6.31787C194.498 8.99516 196.613 11.1881 199.235 11.1881C201.887 11.1881 203.972 8.99783 203.972 6.31787ZM197.013 9.45823V3.23606H199.635C201.028 3.23606 201.776 4.02115 201.776 4.96858C201.776 5.78029 201.268 6.42965 200.599 6.59199C201.321 6.59199 201.697 6.80756 201.697 7.48353V9.45823H200.278V7.83483C200.278 7.34781 200.117 7.21208 199.609 7.21208H198.432V9.45823H197.013ZM198.432 6.02247H199.449C199.983 6.02247 200.36 5.75101 200.36 5.18415C200.36 4.6439 200.038 4.42834 199.422 4.42834H198.432V6.02247Z" fill="#1C1C1C"/>
<path d="M158.92 80.7601V0.231173C159.105 0.220528 159.255 0.201899 159.408 0.201899C165.872 0.201899 172.336 0.191253 178.8 0.223189C179.867 0.228512 180.933 0.409482 181.997 0.529241C183.363 0.683598 184.662 1.09078 185.886 1.71353C187.331 2.44805 188.49 3.5046 189.301 4.92841C190.099 6.33092 190.504 7.85054 190.67 9.45798C190.81 10.794 190.836 12.1299 190.836 13.4686C190.836 17.5324 190.841 21.5936 190.833 25.6574C190.831 26.8018 190.831 27.9462 190.755 29.0852C190.676 30.2402 190.531 31.3873 190.117 32.4891C189.575 33.9342 188.656 35.0812 187.476 36.026C186.836 36.5396 186.157 37.0053 185.499 37.4923C185.409 37.5589 185.322 37.6281 185.241 37.6919C185.288 37.9767 185.52 37.998 185.678 38.0778C186.357 38.4238 187.023 38.7911 187.632 39.2568C189.111 40.3852 190.017 41.8809 190.417 43.6959C190.665 44.8136 190.778 45.95 190.781 47.0944C190.805 53.8781 190.831 60.6618 190.826 67.4455C190.826 68.8214 190.747 70.2027 190.615 71.5759C190.481 72.9891 190.18 74.3729 189.491 75.6424C188.843 76.8347 187.966 77.822 186.902 78.6497C186.044 79.3177 185.085 79.8047 184.056 80.1214C183.427 80.3157 182.771 80.4461 182.115 80.5366C180.82 80.7175 179.514 80.7681 178.205 80.7654C172.015 80.7548 165.824 80.7601 159.634 80.7601H158.92ZM172.536 69.7901C172.639 69.8381 172.673 69.8727 172.707 69.87C173.603 69.8407 174.506 69.878 175.39 69.7609C176.488 69.6172 177.052 69.021 177.178 67.9751C177.249 67.3923 177.294 66.8015 177.297 66.2133C177.305 60.8933 177.307 55.5734 177.299 50.2534C177.297 48.779 177.378 47.2967 177.173 45.8303C177.11 45.3672 177.007 44.9015 176.854 44.4597C176.615 43.7571 176.093 43.3473 175.383 43.1556C174.577 42.9374 173.755 43.0199 172.939 42.996C172.81 42.9933 172.681 43.0279 172.534 43.0465V69.7901H172.536ZM172.539 32.0047C172.634 32.042 172.686 32.0819 172.739 32.0819C173.576 32.0632 174.416 32.0766 175.248 32.0047C176.246 31.9195 176.912 31.358 177.134 30.3573C177.239 29.881 177.284 29.3833 177.284 28.8936C177.299 24.8351 177.307 20.7766 177.297 16.7181C177.294 15.6562 177.239 14.5943 177.17 13.5351C177.081 12.1805 176.37 11.3768 175.048 11.1905C174.358 11.092 173.65 11.1133 172.95 11.092C172.821 11.0867 172.691 11.1293 172.539 11.1532V32.0047Z" fill="#1C1C1C"/>
<path d="M124.063 0.234122H137.566V1.01655C137.566 22.1767 137.566 43.3342 137.571 64.4944C137.571 65.4578 137.608 66.4239 137.674 67.3873C137.705 67.8317 137.813 68.2815 137.95 68.7073C138.316 69.8463 139.18 70.2455 140.346 70.0912C141.152 69.9847 141.671 69.5137 141.929 68.7179C142.118 68.1324 142.255 67.547 142.268 66.9322C142.295 65.4551 142.347 63.9781 142.347 62.5011C142.353 42.0116 142.35 21.522 142.35 1.03518V0.295333C142.832 0.180896 154.749 0.140976 155.784 0.239445C155.805 0.356543 155.842 0.481625 155.85 0.61203C155.86 0.787677 155.853 0.965986 155.853 1.14429C155.853 23.369 155.855 45.5937 155.845 67.8184C155.845 69.1358 155.832 70.4638 155.684 71.7705C155.426 74.0672 154.702 76.1829 152.93 77.7904C151.666 78.9347 150.263 79.8502 148.612 80.2947C147.787 80.5156 146.934 80.6646 146.084 80.7471C144.959 80.8589 143.827 80.8988 142.698 80.9254C141.02 80.9653 139.34 80.992 137.663 80.976C135.888 80.96 134.116 80.8695 132.365 80.5448C130.472 80.1936 128.758 79.475 127.328 78.1177C126.467 77.3007 125.688 76.4331 125.167 75.3579C124.7 74.3972 124.463 73.3673 124.308 72.3107C123.997 70.1923 124.069 68.0632 124.069 65.9368C124.063 44.3056 124.066 22.6717 124.066 1.03784V0.234122H124.063Z" fill="#1C1C1C"/>
<path d="M316.047 47.3877C316.706 47.2626 329.208 47.2812 329.69 47.4063C329.695 47.6192 329.705 47.8507 329.705 48.0823C329.705 53.9185 329.705 59.7548 329.708 65.5938C329.708 66.3416 329.663 67.0948 329.863 67.8266C329.966 68.2045 330.077 68.5878 330.25 68.9337C330.632 69.6949 331.288 70.0142 332.12 70.0036C332.936 69.9929 333.539 69.631 333.916 68.9018C334.2 68.3536 334.342 67.7601 334.384 67.148C334.421 66.5971 334.437 66.0435 334.437 65.4926C334.437 60.2472 334.437 55.0017 334.426 49.7562C334.424 49.0696 334.369 48.3803 334.305 47.6937C334.205 46.6345 333.631 45.8547 332.781 45.2932C331.638 44.5401 330.474 43.8215 329.305 43.1109C326.648 41.4982 323.968 39.928 321.329 38.2886C319.792 37.3332 318.415 36.1782 317.49 34.5601C316.998 33.7005 316.666 32.7797 316.471 31.8109C316.187 30.3978 316.097 28.966 316.095 27.5236C316.084 22.5362 316.05 17.5463 316.058 12.5589C316.061 11.3401 316.119 10.1132 316.284 8.90761C316.519 7.18307 316.966 5.50644 318.112 4.12521C318.486 3.67545 318.883 3.22303 319.339 2.86641C320.887 1.65551 322.612 0.830496 324.573 0.537751C325.906 0.338152 327.238 0.191779 328.586 0.178472C330.321 0.159843 332.059 0.0986328 333.794 0.0986328C335.043 0.0986328 336.293 0.127907 337.536 0.221054C338.916 0.322184 340.288 0.503154 341.596 1.00614C342.586 1.38671 343.487 1.92696 344.316 2.58697C345.025 3.15117 345.651 3.78456 346.165 4.5457C346.934 5.69007 347.394 6.94888 347.639 8.29817C347.945 9.99077 348 11.702 347.997 13.4159C347.99 18.012 347.995 22.6054 347.995 27.1989C347.995 27.4144 347.995 27.63 347.995 27.803C347.795 28.0478 347.566 27.9786 347.36 27.9786C345.994 27.984 344.627 27.9813 343.26 27.9813C340.567 27.9813 337.871 27.984 335.177 27.9786C334.95 27.9786 334.724 27.9361 334.44 27.9068C334.44 27.6407 334.44 27.4304 334.44 27.2175C334.434 23.0366 334.429 18.8556 334.421 14.6747C334.419 13.9455 334.395 13.2163 334.187 12.5084C334.126 12.3008 334.071 12.0879 333.976 11.8963C333.687 11.3134 333.234 10.9409 332.57 10.8743C331.13 10.728 330.343 11.1272 329.969 12.4525C329.848 12.8863 329.795 13.3387 329.732 13.7858C329.7 13.9987 329.711 14.2196 329.711 14.4352C329.711 18.9115 329.711 23.3879 329.716 27.8642C329.716 28.1197 329.726 28.3778 329.761 28.6307C329.863 29.3812 330.266 29.948 330.885 30.3499C331.87 30.9859 332.865 31.6087 333.86 32.2288C336.862 34.097 339.872 35.952 342.866 37.8335C343.861 38.4589 344.782 39.1801 345.593 40.0477C346.499 41.0165 347.076 42.1582 347.431 43.4276C347.695 44.3591 347.816 45.3172 347.863 46.2806C347.926 47.5979 347.984 48.9179 347.987 50.2379C347.995 56.4095 347.997 62.5812 347.971 68.7554C347.966 69.9317 347.874 71.1107 347.689 72.2817C347.558 73.1227 347.368 73.937 347.084 74.7327C346.749 75.6722 346.236 76.5052 345.578 77.2397C344.535 78.408 343.35 79.398 341.852 79.917C341.117 80.1725 340.361 80.3827 339.598 80.5211C338.042 80.8032 336.467 80.9097 334.885 80.9256C333.128 80.9416 331.372 80.9975 329.616 80.9709C327.823 80.9443 326.027 80.8911 324.26 80.5318C322.593 80.1911 321.082 79.4939 319.723 78.4533C317.912 77.0641 316.887 75.2091 316.435 72.9816C316.134 71.5072 316.05 70.0142 316.047 68.5186C316.032 61.6763 316.04 54.834 316.04 47.9918V47.3877H316.047Z" fill="#1C1C1C"/>
<path d="M120.343 27.8716C119.803 28.0233 110.94 28.0872 107.346 27.9834C107.196 27.9781 107.048 27.9461 106.84 27.9169V27.2409C106.84 24.0446 106.851 20.851 106.835 17.6575C106.827 16.2789 106.801 14.8977 106.714 13.5218C106.677 12.9629 106.511 12.396 106.301 11.8744C106.098 11.3714 105.687 11.0414 105.116 10.9216C104.602 10.8152 104.107 10.8312 103.612 10.9642C103.017 11.1212 102.648 11.5444 102.44 12.1086C102.19 12.7979 102.069 13.5164 102.064 14.2483C102.053 15.6082 102.051 16.9708 102.051 18.3308C102.053 21.5057 102.059 24.6807 102.064 27.8556C102.064 28.0712 102.067 28.2894 102.093 28.505C102.196 29.314 102.575 29.9474 103.27 30.3812C104.413 31.0945 105.55 31.8183 106.695 32.5289C109.45 34.2402 112.212 35.9354 114.958 37.6599C116.001 38.3146 116.988 39.0492 117.847 39.954C118.831 40.9893 119.503 42.1948 119.814 43.5814C120.003 44.4224 120.093 45.2846 120.201 46.1416C120.409 47.8102 120.335 49.4869 120.338 51.1608C120.338 57.1568 120.348 63.1528 120.309 69.1461C120.298 70.5779 120.158 72.0096 119.843 73.4201C119.376 75.5093 118.247 77.146 116.638 78.4979C115.195 79.7115 113.505 80.281 111.683 80.5605C108.367 81.0714 105.031 80.9996 101.695 80.9703C100.45 80.9597 99.1991 80.8718 97.9589 80.7441C95.4495 80.4859 93.2035 79.5784 91.334 77.8193C90.1781 76.7308 89.4092 75.3975 89.009 73.8619C88.8115 73.1061 88.7141 72.321 88.5772 71.5492C88.3455 70.2399 88.4271 68.9172 88.4245 67.5972C88.4166 61.0902 88.4218 54.5806 88.4218 48.0737C88.4218 47.8422 88.4218 47.6106 88.4218 47.3924C89.0143 47.2647 101.54 47.278 102.043 47.4137C102.043 47.6239 102.043 47.8555 102.043 48.087C102.043 53.886 102.043 59.6824 102.043 65.4814C102.043 66.3277 102.014 67.1767 102.248 68.0043C102.29 68.156 102.338 68.3051 102.377 68.4568C102.648 69.4441 103.507 70.0749 104.586 70.0057C105.526 69.9445 106.19 69.3457 106.509 68.2971C106.682 67.7302 106.753 67.1447 106.759 66.5513C106.78 64.0283 106.817 61.5054 106.83 58.9825C106.843 56.7336 106.846 54.4848 106.827 52.2387C106.817 50.9 106.785 49.5587 106.722 48.2201C106.664 46.9959 106.206 45.9633 105.129 45.2926C103.736 44.425 102.351 43.5441 100.947 42.6952C99.0253 41.5322 97.0794 40.4091 95.1625 39.2328C93.8644 38.4344 92.5584 37.644 91.442 36.5821C90.2202 35.4191 89.3566 34.0432 88.9537 32.3905C88.7588 31.5895 88.6404 30.7751 88.5456 29.9501C88.4086 28.7685 88.4244 27.5895 88.4218 26.4079C88.4165 21.3594 88.4192 16.3108 88.4376 11.2623C88.4429 9.64155 88.672 8.0421 89.1722 6.50119C89.6989 4.88311 90.6784 3.58438 92.0476 2.58106C93.3615 1.61767 94.8097 0.96298 96.3922 0.630315C97.1137 0.47862 97.8536 0.385473 98.5882 0.321602C99.4808 0.241762 100.379 0.201842 101.274 0.180552C102.933 0.13797 104.592 0.0980506 106.248 0.100712C107.456 0.100712 108.67 0.124664 109.874 0.223133C111.348 0.342892 112.817 0.521201 114.205 1.11201C115.04 1.46863 115.798 1.93436 116.517 2.4826C117.349 3.11599 118.073 3.85051 118.639 4.74206C119.311 5.80126 119.727 6.95894 119.964 8.18315C120.28 9.81454 120.33 11.4672 120.33 13.1226C120.324 17.8171 120.327 22.509 120.327 27.2036V27.8716H120.343Z" fill="#1C1C1C"/>
<path d="M270.424 47.39C270.587 47.3527 270.698 47.3075 270.811 47.3075C275.2 47.3048 279.587 47.3048 284.021 47.3048C284.032 47.5577 284.047 47.7493 284.047 47.9382C284.045 54.9801 284.047 62.0193 284.032 69.0612C284.029 70.0831 283.974 71.1104 283.871 72.127C283.726 73.5588 283.21 74.8655 282.449 76.0791C281.325 77.8728 279.774 79.1343 277.818 79.8848C276.554 80.3691 275.232 80.6219 273.889 80.755C271.243 81.0158 268.586 81.0211 265.934 80.9759C264.102 80.944 262.269 80.8854 260.46 80.5394C259.125 80.284 257.877 79.7996 256.734 79.0571C256.276 78.759 255.823 78.4476 255.405 78.099C253.938 76.8775 253.069 75.2966 252.616 73.4364C252.234 71.8715 252.14 70.288 252.14 68.6912C252.14 55.6747 252.14 42.6582 252.14 29.6416C252.14 23.7841 252.14 17.9265 252.14 12.0689C252.14 10.7676 252.224 9.47415 252.477 8.19139C253.032 5.36507 254.517 3.22004 256.982 1.74567C258.425 0.880742 259.992 0.465576 261.637 0.329849C262.706 0.242025 263.778 0.212751 264.85 0.170169C265.745 0.132911 266.643 0.0876684 267.541 0.0956524C269.394 0.114282 271.251 0.103636 273.099 0.220735C274.689 0.321865 276.29 0.497512 277.789 1.1176C280.256 2.13423 282.131 3.76828 283.131 6.33379C283.542 7.38767 283.81 8.46817 283.913 9.58593C283.992 10.4668 284.04 11.353 284.042 12.2393C284.055 17.2692 284.05 22.2964 284.053 27.3263C284.053 27.5179 284.053 27.7122 284.053 27.8905C283.55 28.0076 271.048 28.0156 270.445 27.9011C270.44 27.7042 270.432 27.494 270.432 27.2811C270.426 23.0017 270.426 18.7222 270.419 14.4428C270.419 13.7296 270.284 13.0323 270.055 12.359C269.565 10.9086 267.907 10.5892 266.827 11.3291C266.566 11.5074 266.353 11.8001 266.195 12.0822C265.927 12.5639 265.761 13.0909 265.742 13.6551C265.708 14.6983 265.65 15.7416 265.647 16.7848C265.642 32.3855 265.64 47.9861 265.647 63.5868C265.647 64.827 265.7 66.0672 265.758 67.3073C265.79 67.9833 265.974 68.6274 266.35 69.1969C267.272 70.5888 269.31 70.3093 269.918 68.9627C270.242 68.2468 270.353 67.4963 270.408 66.7325C270.445 66.2428 270.426 65.7478 270.426 65.2528C270.426 59.5336 270.426 53.8144 270.426 48.0953C270.424 47.8664 270.424 47.6348 270.424 47.39Z" fill="#1C1C1C"/>
<path d="M210.12 0.228516H223.697C223.728 0.33763 223.77 0.425453 223.778 0.5186C223.791 0.694247 223.784 0.872556 223.784 1.05086C223.784 23.2756 223.784 45.5003 223.781 67.725C223.781 69.4788 223.689 71.2299 223.352 72.9571C222.783 75.8846 221.19 78.0456 218.583 79.4454C217.327 80.1214 215.969 80.4541 214.573 80.651C212.501 80.9464 210.415 81.005 208.327 80.989C206.961 80.9784 205.592 80.973 204.23 80.8772C202.579 80.7628 200.931 80.5871 199.362 79.9937C197.439 79.2671 195.918 78.0003 194.704 76.3663C194.043 75.4774 193.672 74.4288 193.469 73.335C193.229 72.0576 193.09 70.7669 193.09 69.4628C193.087 62.2267 193.082 54.9879 193.079 47.7517C193.079 47.5788 193.1 47.4084 193.113 47.2088H205.37C205.378 47.4537 205.389 47.6826 205.389 47.9114C205.389 53.6306 205.386 59.3498 205.394 65.069C205.394 65.9339 205.444 66.8015 205.515 67.6638C205.544 68.031 205.66 68.3983 205.786 68.7469C206.192 69.8727 207.074 70.2532 208.217 70.0962C209.146 69.9658 209.639 69.3431 209.862 68.4755C209.999 67.9432 210.11 67.403 210.102 66.8441C210.091 66.1947 210.115 65.5427 210.115 64.8907C210.115 43.6134 210.115 22.3361 210.115 1.05619C210.12 0.803361 210.12 0.550536 210.12 0.228516Z" fill="#1C1C1C"/>
<path d="M240.633 69.8699C241.373 69.8991 242.092 69.8805 242.808 69.8832C243.529 69.8858 244.253 69.8832 244.975 69.8832C245.678 69.8832 246.381 69.8805 247.084 69.8832C247.803 69.8858 248.519 69.8885 249.18 69.8912C249.251 69.971 249.267 69.9843 249.277 70.0003C249.288 70.0162 249.301 70.0349 249.304 70.0535C249.314 73.4254 249.327 76.7946 249.335 80.1665C249.335 80.3049 249.327 80.4406 249.314 80.579C249.312 80.6136 249.277 80.6456 249.259 80.6775C248.822 80.776 227.683 80.7972 227.028 80.7014C226.93 80.249 226.917 0.851122 227.012 0.270954C227.446 0.180469 248.566 0.156517 249.246 0.244341C249.259 0.257647 249.277 0.270954 249.288 0.286922C249.298 0.30289 249.312 0.321519 249.312 0.337487C249.319 3.78922 249.327 7.2383 249.333 10.69C249.333 10.7858 249.317 10.8816 249.304 11.0466C249.09 11.06 248.885 11.0812 248.68 11.0812C246.218 11.0839 243.758 11.0839 241.296 11.0839C241.086 11.0839 240.875 11.0839 240.604 11.0839C240.593 11.374 240.578 11.6029 240.578 11.8317C240.575 15.9728 240.578 20.1138 240.578 24.2575V30.4104C240.578 30.5275 240.575 30.6473 240.578 30.7644C240.593 31.1955 240.662 31.2594 241.104 31.2754C241.22 31.2807 241.339 31.2754 241.457 31.2754C243.84 31.2754 246.223 31.2754 248.606 31.2754H249.204C249.256 31.3392 249.269 31.3525 249.28 31.3685C249.29 31.3845 249.312 31.4004 249.312 31.4164C249.319 34.8469 249.327 38.2773 249.335 41.7104C249.335 41.8062 249.319 41.902 249.309 42.0564C249.088 42.067 248.882 42.0883 248.674 42.0883C246.212 42.091 243.753 42.0883 241.291 42.0883H240.725C240.651 42.1708 240.635 42.1841 240.625 42.2001C240.614 42.2161 240.607 42.2347 240.604 42.2533C240.593 42.3305 240.578 42.4077 240.578 42.4875C240.578 51.52 240.578 60.5526 240.58 69.5878C240.58 69.6516 240.601 69.7075 240.633 69.8699Z" fill="#1C1C1C"/>
<path d="M314.494 0.199927V11.0714C313.648 11.1007 312.835 11.0821 312.021 11.0847C311.202 11.0874 310.381 11.0847 309.559 11.0847H307.087C307.055 11.271 307.024 11.4014 307.016 11.5318C307.005 11.6889 307.013 11.8459 307.013 12.0056V79.9225V80.6677C306.523 80.7821 294.045 80.7954 293.41 80.6863V11.1433C293.137 11.122 292.913 11.0901 292.689 11.0874C290.659 11.0847 288.626 11.0847 286.596 11.0847H285.985C285.859 10.6084 285.822 1.03824 285.927 0.287751C285.943 0.274444 285.956 0.261137 285.972 0.250492C285.988 0.239847 286.004 0.221218 286.022 0.221218C295.317 0.213234 304.609 0.20525 313.904 0.197266C314.078 0.199927 314.251 0.199927 314.494 0.199927Z" fill="#1C1C1C"/>
<defs>
<linearGradient id="paint0_linear_59_50" x1="4.96922" y1="75.6141" x2="75.5568" y2="5.77527" gradientUnits="userSpaceOnUse">
<stop stop-color="#E4B704"/>
<stop offset="0.1896" stop-color="#FC6B08"/>
<stop offset="0.38" stop-color="#E92C20"/>
<stop offset="0.5769" stop-color="#F4B9CB"/>
<stop offset="0.8101" stop-color="#84C8ED"/>
<stop offset="1" stop-color="#069D24"/>
</linearGradient>
</defs>
</svg>
