<?xml version="1.0" encoding="utf-8"?>
<!-- Generator: Adobe Illustrator 26.3.1, SVG Export Plug-In . SVG Version: 6.00 Build 0)  -->
<svg version="1.1" id="Layer_1" xmlns="http://www.w3.org/2000/svg" xmlns:xlink="http://www.w3.org/1999/xlink" x="0px" y="0px"
	 viewBox="0 0 1321.6 441.3" style="enable-background:new 0 0 1321.6 441.3;" xml:space="preserve">
<style type="text/css">
	.st0{fill:#1C1C1C;}
	
		.st1{clip-path:url(#SVGID_00000017501393668798645880000007773234448779366805_);fill:url(#SVGID_00000016049963336132334500000005924487859858354877_);}
</style>
<g>
	<g>
		<g>
			<g>
				<g>
					<g>
						<path class="st0" d="M733.3,23.7c0-12.9,10.6-23.4,23.4-23.4c12.9,0,23.4,10.5,23.4,23.4c0,12.8-10.5,23.4-23.4,23.4
							S733.3,36.5,733.3,23.7 M774.7,23.7c0-10.2-7.9-18.3-18-18.3c-10,0-18,8.1-18,18.3c0,10.1,8,18.3,18,18.3
							S774.7,33.8,774.7,23.7 M748.2,35.5V12.2h10c5.3,0,8.1,2.9,8.1,6.5c0,3-1.9,5.5-4.5,6.1c2.7,0,4.2,0.8,4.2,3.4v7.4h-5.4v-6.1
							c0-1.8-0.6-2.3-2.5-2.3h-4.5v8.4h-5.4V35.5z M753.6,22.6h3.9c2,0,3.5-1,3.5-3.1c0-2-1.2-2.8-3.6-2.8h-3.8L753.6,22.6
							L753.6,22.6z"/>
						<path class="st0" d="M603.5,303.5V0.9c0.7,0,1.3-0.1,1.8-0.1c24.5,0,49.1,0,73.7,0.1c4,0,8.1,0.7,12.1,1.2
							c5.2,0.6,10.1,2.1,14.8,4.4c5.5,2.8,9.9,6.7,13,12.1c3,5.3,4.6,11,5.2,17c0.5,5,0.6,10,0.6,15.1c0,15.3,0,30.5,0,45.8
							c0,4.3,0,8.6-0.3,12.9s-0.8,8.7-2.4,12.8c-2.1,5.4-5.5,9.7-10,13.3c-2.4,1.9-5,3.7-7.5,5.5c-0.3,0.2-0.7,0.5-1,0.8
							c0.2,1.1,1.1,1.1,1.7,1.4c2.6,1.3,5.1,2.7,7.4,4.4c5.6,4.2,9.1,9.9,10.6,16.7c0.9,4.2,1.4,8.5,1.4,12.8
							c0.1,25.5,0.2,51,0.2,76.5c0,5.2-0.3,10.4-0.8,15.5c-0.5,5.3-1.7,10.5-4.3,15.3c-2.5,4.5-5.8,8.2-9.8,11.3
							c-3.3,2.5-6.9,4.3-10.8,5.5c-2.4,0.7-4.9,1.2-7.4,1.6c-4.9,0.7-9.9,0.9-14.8,0.9c-23.5,0-47,0-70.5,0L603.5,303.5L603.5,303.5
							z M655.3,262.2c0.4,0.2,0.5,0.3,0.7,0.3c3.4-0.1,6.8,0,10.2-0.4c4.2-0.5,6.3-2.8,6.8-6.7c0.3-2.2,0.4-4.4,0.5-6.6
							c0-20,0-40,0-60c0-5.5,0.3-11.1-0.5-16.6c-0.2-1.7-0.6-3.5-1.2-5.1c-0.9-2.6-2.9-4.2-5.6-4.9c-3.1-0.8-6.2-0.5-9.3-0.6
							c-0.5,0-1,0.1-1.5,0.2L655.3,262.2L655.3,262.2z M655.3,120.3c0.4,0.1,0.6,0.3,0.8,0.3c3.2-0.1,6.4,0,9.5-0.3
							c3.8-0.3,6.3-2.4,7.2-6.2c0.4-1.8,0.6-3.7,0.6-5.5c0.1-15.2,0.1-30.5,0-45.8c0-4-0.2-8-0.5-12c-0.3-5.1-3-8.1-8.1-8.8
							c-2.6-0.4-5.3-0.3-8-0.4c-0.5,0-1,0.1-1.6,0.2L655.3,120.3L655.3,120.3z"/>
						<path class="st0" d="M471.2,0.9h51.3v2.9c0,79.5,0,159,0,238.5c0,3.6,0.1,7.2,0.4,10.9c0.1,1.7,0.5,3.4,1,5
							c1.4,4.3,4.7,5.8,9.1,5.2c3.1-0.4,5-2.2,6-5.2c0.7-2.2,1.2-4.4,1.3-6.7c0.1-5.6,0.3-11.1,0.3-16.6c0-77,0-154,0-231V1.1
							c1.8-0.4,47.1-0.6,51-0.2c0.1,0.4,0.2,0.9,0.2,1.4c0,0.7,0,1.3,0,2c0,83.5,0,167,0,250.5c0,4.9,0,9.9-0.6,14.8
							c-1,8.6-3.7,16.6-10.5,22.6c-4.8,4.3-10.1,7.7-16.4,9.4c-3.1,0.8-6.4,1.4-9.6,1.7c-4.3,0.4-8.6,0.6-12.9,0.7
							c-6.4,0.1-12.8,0.2-19.1,0.2c-6.7-0.1-13.5-0.4-20.1-1.6c-7.2-1.3-13.7-4-19.1-9.1c-3.3-3.1-6.2-6.3-8.2-10.4
							c-1.8-3.6-2.7-7.5-3.3-11.5c-1.2-8-0.9-16-0.9-23.9c0-81.3,0-162.6,0-243.9L471.2,0.9L471.2,0.9z"/>
						<path class="st0" d="M1200.3,178.1c2.5-0.5,50-0.4,51.8,0.1c0,0.8,0.1,1.7,0.1,2.5c0,21.9,0,43.9,0,65.8
							c0,2.8-0.2,5.6,0.6,8.4c0.4,1.4,0.8,2.9,1.5,4.2c1.4,2.9,3.9,4.1,7.1,4c3.1,0,5.4-1.4,6.8-4.1c1.1-2.1,1.6-4.3,1.8-6.6
							c0.1-2.1,0.2-4.1,0.2-6.2c0-19.7,0-39.4,0-59.1c0-2.6-0.2-5.2-0.5-7.8c-0.4-4-2.6-6.9-5.8-9c-4.3-2.8-8.8-5.5-13.2-8.2
							c-10.1-6.1-20.3-12-30.3-18.1c-5.8-3.6-11.1-7.9-14.6-14c-1.9-3.2-3.1-6.7-3.9-10.3c-1.1-5.3-1.4-10.7-1.4-16.1
							c0-18.7-0.2-37.5-0.1-56.2c0-4.6,0.2-9.2,0.9-13.7c0.9-6.5,2.6-12.8,6.9-18c1.4-1.7,2.9-3.4,4.7-4.7
							c5.9-4.6,12.4-7.7,19.9-8.8c5.1-0.8,10.1-1.3,15.2-1.4c6.6-0.1,13.2-0.3,19.8-0.3c4.7,0,9.5,0.1,14.2,0.5
							c5.2,0.4,10.4,1.1,15.4,3c3.8,1.4,7.2,3.5,10.3,5.9c2.7,2.1,5.1,4.5,7,7.4c2.9,4.3,4.7,9,5.6,14.1c1.2,6.4,1.4,12.8,1.4,19.2
							c0,17.3,0,34.5,0,51.8c0,0.8,0,1.6,0,2.3c-0.8,0.9-1.6,0.7-2.4,0.7c-5.2,0-10.4,0-15.6,0c-10.2,0-20.5,0-30.7,0
							c-0.9,0-1.7-0.2-2.8-0.3c0-1,0-1.8,0-2.6c0-15.7,0-31.4-0.1-47.1c0-2.7-0.1-5.5-0.9-8.1c-0.2-0.8-0.4-1.6-0.8-2.3
							c-1.1-2.2-2.8-3.6-5.3-3.8c-5.5-0.5-8.5,1-9.9,5.9c-0.5,1.6-0.7,3.3-0.9,5c-0.1,0.8-0.1,1.6-0.1,2.4c0,16.8,0,33.6,0,50.5
							c0,1,0,1.9,0.2,2.9c0.4,2.8,1.9,4.9,4.3,6.5c3.7,2.4,7.5,4.7,11.3,7.1c11.4,7,22.8,14,34.2,21.1c3.8,2.4,7.3,5.1,10.4,8.3
							c3.4,3.6,5.6,7.9,7,12.7c1,3.5,1.5,7.1,1.6,10.7c0.2,4.9,0.5,9.9,0.5,14.9c0,23.2,0,46.4-0.1,69.6c0,4.4-0.4,8.9-1.1,13.2
							c-0.5,3.2-1.2,6.2-2.3,9.2c-1.3,3.5-3.2,6.7-5.7,9.4c-4,4.4-8.5,8.1-14.2,10.1c-2.8,1-5.7,1.8-8.6,2.3
							c-5.9,1.1-11.9,1.5-17.9,1.5c-6.7,0.1-13.3,0.3-20,0.2c-6.8-0.1-13.6-0.3-20.3-1.6c-6.3-1.3-12.1-3.9-17.2-7.8
							c-6.9-5.2-10.8-12.2-12.5-20.6c-1.1-5.5-1.5-11.1-1.5-16.8c-0.1-25.7,0-51.4,0-77.1V178.1L1200.3,178.1z"/>
						<path class="st0" d="M457,104.7c-2,0.6-35.7,0.8-49.4,0.4c-0.6,0-1.1-0.1-1.9-0.2v-2.5c0-12,0-24,0-36
							c0-5.2-0.1-10.4-0.5-15.5c-0.1-2.1-0.8-4.2-1.6-6.2c-0.8-1.9-2.3-3.1-4.5-3.6c-2-0.4-3.8-0.3-5.7,0.2
							c-2.3,0.6-3.7,2.2-4.5,4.3c-1,2.6-1.4,5.3-1.4,8c0,5.1,0,10.2,0,15.3c0,11.9,0,23.9,0,35.8c0,0.8,0,1.6,0.1,2.4
							c0.4,3,1.8,5.4,4.5,7.1c4.3,2.7,8.7,5.4,13,8.1c10.5,6.4,21,12.8,31.4,19.3c4,2.5,7.7,5.2,11,8.6c3.7,3.9,6.3,8.4,7.5,13.6
							c0.7,3.2,1.1,6.4,1.5,9.6c0.8,6.3,0.5,12.6,0.5,18.9c0,22.5,0,45.1-0.1,67.6c0,5.4-0.6,10.8-1.8,16.1
							c-1.8,7.9-6.1,14-12.2,19.1c-5.5,4.6-11.9,6.7-18.8,7.8c-12.6,1.9-25.3,1.6-37.9,1.5c-4.7,0-9.5-0.4-14.2-0.9
							c-9.5-1-18.1-4.4-25.2-11c-4.4-4.1-7.3-9.1-8.8-14.9c-0.8-2.8-1.1-5.8-1.6-8.7c-0.9-4.9-0.6-9.9-0.6-14.9
							c0-24.4,0-48.9,0-73.4c0-0.9,0-1.7,0-2.6c2.2-0.5,49.8-0.4,51.7,0.1c0,0.8,0,1.7,0,2.5c0,21.8,0,43.6,0,65.4
							c0,3.2-0.1,6.4,0.8,9.5c0.2,0.6,0.3,1.1,0.5,1.7c1,3.7,4.3,6.1,8.4,5.8c3.6-0.2,6.1-2.5,7.3-6.4c0.7-2.1,0.9-4.3,1-6.6
							c0.1-9.5,0.2-19,0.3-28.4c0-8.4,0.1-16.9,0-25.3c0-5-0.2-10.1-0.4-15.1c-0.2-4.6-2-8.5-6-11c-5.3-3.3-10.5-6.6-15.9-9.8
							c-7.3-4.4-14.7-8.6-22-13c-4.9-3-9.9-6-14.1-10c-4.6-4.4-7.9-9.5-9.5-15.8c-0.7-3-1.2-6.1-1.5-9.2c-0.5-4.4-0.5-8.9-0.5-13.3
							c0-19,0-37.9,0.1-56.9c0-6.1,0.9-12.1,2.8-17.9c2-6.1,5.7-11,10.9-14.7c5-3.6,10.5-6.1,16.5-7.3c2.7-0.6,5.5-0.9,8.3-1.2
							c3.4-0.3,6.8-0.4,10.2-0.5c6.3-0.2,12.6-0.3,18.9-0.3c4.6,0,9.2,0.1,13.8,0.5c5.6,0.5,11.2,1.1,16.5,3.3
							c3.2,1.3,6,3.1,8.8,5.2c3.2,2.4,5.9,5.1,8.1,8.5c2.5,4,4.1,8.3,5,12.9c1.2,6.1,1.4,12.3,1.4,18.6c0,17.6,0,35.3,0,52.9
							L457,104.7L457,104.7z"/>
						<path class="st0" d="M1027,178.1c0.6-0.1,1-0.3,1.5-0.3c16.7,0,33.3,0,50.2,0c0,0.9,0.1,1.7,0.1,2.4c0,26.5,0,52.9-0.1,79.4
							c0,3.8-0.2,7.7-0.6,11.5c-0.6,5.4-2.5,10.3-5.4,14.9c-4.3,6.7-10.2,11.5-17.6,14.3c-4.8,1.8-9.8,2.8-14.9,3.3
							c-10.1,1-20.1,1-30.2,0.8c-7-0.1-13.9-0.3-20.8-1.6c-5.1-1-9.8-2.8-14.2-5.6c-1.7-1.1-3.5-2.3-5-3.6
							c-5.6-4.6-8.9-10.5-10.6-17.5c-1.5-5.9-1.8-11.8-1.8-17.8c0-48.9,0-97.8,0-146.7c0-22,0-44,0-66c0-4.9,0.3-9.8,1.3-14.6
							c2.1-10.6,7.8-18.7,17.1-24.2c5.5-3.2,11.4-4.8,17.7-5.3c4.1-0.3,8.1-0.4,12.2-0.6c3.4-0.1,6.8-0.3,10.2-0.3
							c7,0.1,14.1,0,21.1,0.5c6,0.4,12.1,1,17.8,3.4c9.4,3.8,16.5,10,20.3,19.6c1.6,4,2.6,8,3,12.2c0.3,3.3,0.5,6.6,0.5,10
							c0.1,18.9,0,37.8,0,56.7c0,0.7,0,1.4,0,2.1c-1.9,0.4-49.4,0.5-51.7,0c0-0.7-0.1-1.5-0.1-2.3c0-16.1,0-32.2-0.1-48.2
							c0-2.7-0.5-5.3-1.4-7.8c-1.9-5.5-8.2-6.7-12.3-3.9c-1,0.7-1.8,1.8-2.4,2.8c-1,1.8-1.7,3.8-1.7,5.9c-0.1,3.9-0.3,7.8-0.4,11.8
							c0,58.6,0,117.2,0,175.9c0,4.7,0.2,9.3,0.4,14c0.1,2.5,0.8,5,2.2,7.1c3.5,5.2,11.2,4.2,13.5-0.9c1.2-2.7,1.7-5.5,1.9-8.4
							c0.1-1.8,0.1-3.7,0.1-5.6c0-21.5,0-43,0-64.5C1027,179.9,1027,179,1027,178.1"/>
						<path class="st0" d="M798,0.9h51.6c0.1,0.4,0.3,0.7,0.3,1.1c0,0.7,0,1.3,0,2c0,83.5,0,167,0,250.5c0,6.6-0.3,13.2-1.6,19.7
							c-2.2,11-8.2,19.1-18.1,24.4c-4.8,2.5-9.9,3.8-15.2,4.5c-7.9,1.1-15.8,1.3-23.7,1.3c-5.2,0-10.4-0.1-15.6-0.4
							c-6.3-0.4-12.5-1.1-18.5-3.3c-7.3-2.7-13.1-7.5-17.7-13.6c-2.5-3.3-3.9-7.3-4.7-11.4c-0.9-4.8-1.4-9.6-1.4-14.5
							c0-27.2,0-54.4,0-81.6c0-0.6,0.1-1.3,0.1-2H780c0,0.9,0.1,1.8,0.1,2.6c0,21.5,0,43,0,64.5c0,3.2,0.2,6.5,0.5,9.8
							c0.1,1.4,0.5,2.8,1,4.1c1.5,4.2,4.9,5.7,9.2,5.1c3.5-0.5,5.4-2.8,6.2-6.1c0.5-2,0.9-4,0.9-6.1c0-2.4,0-4.9,0-7.3
							c0-79.9,0-159.9,0-239.9C798,3,798,2.1,798,0.9"/>
						<path class="st0" d="M913.9,262.5c2.8,0.1,5.5,0,8.3,0c2.7,0,5.5,0,8.2,0s5.3,0,8,0s5.5,0,8,0c0.3,0.3,0.3,0.4,0.4,0.4
							s0.1,0.1,0.1,0.2c0,12.7,0.1,25.3,0.1,38c0,0.5,0,1-0.1,1.5c0,0.1-0.1,0.2-0.2,0.4c-1.7,0.4-81.9,0.5-84.4,0.1
							c-0.4-1.7-0.4-300-0.1-302.2c1.7-0.3,81.9-0.4,84.4-0.1c0,0.1,0.1,0.1,0.2,0.2s0.1,0.1,0.1,0.2c0,13,0.1,25.9,0.1,38.9
							c0,0.4-0.1,0.7-0.1,1.3c-0.8,0-1.6,0.1-2.4,0.1c-9.3,0-18.7,0-28,0c-0.8,0-1.6,0-2.6,0c0,1.1-0.1,2-0.1,2.8
							c0,15.6,0,31.1,0,46.7v23.1c0,0.4,0,0.9,0,1.3c0.1,1.6,0.3,1.9,2,1.9c0.4,0,0.9,0,1.3,0c9,0,18.1,0,27.2,0h2.3
							c0.2,0.2,0.2,0.3,0.3,0.3s0.1,0.1,0.1,0.2c0,12.9,0.1,25.8,0.1,38.7c0,0.4-0.1,0.7-0.1,1.3c-0.8,0-1.6,0.1-2.4,0.1
							c-9.3,0-18.7,0-28,0h-2.2c-0.3,0.3-0.3,0.4-0.4,0.4s-0.1,0.1-0.1,0.2c0,0.3-0.1,0.6-0.1,0.9c0,33.9,0,67.9,0,101.8
							C913.7,261.7,913.8,261.9,913.9,262.5"/>
						<path class="st0" d="M1194.4,0.8v40.8c-3.2,0.1-6.3,0-9.4,0s-6.2,0-9.3,0h-9.4c-0.1,0.7-0.2,1.2-0.3,1.7c0,0.6,0,1.2,0,1.8
							v255.2v2.8c-1.9,0.4-49.2,0.5-51.7,0.1V41.9c-1-0.1-1.9-0.2-2.7-0.2c-7.7,0-15.4,0-23.1,0h-2.3c-0.5-1.8-0.6-37.8-0.2-40.6
							c0.1,0,0.1-0.1,0.2-0.1s0.1-0.1,0.2-0.1c35.3,0,70.6-0.1,105.9-0.1C1192.8,0.8,1193.5,0.8,1194.4,0.8"/>
					</g>
				</g>
			</g>
		</g>
		<g>
			<path d="M15.3,398.5v15.7c0,3.4,0.4,5.5,1.1,6.3c1,1.2,2.5,1.7,4.6,1.7h2.1v1.5H0v-1.5h2c2.3,0,3.9-0.7,4.9-2.2
				c0.5-0.8,0.8-2.8,0.8-5.8v-34.8c0-3.4-0.4-5.5-1.1-6.3c-1-1.2-2.6-1.7-4.6-1.7H0v-1.5h19.7c4.8,0,8.6,0.5,11.4,1.5s5.1,2.7,7,5
				c1.9,2.4,2.9,5.1,2.9,8.4c0,4.4-1.4,8-4.3,10.7c-2.9,2.8-7,4.1-12.3,4.1c-1.3,0-2.7-0.1-4.2-0.3C18.7,399.2,17,398.9,15.3,398.5z
				 M15.3,396.2c1.4,0.3,2.6,0.5,3.7,0.6s2,0.2,2.8,0.2c2.8,0,5.1-1.1,7.1-3.2s3-4.9,3-8.3c0-2.3-0.5-4.5-1.4-6.5
				c-1-2-2.3-3.5-4-4.5s-3.7-1.5-6-1.5c-1.3,0-3.1,0.3-5.2,0.8V396.2z"/>
			<path d="M64.2,386.3c5.5,0,9.9,2.1,13.3,6.3c2.8,3.6,4.2,7.7,4.2,12.3c0,3.3-0.8,6.5-2.3,9.9c-1.6,3.3-3.7,5.8-6.4,7.5
				s-5.8,2.5-9.1,2.5c-5.5,0-9.8-2.2-13.1-6.5c-2.7-3.7-4.1-7.8-4.1-12.4c0-3.3,0.8-6.6,2.5-9.9s3.8-5.7,6.5-7.3
				S61.2,386.3,64.2,386.3z M63,388.9c-1.4,0-2.8,0.4-4.2,1.2c-1.4,0.8-2.6,2.3-3.4,4.4c-0.9,2.1-1.3,4.8-1.3,8.1
				c0,5.3,1.1,9.9,3.2,13.7c2.1,3.8,4.9,5.8,8.3,5.8c2.6,0,4.7-1.1,6.4-3.2c1.7-2.1,2.5-5.8,2.5-10.9c0-6.5-1.4-11.5-4.2-15.2
				C68.3,390.1,65.9,388.9,63,388.9z"/>
			<path d="M85,387.3h15.2v1.5c-1.4,0.1-2.3,0.4-2.8,0.8c-0.4,0.4-0.7,1-0.7,1.7c0,0.8,0.2,1.8,0.7,3l7.8,20.9l7.8-17l-2.1-5.4
				c-0.6-1.6-1.5-2.7-2.5-3.3c-0.6-0.4-1.7-0.6-3.3-0.7v-1.5h17.3v1.5c-1.9,0.1-3.3,0.4-4,1c-0.5,0.4-0.8,1.1-0.8,2
				c0,0.5,0.1,1.1,0.3,1.6l8.3,20.9l7.7-20.1c0.5-1.4,0.8-2.6,0.8-3.4c0-0.5-0.3-1-0.8-1.3s-1.5-0.6-3-0.7v-1.5h11.5v1.5
				c-2.3,0.3-4,1.9-5.1,4.7l-12.1,31.3h-1.6l-9.1-23.2l-10.6,23.2h-1.5l-11.7-30.6c-0.8-1.9-1.5-3.2-2.3-3.9
				c-0.7-0.7-1.9-1.2-3.5-1.5v-1.5H85z"/>
			<path d="M151.9,401c0,5.4,1.3,9.6,3.9,12.7c2.6,3.1,5.8,4.6,9.3,4.6c2.4,0,4.5-0.7,6.2-2c1.8-1.3,3.2-3.6,4.4-6.7l1.2,0.8
				c-0.6,3.6-2.2,6.9-4.8,9.9c-2.7,3-6,4.5-10,4.5c-4.4,0-8.1-1.7-11.2-5.1c-3.1-3.4-4.7-8-4.7-13.7c0-6.2,1.6-11.1,4.8-14.5
				c3.2-3.5,7.2-5.2,12-5.2c4.1,0,7.4,1.3,10,4s3.9,6.3,3.9,10.8L151.9,401L151.9,401z M151.9,398.7h16.8c-0.1-2.3-0.4-4-0.8-4.9
				c-0.7-1.5-1.6-2.6-3-3.5c-1.3-0.8-2.7-1.3-4.1-1.3c-2.2,0-4.2,0.9-5.9,2.6C153.2,393.3,152.2,395.7,151.9,398.7z"/>
			<path d="M192.5,386.3v8.2c3-5.5,6.2-8.2,9.4-8.2c1.5,0,2.7,0.4,3.6,1.3s1.4,1.9,1.4,3.1c0,1-0.3,1.9-1,2.6s-1.5,1.1-2.5,1.1
				c-0.9,0-2-0.5-3.1-1.4c-1.2-0.9-2-1.4-2.6-1.4c-0.5,0-1,0.3-1.5,0.8c-1.2,1.1-2.4,2.9-3.7,5.4v17.4c0,2,0.3,3.5,0.8,4.6
				c0.3,0.7,1,1.3,1.8,1.8c0.9,0.5,2.1,0.7,3.8,0.7v1.4h-18.6v-1.4c1.9,0,3.2-0.3,4.1-0.9c0.7-0.4,1.1-1.1,1.4-2
				c0.1-0.4,0.2-1.7,0.2-3.9v-14.1c0-4.2-0.1-6.8-0.3-7.6c-0.2-0.8-0.5-1.4-1-1.8s-1-0.6-1.7-0.6c-0.8,0-1.7,0.2-2.8,0.6l-0.4-1.4
				l11-4.4L192.5,386.3L192.5,386.3z"/>
			<path d="M215,401c0,5.4,1.3,9.6,3.9,12.7c2.6,3.1,5.8,4.6,9.3,4.6c2.4,0,4.5-0.7,6.2-2c1.8-1.3,3.2-3.6,4.4-6.7l1.2,0.8
				c-0.6,3.6-2.2,6.9-4.8,9.9c-2.7,3-6,4.5-10,4.5c-4.4,0-8.1-1.7-11.2-5.1c-3.1-3.4-4.7-8-4.7-13.7c0-6.2,1.6-11.1,4.8-14.5
				c3.2-3.5,7.2-5.2,12-5.2c4.1,0,7.4,1.3,10,4s3.9,6.3,3.9,10.8L215,401L215,401z M215,398.7h16.8c-0.1-2.3-0.4-4-0.8-4.9
				c-0.7-1.5-1.6-2.6-3-3.5c-1.3-0.8-2.7-1.3-4.1-1.3c-2.2,0-4.2,0.9-5.9,2.6C216.3,393.3,215.3,395.7,215,398.7z"/>
			<path d="M270.7,419.6c-1.8,1.9-3.5,3.2-5.2,4s-3.5,1.2-5.5,1.2c-4,0-7.4-1.7-10.4-5s-4.4-7.6-4.4-12.8c0-5.2,1.6-10,4.9-14.3
				c3.3-4.3,7.5-6.5,12.7-6.5c3.2,0,5.8,1,7.9,3.1v-6.7c0-4.2-0.1-6.7-0.3-7.7c-0.2-1-0.5-1.6-0.9-1.9s-1-0.5-1.6-0.5
				c-0.7,0-1.6,0.2-2.7,0.6l-0.5-1.4l10.8-4.4h1.8v42c0,4.3,0.1,6.9,0.3,7.8c0.2,0.9,0.5,1.6,1,2c0.4,0.4,0.9,0.6,1.5,0.6
				c0.7,0,1.7-0.2,2.9-0.7l0.4,1.4l-10.8,4.5h-1.8L270.7,419.6L270.7,419.6z M270.7,416.8v-18.7c-0.2-1.8-0.6-3.4-1.4-4.9
				s-1.8-2.6-3.2-3.4c-1.3-0.8-2.6-1.1-3.8-1.1c-2.3,0-4.4,1-6.2,3.1c-2.4,2.8-3.6,6.8-3.6,12.1c0,5.3,1.2,9.4,3.5,12.3
				c2.3,2.8,4.9,4.3,7.8,4.3C266.1,420.5,268.4,419.2,270.7,416.8z"/>
			<path d="M341,396.2c3.7,0.8,6.5,2.1,8.4,3.8c2.6,2.4,3.9,5.4,3.9,8.9c0,2.7-0.8,5.2-2.5,7.7c-1.7,2.4-4,4.2-7,5.4
				c-3,1.1-7.5,1.7-13.5,1.7h-25.4v-1.5h2c2.2,0,3.9-0.7,4.8-2.1c0.6-0.9,0.9-2.9,0.9-5.9v-34.8c0-3.3-0.4-5.4-1.2-6.3
				c-1-1.2-2.6-1.7-4.6-1.7h-2v-1.5H328c4.3,0,7.8,0.3,10.4,1c4,1,7,2.6,9.1,5.1c2.1,2.4,3.1,5.2,3.1,8.4c0,2.7-0.8,5.1-2.5,7.2
				C346.6,393.6,344.2,395.2,341,396.2z M320.2,394.1c1,0.2,2.1,0.3,3.4,0.4s2.6,0.1,4.1,0.1c3.9,0,6.8-0.4,8.7-1.2
				c1.9-0.8,3.4-2.1,4.5-3.8c1-1.7,1.5-3.6,1.5-5.6c0-3.1-1.3-5.8-3.9-8.1c-2.6-2.2-6.3-3.3-11.2-3.3c-2.6,0-5,0.3-7.1,0.9V394.1z
				 M320.2,419.8c3.1,0.7,6.1,1.1,9.1,1.1c4.8,0,8.4-1.1,11-3.2c2.5-2.2,3.8-4.8,3.8-8c0-2.1-0.6-4.1-1.7-6s-3-3.5-5.6-4.6
				s-5.7-1.7-9.5-1.7c-1.6,0-3,0-4.2,0.1s-2.1,0.1-2.8,0.3L320.2,419.8L320.2,419.8z"/>
			<path d="M358.1,387.3H375v1.5h-0.8c-1.2,0-2.1,0.3-2.7,0.8s-0.9,1.2-0.9,1.9c0,1,0.4,2.5,1.3,4.3l8.9,18.3l8.1-20.1
				c0.4-1.1,0.7-2.2,0.7-3.2c0-0.5-0.1-0.8-0.3-1.1c-0.2-0.3-0.5-0.5-1-0.7s-1.2-0.3-2.4-0.3v-1.5h11.8v1.5c-1,0.1-1.7,0.3-2.3,0.6
				c-0.5,0.3-1.1,0.9-1.7,1.8c-0.2,0.4-0.7,1.4-1.3,3.1l-14.8,36.3c-1.4,3.5-3.3,6.2-5.6,8c-2.3,1.8-4.5,2.7-6.7,2.7
				c-1.6,0-2.8-0.5-3.9-1.3c-1-0.9-1.5-1.9-1.5-3.1c0-1.1,0.4-2,1.1-2.7s1.7-1,3-1c0.9,0,2.1,0.3,3.6,0.9c1.1,0.4,1.7,0.6,2,0.6
				c0.8,0,1.7-0.4,2.6-1.2c0.9-0.8,1.9-2.4,2.8-4.8l2.6-6.3l-13.1-27.4c-0.4-0.8-1-1.8-1.9-3.1c-0.7-0.9-1.2-1.5-1.6-1.9
				c-0.6-0.4-1.6-0.8-2.9-1.1L358.1,387.3L358.1,387.3z"/>
			<path d="M427,401.8c7.2,5.5,17.5,7.6,25.4,7.6c6.7,0,11.1-0.8,11.1-3.3c0-2.9-4.6-3.3-18-4.6c-12.3-1.3-24.6-4.7-24.6-17
				c0-13.2,12.4-20.2,30.3-20.2c13.4,0,25.2,3.7,31.7,8.2l-10.2,13.3c-5.2-3.9-14.1-6.6-23.1-6.6c-5.7,0-9.8,0.7-9.8,3.3
				c0,2.4,4.5,2.8,17.4,4.2c11.6,1.2,26.5,4.1,26.5,17.5c0,14.1-13.3,20.4-32.4,20.4c-12,0-27.8-3.2-34.4-8.5L427,401.8z"/>
			<path d="M486.7,398.7v-33.4h18.5v31.3c0,8.2,5,12,13.2,12c8.1,0,13.2-3.8,13.2-12v-31.3H550v33.4c0,16.5-12,25.9-31.6,25.9
				C498.7,424.7,486.7,415.3,486.7,398.7z"/>
			<path d="M595.9,380.8v42.9h-18.5v-42.9h-23.7v-15.4h65.9v15.4H595.9z"/>
			<path d="M664.4,380.8v42.9H646v-42.9h-23.7v-15.4h65.9v15.4H664.4z"/>
			<path d="M749.6,365.3v15.4h-38.8v6H745v15h-34.1v6.4h38.8v15.4h-56.9v-58.4h56.8V365.3z"/>
			<path d="M773,423.7h-18.5v-58.4h38.4c15,0,24.6,7.4,24.6,20.2c0,8.5-4.6,15-12.5,18.1l13.7,20h-21.3l-11.7-17.9H773V423.7z
				 M792,391.5c4.8,0,7.3-2.2,7.3-5.4c0-3.3-2.5-5.5-7.3-5.5h-19v10.9H792z"/>
			<path d="M851.9,401.8c7.2,5.5,17.5,7.6,25.4,7.6c6.7,0,11.1-0.8,11.1-3.3c0-2.9-4.6-3.3-18-4.6c-12.3-1.3-24.6-4.7-24.6-17
				c0-13.2,12.4-20.2,30.3-20.2c13.4,0,25.2,3.7,31.7,8.2l-10.2,13.3c-5.2-3.9-14.1-6.6-23.1-6.6c-5.7,0-9.8,0.7-9.8,3.3
				c0,2.4,4.5,2.8,17.4,4.2c11.6,1.2,26.5,4.1,26.5,17.5c0,14.1-13.3,20.4-32.4,20.4c-12,0-27.8-3.2-34.4-8.5L851.9,401.8z"/>
			<path d="M959.3,365.3h20.9l-28.3,35.9v22.4h-18.5v-22.4l-28.3-35.9h21.7l16.3,20.4L959.3,365.3z"/>
			<path d="M981.3,401.8c7.2,5.5,17.5,7.6,25.4,7.6c6.7,0,11.1-0.8,11.1-3.3c0-2.9-4.6-3.3-18-4.6c-12.3-1.3-24.6-4.7-24.6-17
				c0-13.2,12.4-20.2,30.3-20.2c13.4,0,25.2,3.7,31.7,8.2l-10.2,13.3c-5.2-3.9-14.1-6.6-23.1-6.6c-5.7,0-9.8,0.7-9.8,3.3
				c0,2.4,4.5,2.8,17.4,4.2c11.6,1.2,26.5,4.1,26.5,17.5c0,14.1-13.3,20.4-32.4,20.4c-12,0-27.8-3.2-34.4-8.5L981.3,401.8z"/>
			<path d="M1081.3,380.8v42.9h-18.5v-42.9h-23.7v-15.4h65.9v15.4H1081.3z"/>
			<path d="M1166.5,365.3v15.4h-38.8v6h34.1v15h-34.1v6.4h38.8v15.4h-56.9v-58.4h56.9V365.3z"/>
			<path d="M1205,423.7l-15.6-38.8v38.8h-18v-58.4h27.2l13.9,35.7l13.9-35.7h26.9v58.4h-18v-38.8l-15.6,38.8H1205z"/>
			<path d="M1265,401.8c7.2,5.5,17.5,7.6,25.4,7.6c6.7,0,11.1-0.8,11.1-3.3c0-2.9-4.6-3.3-18-4.6c-12.3-1.3-24.6-4.7-24.6-17
				c0-13.2,12.4-20.2,30.3-20.2c13.4,0,25.2,3.7,31.7,8.2l-10.2,13.3c-5.2-3.9-14.1-6.6-23.1-6.6c-5.7,0-9.8,0.7-9.8,3.3
				c0,2.4,4.5,2.8,17.4,4.2c11.6,1.2,26.5,4.1,26.5,17.5c0,14.1-13.3,20.4-32.4,20.4c-12,0-27.8-3.2-34.4-8.5L1265,401.8z"/>
		</g>
	</g>
	<g>
		<g>
			<g>
				<defs>
					<path id="SVGID_1_" d="M94.2,165.3c-2.1,2.1-3.8,4.4-5.2,6.8c-0.2,0.4-0.4,0.9-0.7,1.3c-0.9,1.5-2,2.9-3.4,4.1
						c-2.9,2.6-6.8,4.2-11,4.2c-4.2,0-8.1-1.6-11.1-4.2c-1.4-1.2-2.6-2.7-3.5-4.3c-0.1-0.2-0.3-0.5-0.4-0.7
						c-5.3-9.7-15.7-16.3-27.6-16.3C14.1,156.1,0,170.2,0,187.5C0,204.9,14.1,219,31.5,219c11.8,0,22.1-6.5,27.5-16.2
						c0.2-0.4,0.4-0.7,0.6-1c0.9-1.6,2.1-3,3.4-4.1c2.9-2.6,6.8-4.2,11-4.2h0c8.2,0,10.7,12,1.9,25.5h0c-1.8,2.7-3.8,5.1-6.1,7.3
						c0,0,0,0,0,0c-2.1,2.1-4.4,4-6.9,5.6c-8.6,5.8-19.3,9.1-31.5,9.1c-3.8,0-7.6,0.7-11.2,2.1c0,0,0,0,0,0c-4,1.5-7.8,3.9-11,7.2
						C3.1,256.4,0,264.5,0,272.5c0,8.1,3.1,16.1,9.2,22.2c6.1,6.1,14.2,9.2,22.2,9.2s16.1-3.1,22.2-9.2c2.1-2.1,3.8-4.4,5.2-6.9
						c0,0,0,0,0,0c0.2-0.4,0.4-0.8,0.6-1.1c0.9-1.6,2.1-3,3.4-4.1c2.9-2.6,6.8-4.2,11-4.2c4.2,0,8.1,1.6,11,4.2
						c1.4,1.2,2.5,2.6,3.4,4.2c0,0,0,0,0,0c0.2,0.3,0.3,0.6,0.5,0.9c5.4,9.7,15.7,16.2,27.5,16.2c17.4,0,31.5-14.1,31.5-31.5
						c0-17.4-14.1-31.5-31.5-31.5c-11.8,0-22,6.5-27.4,16.1c0,0,0,0,0,0c-0.2,0.4-0.4,0.8-0.7,1.2c-0.9,1.5-2,2.9-3.4,4.1
						c-2.9,2.6-6.8,4.2-11,4.2c-8.2,0-10.7-12-1.9-25.5c1.8-2.7,3.8-5.1,6.1-7.4c9.4-9.3,22.7-14.7,38.3-14.7
						c8.1,0,16.1-3.1,22.2-9.2c6.1-6.1,9.2-14.2,9.2-22.2c0-8.1-3.1-16.1-9.2-22.2c-6.1-6.1-14.2-9.2-22.2-9.2
						C108.4,156.1,100.4,159.1,94.2,165.3 M244,172.4c-0.1,0.2-0.3,0.5-0.4,0.7c-0.9,1.6-2.1,3.1-3.5,4.3c-2.9,2.6-6.8,4.2-11.1,4.2
						c-4.2,0-8.1-1.6-11-4.2c-1.3-1.2-2.5-2.5-3.4-4.1c-0.2-0.4-0.5-0.8-0.7-1.3c-1.4-2.4-3.1-4.7-5.2-6.8
						c-6.1-6.1-14.2-9.2-22.2-9.2c-8.1,0-16.1,3.1-22.2,9.2c-6.1,6.1-9.2,14.2-9.2,22.2c0,8.1,3.1,16.1,9.2,22.2
						c6.1,6.1,14.2,9.2,22.2,9.2c15.6,0,28.9,5.4,38.3,14.7c2.3,2.2,4.3,4.7,6.1,7.4c8.7,13.6,6.3,25.5-1.9,25.5
						c-4.2,0-8.1-1.6-11-4.2c-1.3-1.2-2.5-2.5-3.4-4.1c-0.2-0.4-0.5-0.8-0.6-1.2c0,0,0,0,0,0c-5.4-9.6-15.7-16.1-27.4-16.1
						c-17.4,0-31.5,14.1-31.5,31.5c0,17.4,14.1,31.5,31.5,31.5c11.8,0,22.1-6.5,27.5-16.2c0.2-0.3,0.3-0.6,0.5-0.9c0,0,0,0,0,0
						c0.9-1.6,2.1-3,3.4-4.2c2.9-2.6,6.8-4.2,11-4.2c4.2,0,8.1,1.6,11,4.2c1.3,1.2,2.5,2.6,3.4,4.1c0.2,0.4,0.4,0.7,0.6,1.1
						c0,0,0,0,0,0c1.4,2.5,3.1,4.8,5.2,6.9c6.1,6.1,14.2,9.2,22.2,9.2c8.1,0,16.1-3.1,22.2-9.2c6.1-6.1,9.2-14.2,9.2-22.2
						c0-8.1-3.1-16.1-9.2-22.2c-3.2-3.2-7-5.6-11-7.2c0,0,0,0,0,0c-3.6-1.4-7.4-2.1-11.2-2.1c-12.1,0-22.8-3.3-31.5-9.1
						c-2.5-1.7-4.8-3.6-6.9-5.6c0,0,0,0,0,0c-2.3-2.2-4.3-4.7-6.1-7.3h0c-8.7-13.6-6.3-25.5,1.9-25.5h0c4.2,0,8.1,1.6,11,4.2
						c1.3,1.2,2.5,2.6,3.4,4.1c0.2,0.3,0.4,0.7,0.6,1c5.4,9.6,15.7,16.2,27.5,16.2c17.4,0,31.5-14.1,31.5-31.5
						c0-17.4-14.1-31.5-31.5-31.5C259.6,156.1,249.3,162.7,244,172.4 M116.5,1.3c-11.8,0-22.1,6.5-27.5,16.2
						c-0.2,0.3-0.3,0.6-0.5,0.9c0,0,0,0,0,0c-0.9,1.6-2.1,3-3.4,4.2c-2.9,2.6-6.8,4.2-11,4.2c-4.2,0-8.1-1.6-11-4.2
						c-1.3-1.2-2.5-2.6-3.4-4.1c-0.2-0.4-0.4-0.7-0.6-1.1c0,0,0,0,0,0c-1.4-2.5-3.1-4.8-5.2-6.9c-6.1-6.1-14.2-9.2-22.2-9.2
						S15.4,4.4,9.2,10.5C3.1,16.7,0,24.7,0,32.8S3.1,48.9,9.2,55c3.2,3.2,7,5.6,11,7.2c0,0,0,0,0,0c3.6,1.4,7.4,2.1,11.2,2.1
						c12.1,0,22.8,3.3,31.5,9.1c2.5,1.7,4.8,3.6,6.9,5.6c0,0,0,0,0,0c2.3,2.2,4.3,4.7,6.1,7.4h0c8.7,13.6,6.3,25.5-1.9,25.5h0
						c-4.2,0-8.1-1.6-11-4.2c-1.3-1.2-2.5-2.6-3.4-4.1c-0.2-0.3-0.4-0.7-0.6-1c-5.4-9.6-15.7-16.2-27.5-16.2
						C14.1,86.3,0,100.4,0,117.8c0,17.4,14.1,31.5,31.5,31.5c11.9,0,22.2-6.6,27.6-16.3c0.1-0.2,0.3-0.5,0.4-0.7
						c0.9-1.6,2.1-3.1,3.5-4.3c2.9-2.6,6.8-4.2,11.1-4.2c4.2,0,8.1,1.6,11,4.2c1.3,1.2,2.5,2.5,3.4,4.1c0.2,0.4,0.5,0.8,0.7,1.3
						c1.4,2.4,3.1,4.7,5.2,6.8c6.1,6.1,14.2,9.2,22.2,9.2c8.1,0,16.1-3.1,22.2-9.2c6.1-6.1,9.2-14.2,9.2-22.2
						c0-8.1-3.1-16.1-9.2-22.2c-6.1-6.1-14.2-9.2-22.2-9.2c-15.6,0-28.9-5.4-38.3-14.7c-2.3-2.2-4.3-4.7-6.1-7.4
						c-8.7-13.6-6.3-25.5,1.9-25.5c4.2,0,8.1,1.6,11,4.2c1.3,1.2,2.5,2.5,3.4,4.1c0.2,0.4,0.5,0.8,0.7,1.2c0,0,0,0,0,0
						c5.4,9.6,15.7,16.1,27.4,16.1c17.4,0,31.5-14.1,31.5-31.5C147.9,15.4,133.8,1.3,116.5,1.3z M271.5,1.3
						c-8.1,0-16.1,3.1-22.2,9.2c-2.1,2.1-3.8,4.4-5.2,6.9c0,0,0,0,0,0c-0.2,0.4-0.4,0.8-0.6,1.1c-0.9,1.6-2.1,3-3.4,4.1
						c-2.9,2.6-6.8,4.2-11,4.2c-4.2,0-8.1-1.6-11-4.2c-1.4-1.2-2.5-2.6-3.4-4.2c0,0,0,0,0,0c-0.2-0.3-0.3-0.6-0.5-0.9
						c-5.4-9.7-15.7-16.2-27.5-16.2c-17.4,0-31.5,14.1-31.5,31.5c0,17.4,14.1,31.5,31.5,31.5c11.8,0,22-6.5,27.4-16.1c0,0,0,0,0,0
						c0.2-0.4,0.4-0.8,0.6-1.2c0.9-1.5,2-2.9,3.4-4.1c2.9-2.6,6.8-4.2,11-4.2c8.2,0,10.7,12,1.9,25.5c-1.8,2.7-3.8,5.1-6.1,7.4
						c-9.4,9.3-22.7,14.7-38.3,14.7c-8.1,0-16.1,3.1-22.2,9.2c-6.1,6.1-9.2,14.2-9.2,22.2c0,8.1,3.1,16.1,9.2,22.2
						c6.1,6.1,14.2,9.2,22.2,9.2c8.1,0,16.1-3.1,22.2-9.2c2.1-2.1,3.8-4.4,5.2-6.8c0.2-0.4,0.4-0.9,0.7-1.3c0.9-1.5,2-2.9,3.4-4.1
						c2.9-2.6,6.8-4.2,11-4.2c4.2,0,8.1,1.6,11.1,4.2c1.4,1.2,2.6,2.7,3.5,4.3c0.1,0.2,0.3,0.5,0.4,0.7c5.3,9.7,15.7,16.3,27.6,16.3
						c17.4,0,31.5-14.1,31.5-31.5c0-17.4-14.1-31.5-31.5-31.5c-11.8,0-22.1,6.5-27.5,16.2c-0.2,0.4-0.4,0.7-0.6,1
						c-0.9,1.6-2.1,3-3.4,4.1c-2.9,2.6-6.8,4.2-11,4.2h0c-8.2,0-10.7-12-1.9-25.5h0c1.8-2.7,3.8-5.1,6.1-7.4c0,0,0,0,0,0
						c2.1-2.1,4.4-4,6.9-5.6c8.6-5.8,19.3-9.1,31.5-9.1c3.8,0,7.6-0.7,11.2-2.1c0,0,0,0,0,0c4-1.5,7.8-3.9,11-7.2
						c6.1-6.1,9.2-14.2,9.2-22.2s-3.1-16.1-9.2-22.2C287.6,4.4,279.6,1.3,271.5,1.3z"/>
				</defs>
				<clipPath id="SVGID_00000087377718899054583590000005572787758791711410_">
					<use xlink:href="#SVGID_1_"  style="overflow:visible;"/>
				</clipPath>
				
					<linearGradient id="SVGID_00000103957813818903859040000009485989282356402848_" gradientUnits="userSpaceOnUse" x1="0.1013" y1="441.418" x2="0.5895" y2="441.418" gradientTransform="matrix(582.564 -582.564 -582.564 -582.564 257104.5156 257508.0781)">
					<stop  offset="0" style="stop-color:#E4B704"/>
					<stop  offset="0.1896" style="stop-color:#FC6B08"/>
					<stop  offset="0.38" style="stop-color:#E92C20"/>
					<stop  offset="0.5769" style="stop-color:#F4B9CB"/>
					<stop  offset="0.8101" style="stop-color:#84C8ED"/>
					<stop  offset="1" style="stop-color:#069D24"/>
				</linearGradient>
				
					<polygon style="clip-path:url(#SVGID_00000087377718899054583590000005572787758791711410_);fill:url(#SVGID_00000103957813818903859040000009485989282356402848_);" points="
					-151.3,152.7 151.5,-150.2 454.3,152.6 151.5,455.5 				"/>
			</g>
		</g>
	</g>
</g>
</svg>
