<?xml version="1.0" encoding="utf-8"?>
<!-- Generator: Adobe Illustrator 26.2.1, SVG Export Plug-In . SVG Version: 6.00 Build 0)  -->
<svg version="1.1" id="Layer_1" xmlns="http://www.w3.org/2000/svg" xmlns:xlink="http://www.w3.org/1999/xlink" x="0px" y="0px"
	 viewBox="0 0 620.61 620" style="enable-background:new 0 0 620.61 620;" xml:space="preserve">
<style type="text/css">
	.st0{fill:url(#SVGID_1_);}
</style>
<linearGradient id="SVGID_1_" gradientUnits="userSpaceOnUse" x1="19.0247" y1="601.2823" x2="601.5887" y2="18.7183">
	<stop  offset="0" style="stop-color:#f2f2eb"/>
	<stop  offset="0.1896" style="stop-color:#f2f2eb"/>
	<stop  offset="0.38" style="stop-color:#f2f2eb"/>
	<stop  offset="0.5769" style="stop-color:#f2f2eb"/>
	<stop  offset="0.8101" style="stop-color:#f2f2eb"/>
	<stop  offset="1" style="stop-color:#f2f2eb"/>
</linearGradient>
<path class="st0" d="M284.12,193c12.58,12.58,18.87,29.07,18.87,45.56c0,16.5-6.29,32.99-18.87,45.57
	c-12.58,12.58-29.07,18.87-45.57,18.87c-16.49,0-32.98-6.29-45.56-18.87c-4.26-4.26-7.79-8.97-10.61-13.96
	c-0.42-0.88-0.88-1.74-1.38-2.58c-1.85-3.13-4.18-5.95-6.89-8.33c-6.03-5.31-13.95-8.53-22.61-8.53c-8.68,0-16.6,3.23-22.64,8.56
	c-2.84,2.5-5.26,5.47-7.13,8.79c-0.29,0.49-0.56,1-0.81,1.51c-10.96,19.93-32.15,33.43-56.49,33.43C28.85,302.99,0,274.15,0,238.56
	c0-35.58,28.85-64.44,64.44-64.44c24.23,0,45.33,13.37,56.33,33.13c0.36,0.72,0.73,1.43,1.14,2.13c1.85,3.19,4.21,6.06,6.97,8.48
	c6.02,5.32,13.92,8.55,22.58,8.55h0.03c16.86-0.03,21.84-24.51,3.95-52.29h0.02c-3.68-5.45-7.87-10.48-12.51-15.05
	c0-0.01-0.01,0-0.01,0c-4.31-4.25-9.01-8.11-14.07-11.53c-17.64-11.94-39.61-18.66-64.44-18.66c-7.79,0-15.58-1.41-22.96-4.21
	c-0.01-0.01-0.01-0.01-0.01-0.01c-8.24-3.13-15.96-8.02-22.6-14.65C6.29,97.42,0,80.93,0,64.44s6.29-32.98,18.87-45.57
	C31.45,6.29,47.95,0,64.44,0S97.42,6.29,110,18.87c4.28,4.28,7.83,9.01,10.66,14.04c0.01,0.02,0.01,0.03,0.02,0.05
	c0.38,0.79,0.79,1.55,1.23,2.3c1.85,3.19,4.21,6.06,6.97,8.48c6.03,5.33,13.95,8.55,22.62,8.55c8.67,0,16.59-3.23,22.63-8.55
	c2.79-2.46,5.17-5.36,7.04-8.6c0.01-0.01,0.02-0.02,0.02-0.03c0.37-0.63,0.71-1.27,1.02-1.92C193.19,13.39,214.31,0,238.56,0
	c35.59,0,64.44,28.85,64.44,64.44c0,35.58-28.85,64.44-64.44,64.44c-24.13,0-45.16-13.26-56.19-32.89
	c-0.01-0.01-0.01-0.01-0.01-0.02c-0.41-0.85-0.85-1.68-1.33-2.49c-1.85-3.15-4.18-5.96-6.9-8.36c-6.03-5.31-13.95-8.53-22.61-8.53
	c-16.89,0-21.88,24.5-3.98,52.29c3.68,5.45,7.87,10.49,12.52,15.06c19.34,19.07,46.56,30.18,78.51,30.18
	C255.05,174.12,271.54,180.42,284.12,193z M336.49,193c-12.58,12.58-18.87,29.07-18.87,45.56c0,16.5,6.29,32.99,18.87,45.57
	c12.58,12.58,29.07,18.87,45.57,18.87c16.49,0,32.98-6.29,45.56-18.87c4.26-4.26,7.79-8.97,10.61-13.96
	c0.42-0.88,0.88-1.74,1.38-2.58c1.85-3.13,4.18-5.95,6.89-8.33c6.03-5.31,13.95-8.53,22.61-8.53c8.68,0,16.6,3.23,22.64,8.56
	c2.84,2.5,5.26,5.47,7.13,8.79c0.29,0.49,0.56,1,0.81,1.51c10.96,19.93,32.15,33.43,56.49,33.43c35.59,0,64.44-28.85,64.44-64.44
	c0-35.58-28.85-64.44-64.44-64.44c-24.23,0-45.33,13.37-56.33,33.13c-0.36,0.72-0.73,1.43-1.14,2.13c-1.85,3.19-4.21,6.06-6.97,8.48
	c-6.02,5.32-13.92,8.55-22.58,8.55h-0.03c-16.86-0.03-21.84-24.51-3.95-52.29h-0.02c3.68-5.45,7.87-10.48,12.51-15.05
	c0-0.01,0.01,0,0.01,0c4.31-4.25,9.01-8.11,14.07-11.53c17.64-11.94,39.61-18.66,64.44-18.66c7.79,0,15.58-1.41,22.96-4.21
	c0.01-0.01,0.01-0.01,0.01-0.01c8.24-3.13,15.96-8.02,22.6-14.65c12.58-12.58,18.87-29.07,18.87-45.56s-6.29-32.98-18.87-45.57
	C589.16,6.29,572.67,0,556.18,0c-16.49,0-32.98,6.29-45.56,18.87c-4.28,4.28-7.83,9.01-10.66,14.04c-0.01,0.02-0.01,0.03-0.02,0.05
	c-0.38,0.79-0.79,1.55-1.23,2.3c-1.85,3.19-4.21,6.06-6.97,8.48c-6.03,5.33-13.95,8.55-22.62,8.55c-8.67,0-16.59-3.23-22.63-8.55
	c-2.79-2.46-5.17-5.36-7.04-8.6c-0.01-0.01-0.02-0.02-0.02-0.03c-0.37-0.63-0.71-1.27-1.02-1.92C427.42,13.39,406.3,0,382.06,0
	c-35.59,0-64.44,28.85-64.44,64.44c0,35.58,28.85,64.44,64.44,64.44c24.13,0,45.16-13.26,56.19-32.89c0.01-0.01,0.01-0.01,0.01-0.02
	c0.41-0.85,0.85-1.68,1.33-2.49c1.85-3.15,4.18-5.96,6.9-8.36c6.03-5.31,13.95-8.53,22.61-8.53c16.89,0,21.88,24.5,3.98,52.29
	c-3.68,5.45-7.87,10.49-12.52,15.06C441.22,163,414,174.12,382.06,174.12C365.56,174.12,349.07,180.42,336.49,193z M284.12,427
	c12.58-12.58,18.87-29.07,18.87-45.56c0-16.5-6.29-32.99-18.87-45.57c-12.58-12.58-29.07-18.87-45.57-18.87
	c-16.49,0-32.98,6.29-45.56,18.87c-4.26,4.26-7.79,8.97-10.61,13.96c-0.42,0.88-0.88,1.74-1.38,2.58c-1.85,3.13-4.18,5.95-6.89,8.33
	c-6.03,5.31-13.95,8.53-22.61,8.53c-8.68,0-16.6-3.23-22.64-8.56c-2.84-2.5-5.26-5.47-7.13-8.79c-0.29-0.49-0.56-1-0.81-1.51
	c-10.96-19.93-32.15-33.43-56.49-33.43C28.85,317.01,0,345.85,0,381.44c0,35.58,28.85,64.44,64.44,64.44
	c24.23,0,45.33-13.37,56.33-33.13c0.36-0.72,0.73-1.43,1.14-2.13c1.85-3.19,4.21-6.06,6.97-8.48c6.02-5.32,13.92-8.55,22.58-8.55
	h0.03c16.86,0.03,21.84,24.51,3.95,52.29h0.02c-3.68,5.45-7.87,10.48-12.51,15.05c0,0.01-0.01,0-0.01,0
	c-4.31,4.25-9.01,8.11-14.07,11.53c-17.64,11.94-39.61,18.66-64.44,18.66c-7.79,0-15.58,1.41-22.96,4.21
	c-0.01,0.01-0.01,0.01-0.01,0.01c-8.24,3.13-15.96,8.02-22.6,14.65C6.29,522.58,0,539.07,0,555.56c0,16.49,6.29,32.98,18.87,45.57
	C31.45,613.71,47.95,620,64.44,620s32.98-6.29,45.56-18.87c4.28-4.28,7.83-9.01,10.66-14.04c0.01-0.02,0.01-0.03,0.02-0.05
	c0.38-0.79,0.79-1.55,1.23-2.3c1.85-3.19,4.21-6.06,6.97-8.48c6.03-5.33,13.95-8.55,22.62-8.55c8.67,0,16.59,3.23,22.63,8.55
	c2.79,2.46,5.17,5.36,7.04,8.6c0.01,0.01,0.02,0.02,0.02,0.03c0.37,0.63,0.71,1.27,1.02,1.92c11,19.8,32.12,33.19,56.36,33.19
	c35.59,0,64.44-28.85,64.44-64.44c0-35.58-28.85-64.44-64.44-64.44c-24.13,0-45.16,13.26-56.19,32.89
	c-0.01,0.01-0.01,0.01-0.01,0.02c-0.41,0.85-0.85,1.68-1.33,2.49c-1.85,3.15-4.18,5.96-6.9,8.36c-6.03,5.31-13.95,8.53-22.61,8.53
	c-16.89,0-21.88-24.5-3.98-52.29c3.68-5.45,7.87-10.49,12.52-15.06c19.34-19.07,46.56-30.18,78.51-30.18
	C255.05,445.88,271.54,439.58,284.12,427z M382.06,445.88c31.95,0,59.17,11.12,78.51,30.18c4.64,4.57,8.83,9.61,12.52,15.06
	c17.91,27.8,12.91,52.29-3.98,52.29c-8.66,0-16.58-3.22-22.61-8.53c-2.72-2.39-5.06-5.21-6.9-8.36c-0.48-0.81-0.92-1.64-1.33-2.49
	c-0.01-0.01-0.01-0.01-0.01-0.02c-11.03-19.63-32.06-32.89-56.19-32.89c-35.59,0-64.44,28.85-64.44,64.44
	c0,35.59,28.85,64.44,64.44,64.44c24.24,0,45.37-13.39,56.36-33.19c0.32-0.65,0.65-1.29,1.02-1.92c0-0.01,0.01-0.02,0.02-0.03
	c1.87-3.24,4.25-6.14,7.04-8.6c6.03-5.33,13.95-8.55,22.63-8.55c8.67,0,16.59,3.23,22.62,8.55c2.76,2.42,5.11,5.29,6.97,8.48
	c0.44,0.75,0.85,1.52,1.23,2.3c0.01,0.02,0.02,0.03,0.02,0.05c2.82,5.03,6.38,9.76,10.66,14.04C523.2,613.71,539.69,620,556.18,620
	s32.98-6.29,45.57-18.87c12.58-12.58,18.87-29.08,18.87-45.57c0-16.49-6.29-32.98-18.87-45.56c-6.63-6.63-14.35-11.52-22.6-14.65
	c0-0.01-0.01-0.01-0.01-0.01c-7.38-2.81-15.17-4.21-22.96-4.21c-24.82,0-46.8-6.72-64.44-18.66c-5.06-3.42-9.76-7.28-14.07-11.53
	c0,0-0.01,0.01-0.01,0c-4.64-4.57-8.83-9.61-12.51-15.05h0.02c-17.9-27.78-12.91-52.26,3.95-52.29h0.03
	c8.66,0.01,16.56,3.23,22.58,8.55c2.76,2.42,5.11,5.29,6.97,8.48c0.41,0.69,0.79,1.41,1.14,2.13c11,19.76,32.1,33.13,56.33,33.13
	c35.59,0,64.44-28.85,64.44-64.44c0-35.59-28.85-64.44-64.44-64.44c-24.35,0-45.54,13.5-56.49,33.43c-0.25,0.51-0.52,1.02-0.81,1.51
	c-1.88,3.32-4.29,6.28-7.13,8.79c-6.03,5.33-13.96,8.56-22.64,8.56c-8.66,0-16.58-3.22-22.61-8.53c-2.71-2.39-5.05-5.2-6.89-8.33
	c-0.49-0.84-0.95-1.7-1.38-2.58c-2.81-5-6.35-9.71-10.61-13.96c-12.58-12.58-29.07-18.87-45.56-18.87
	c-16.5,0-32.98,6.29-45.57,18.87c-12.58,12.58-18.87,29.07-18.87,45.57c0,16.49,6.29,32.98,18.87,45.56
	C349.07,439.58,365.56,445.88,382.06,445.88z"/>
</svg>
