<?xml version="1.0" encoding="utf-8"?>
<!-- Generator: Adobe Illustrator 26.2.1, SVG Export Plug-In . SVG Version: 6.00 Build 0)  -->
<svg version="1.1" id="Layer_1" xmlns="http://www.w3.org/2000/svg" xmlns:xlink="http://www.w3.org/1999/xlink" x="0px" y="0px"
	 viewBox="0 0 620.61 191.38" xml:space="preserve">
<g>
	<path d="M250.22,14.72c0-8.13,6.66-14.72,14.72-14.72c8.13,0,14.72,6.59,14.72,14.72c0,8.06-6.59,14.72-14.72,14.72
		C256.88,29.44,250.22,22.78,250.22,14.72z M276.27,14.72c0-6.4-4.99-11.52-11.33-11.52c-6.27,0-11.33,5.12-11.33,11.52
		c0,6.34,5.06,11.52,11.33,11.52C271.28,26.24,276.27,21.05,276.27,14.72z M259.63,22.14V7.42h6.27c3.33,0,5.12,1.86,5.12,4.1
		c0,1.92-1.22,3.46-2.82,3.84c1.73,0,2.62,0.51,2.62,2.11v4.67h-3.39V18.3c0-1.15-0.38-1.47-1.6-1.47h-2.82v5.31H259.63z
		 M263.02,14.01h2.43c1.28,0,2.18-0.64,2.18-1.98c0-1.28-0.77-1.79-2.24-1.79h-2.37V14.01z"/>
	<g>
		<path d="M168.55,190.8c0-63.57,0-126.99,0-190.49c0.44-0.03,0.8-0.07,1.16-0.07c15.45,0,30.91-0.02,46.36,0.05
			c2.55,0.01,5.1,0.44,7.64,0.72c3.27,0.36,6.37,1.33,9.3,2.8c3.46,1.74,6.23,4.24,8.17,7.6c1.91,3.32,2.87,6.91,3.27,10.72
			c0.33,3.16,0.4,6.32,0.4,9.49c0,9.61,0.01,19.22-0.01,28.83c-0.01,2.7,0,5.41-0.19,8.11c-0.19,2.73-0.54,5.44-1.52,8.05
			c-1.3,3.42-3.49,6.13-6.32,8.37c-1.53,1.21-3.15,2.32-4.73,3.47c-0.21,0.16-0.42,0.32-0.62,0.47c0.11,0.68,0.67,0.73,1.04,0.92
			c1.63,0.82,3.21,1.69,4.67,2.79c3.54,2.67,5.7,6.21,6.66,10.5c0.59,2.64,0.86,5.33,0.87,8.04c0.05,16.05,0.12,32.09,0.11,48.14
			c0,3.26-0.19,6.52-0.51,9.77c-0.32,3.34-1.04,6.62-2.69,9.62c-1.55,2.82-3.65,5.16-6.19,7.11c-2.05,1.58-4.34,2.73-6.81,3.48
			c-1.51,0.46-3.07,0.77-4.64,0.98c-3.1,0.43-6.22,0.55-9.35,0.54c-14.8-0.03-29.6-0.01-44.4-0.01
			C169.71,190.8,169.16,190.8,168.55,190.8z M201.11,164.86c0.25,0.12,0.33,0.19,0.41,0.19c2.14-0.07,4.3,0.02,6.42-0.26
			c2.63-0.34,3.97-1.75,4.27-4.22c0.17-1.38,0.28-2.78,0.28-4.17c0.02-12.58,0.02-25.17,0.01-37.75c0-3.49,0.19-6.99-0.3-10.47
			c-0.15-1.1-0.4-2.2-0.76-3.24c-0.57-1.66-1.82-2.63-3.52-3.08c-1.93-0.51-3.89-0.32-5.84-0.37c-0.31-0.01-0.62,0.07-0.97,0.12
			C201.11,122.73,201.11,143.78,201.11,164.86z M201.11,75.48c0.22,0.09,0.35,0.18,0.48,0.18c2-0.05,4.01-0.01,6-0.18
			c2.38-0.2,3.98-1.53,4.51-3.9c0.25-1.13,0.36-2.31,0.36-3.46c0.04-9.6,0.05-19.2,0.03-28.8c-0.01-2.51-0.14-5.02-0.3-7.53
			c-0.21-3.2-1.92-5.11-5.07-5.55c-1.65-0.23-3.34-0.18-5.02-0.23c-0.31-0.01-0.62,0.09-0.98,0.14
			C201.11,42.61,201.11,59.01,201.11,75.48z"/>
		<path d="M85.21,0.32c10.87,0,21.49,0,32.28,0c0,0.67,0,1.26,0,1.85c0,50.05,0,100.1,0.01,150.16
			c0,2.28,0.09,4.57,0.25,6.84c0.07,1.05,0.33,2.12,0.66,3.12c0.87,2.7,2.94,3.64,5.73,3.28c1.92-0.25,3.16-1.36,3.78-3.25
			c0.46-1.38,0.78-2.77,0.81-4.22c0.06-3.49,0.19-6.99,0.19-10.48c0.01-48.47,0.01-96.93,0.01-145.4c0-0.6,0-1.19,0-1.75
			c1.16-0.27,29.64-0.36,32.12-0.13c0.05,0.28,0.14,0.58,0.16,0.88c0.03,0.42,0.01,0.84,0.01,1.26c0,52.57,0.01,105.14-0.02,157.71
			c0,3.12-0.03,6.26-0.39,9.35c-0.62,5.43-2.35,10.44-6.58,14.24c-3.02,2.71-6.38,4.87-10.32,5.92c-1.97,0.52-4.01,0.87-6.04,1.07
			c-2.69,0.26-5.4,0.36-8.1,0.42c-4.01,0.09-8.03,0.16-12.04,0.12c-4.24-0.04-8.48-0.25-12.67-1.02c-4.53-0.83-8.62-2.53-12.04-5.74
			c-2.06-1.93-3.92-3.98-5.17-6.53c-1.12-2.27-1.68-4.71-2.05-7.21c-0.74-5.01-0.57-10.05-0.57-15.08
			C85.21,104.58,85.21,53.4,85.21,2.23C85.21,1.64,85.21,1.04,85.21,0.32z"/>
		<path d="M544.22,111.86c1.58-0.3,31.46-0.25,32.61,0.04c0.01,0.51,0.04,1.05,0.04,1.6c0,13.81,0,27.61,0,41.42
			c0,1.77-0.1,3.55,0.37,5.28c0.25,0.89,0.51,1.8,0.93,2.62c0.91,1.8,2.48,2.56,4.47,2.53c1.95-0.03,3.39-0.88,4.29-2.61
			c0.68-1.3,1.02-2.7,1.12-4.15c0.09-1.3,0.13-2.61,0.13-3.92c0-12.41,0-24.82-0.03-37.22c0-1.63-0.14-3.26-0.29-4.88
			c-0.24-2.5-1.61-4.35-3.65-5.68c-2.73-1.78-5.51-3.48-8.31-5.16c-6.35-3.81-12.76-7.53-19.07-11.41
			c-3.67-2.26-6.97-4.99-9.18-8.82c-1.18-2.04-1.97-4.21-2.44-6.5c-0.68-3.34-0.89-6.73-0.9-10.14c-0.02-11.8-0.11-23.6-0.08-35.4
			c0.01-2.88,0.15-5.79,0.54-8.64c0.56-4.08,1.63-8.05,4.37-11.31c0.89-1.07,1.84-2.13,2.94-2.98c3.7-2.87,7.83-4.82,12.52-5.51
			c3.19-0.47,6.37-0.82,9.6-0.85c4.15-0.04,8.3-0.19,12.45-0.19c2.98,0,5.97,0.07,8.95,0.29c3.3,0.24,6.58,0.67,9.7,1.86
			c2.37,0.9,4.52,2.18,6.51,3.74c1.7,1.33,3.19,2.84,4.42,4.63c1.84,2.71,2.94,5.69,3.53,8.88c0.73,4,0.86,8.05,0.85,12.11
			c-0.02,10.87-0.01,21.74-0.01,32.61c0,0.51,0,1.02,0,1.43c-0.48,0.58-1.03,0.42-1.52,0.42c-3.27,0.01-6.54,0.01-9.8,0.01
			c-6.44,0-12.88,0-19.33-0.01c-0.54,0-1.08-0.1-1.76-0.17c0-0.63,0-1.13,0-1.63c-0.01-9.89-0.02-19.78-0.04-29.67
			c0-1.73-0.06-3.45-0.56-5.12c-0.15-0.49-0.27-0.99-0.5-1.45c-0.69-1.38-1.78-2.26-3.36-2.42c-3.45-0.34-5.33,0.6-6.22,3.73
			c-0.29,1.02-0.41,2.1-0.57,3.16c-0.07,0.5-0.05,1.02-0.05,1.54c0,10.59,0,21.18,0.01,31.77c0,0.6,0.02,1.21,0.11,1.81
			c0.25,1.78,1.21,3.12,2.69,4.07c2.35,1.51,4.73,2.98,7.11,4.44c7.18,4.42,14.37,8.81,21.53,13.26c2.38,1.48,4.59,3.19,6.53,5.24
			c2.17,2.29,3.54,4.99,4.4,7.99c0.63,2.2,0.92,4.47,1.03,6.75c0.15,3.12,0.29,6.24,0.3,9.36c0.02,14.6,0.02,29.2-0.04,43.8
			c-0.01,2.78-0.23,5.57-0.67,8.34c-0.32,1.99-0.77,3.91-1.45,5.8c-0.8,2.22-2.03,4.19-3.6,5.93c-2.5,2.76-5.33,5.11-8.91,6.33
			c-1.75,0.6-3.56,1.1-5.39,1.43c-3.72,0.67-7.49,0.92-11.27,0.95c-4.2,0.04-8.4,0.17-12.6,0.11c-4.29-0.06-8.58-0.19-12.8-1.04
			c-3.99-0.8-7.6-2.46-10.85-4.92c-4.33-3.28-6.78-7.68-7.86-12.95c-0.72-3.49-0.92-7.02-0.92-10.56
			c-0.04-16.19-0.02-32.37-0.02-48.56C544.22,112.84,544.22,112.38,544.22,111.86z"/>
		<path d="M76.32,65.7c-1.29,0.36-22.48,0.51-31.07,0.26c-0.36-0.01-0.71-0.09-1.21-0.16c0-0.59,0-1.09,0-1.6
			c0-7.56,0.03-15.11-0.01-22.67c-0.02-3.26-0.08-6.53-0.29-9.78c-0.09-1.32-0.48-2.66-0.99-3.89c-0.49-1.19-1.47-1.97-2.83-2.25
			c-1.23-0.25-2.41-0.21-3.6,0.1c-1.42,0.37-2.31,1.37-2.8,2.71c-0.6,1.63-0.89,3.33-0.9,5.06c-0.03,3.22-0.03,6.44-0.03,9.66
			c0,7.51,0.02,15.02,0.03,22.53c0,0.51,0,1.03,0.07,1.54c0.24,1.91,1.15,3.41,2.81,4.44c2.73,1.69,5.45,3.4,8.19,5.08
			c6.58,4.05,13.19,8.06,19.76,12.14c2.49,1.55,4.85,3.29,6.91,5.43c2.36,2.45,3.96,5.3,4.7,8.58c0.45,1.99,0.67,4.03,0.92,6.06
			c0.5,3.95,0.32,7.91,0.33,11.87c0,14.18,0.03,28.36-0.07,42.54c-0.02,3.38-0.36,6.77-1.11,10.11c-1.12,4.94-3.82,8.81-7.66,12.01
			c-3.45,2.87-7.49,4.22-11.85,4.88c-7.92,1.21-15.9,1.04-23.88,0.97c-2.98-0.03-5.97-0.24-8.93-0.54c-6-0.61-11.37-2.76-15.84-6.92
			c-2.76-2.58-4.6-5.73-5.56-9.36c-0.47-1.79-0.71-3.64-1.03-5.47c-0.55-3.1-0.36-6.23-0.36-9.35c-0.02-15.39-0.01-30.79-0.01-46.18
			c0-0.55,0-1.1,0-1.61c1.41-0.3,31.37-0.27,32.57,0.05c0,0.5,0,1.04,0,1.59c0,13.72,0,27.43,0,41.15c0,2-0.07,4.01,0.49,5.97
			c0.1,0.36,0.21,0.71,0.31,1.07c0.65,2.34,2.7,3.83,5.28,3.66c2.25-0.14,3.83-1.56,4.6-4.04c0.41-1.34,0.58-2.72,0.6-4.13
			c0.05-5.97,0.14-11.93,0.17-17.9c0.03-5.32,0.03-10.64,0-15.95c-0.02-3.17-0.1-6.34-0.25-9.5c-0.14-2.9-1.23-5.34-3.81-6.93
			c-3.33-2.05-6.64-4.13-10-6.14c-4.6-2.75-9.25-5.41-13.83-8.19c-3.1-1.89-6.23-3.76-8.89-6.27c-2.92-2.75-4.98-6-5.95-9.91
			c-0.47-1.9-0.75-3.82-0.98-5.77C0,67.82,0.04,65.03,0.03,62.24C0.02,50.3,0.02,38.35,0.07,26.41c0.01-3.83,0.56-7.61,1.76-11.26
			c1.26-3.83,3.6-6.9,6.87-9.27c3.14-2.28,6.61-3.83,10.39-4.62c1.73-0.36,3.49-0.58,5.25-0.73c2.13-0.19,4.28-0.28,6.42-0.33
			C34.73,0.09,38.7,0,42.66,0c2.89,0,5.79,0.06,8.67,0.29c3.52,0.29,7.04,0.7,10.36,2.1c1.99,0.84,3.81,1.95,5.52,3.24
			c1.99,1.5,3.72,3.23,5.07,5.34c1.6,2.51,2.6,5.24,3.16,8.14c0.76,3.86,0.88,7.77,0.87,11.69c-0.01,11.1,0,22.21,0,33.31
			C76.32,64.62,76.32,65.13,76.32,65.7z"/>
		<path d="M435.14,111.87c0.39-0.09,0.66-0.19,0.92-0.19c10.49-0.01,20.98-0.01,31.58-0.01c0.03,0.6,0.06,1.05,0.06,1.5
			c-0.01,16.65,0,33.31-0.04,49.96c-0.01,2.42-0.14,4.85-0.38,7.25c-0.34,3.38-1.58,6.48-3.4,9.35c-2.69,4.24-6.4,7.23-11.08,9
			c-3.02,1.15-6.18,1.74-9.39,2.06c-6.33,0.61-12.68,0.63-19.02,0.52c-4.38-0.08-8.77-0.21-13.09-1.03
			c-3.19-0.6-6.17-1.75-8.91-3.51c-1.09-0.7-2.18-1.44-3.18-2.27c-3.51-2.89-5.58-6.63-6.67-11.03c-0.91-3.7-1.14-7.45-1.14-11.22
			c0-30.79,0-61.58,0-92.37c0-13.86,0-27.71,0-41.57c0-3.08,0.2-6.14,0.8-9.17c1.33-6.69,4.88-11.76,10.77-15.24
			c3.45-2.04,7.19-3.03,11.13-3.35c2.55-0.21,5.12-0.28,7.68-0.38c2.14-0.08,4.29-0.19,6.43-0.17c4.43,0.04,8.87,0.02,13.29,0.29
			c3.8,0.24,7.63,0.66,11.21,2.12c5.9,2.41,10.38,6.27,12.77,12.34c0.98,2.49,1.63,5.05,1.87,7.69c0.19,2.08,0.3,4.18,0.31,6.28
			c0.03,11.9,0.02,23.79,0.02,35.69c0,0.46,0,0.91,0,1.34c-1.2,0.28-31.09,0.3-32.53,0.03c-0.01-0.47-0.03-0.97-0.03-1.47
			c-0.01-10.12-0.02-20.25-0.03-30.37c0-1.69-0.32-3.33-0.87-4.93c-1.17-3.43-5.14-4.19-7.72-2.44c-0.62,0.42-1.13,1.11-1.51,1.78
			c-0.65,1.14-1.04,2.39-1.08,3.72c-0.08,2.47-0.22,4.94-0.22,7.4c-0.01,36.9-0.02,73.8,0,110.71c0,2.93,0.13,5.87,0.26,8.8
			c0.07,1.6,0.52,3.12,1.42,4.47c2.2,3.29,7.08,2.63,8.53-0.55c0.77-1.7,1.04-3.47,1.17-5.28c0.08-1.16,0.04-2.33,0.04-3.5
			c0-13.53,0-27.06,0-40.59C435.14,113,435.14,112.45,435.14,111.87z"/>
		<path d="M290.96,0.31c10.97,0,21.7,0,32.46,0c0.08,0.25,0.18,0.47,0.2,0.69c0.03,0.42,0.01,0.84,0.01,1.26
			c0,52.57,0,105.14-0.01,157.71c0,4.15-0.22,8.29-1.02,12.38c-1.36,6.93-5.17,12.04-11.4,15.35c-3,1.6-6.25,2.38-9.59,2.85
			c-4.95,0.7-9.94,0.84-14.93,0.8c-3.27-0.02-6.54-0.04-9.79-0.26c-3.94-0.27-7.89-0.68-11.64-2.09c-4.6-1.72-8.23-4.71-11.14-8.58
			c-1.58-2.1-2.47-4.58-2.96-7.17c-0.57-3.02-0.91-6.08-0.91-9.16c-0.01-17.12-0.02-34.24-0.02-51.36c0-0.41,0.05-0.81,0.08-1.29
			c9.77,0,19.46,0,29.31,0c0.02,0.58,0.05,1.12,0.05,1.66c0,13.53-0.01,27.06,0.01,40.58c0,2.05,0.12,4.1,0.29,6.14
			c0.07,0.87,0.35,1.73,0.65,2.56c0.97,2.66,3.08,3.57,5.81,3.19c2.22-0.31,3.4-1.78,3.93-3.83c0.33-1.26,0.59-2.54,0.57-3.86
			c-0.02-1.54,0.03-3.08,0.03-4.62c0-50.33,0-100.66,0-151C290.96,1.67,290.96,1.08,290.96,0.31z"/>
		<path d="M363.92,165.05c1.77,0.07,3.49,0.03,5.2,0.03c1.73,0.01,3.46,0,5.18,0c1.68,0,3.36,0,5.04,0
			c1.72,0,3.43,0.01,5.01,0.02c0.17,0.19,0.21,0.22,0.23,0.26c0.03,0.04,0.06,0.08,0.06,0.12c0.03,7.97,0.05,15.95,0.08,23.92
			c0,0.32-0.02,0.65-0.05,0.97c-0.01,0.08-0.09,0.16-0.13,0.24c-1.05,0.23-51.58,0.28-53.15,0.05
			c-0.23-1.07-0.26-188.88-0.03-190.26c1.04-0.21,51.53-0.27,53.16-0.06c0.03,0.03,0.07,0.06,0.1,0.1c0.03,0.04,0.06,0.08,0.06,0.12
			c0.02,8.16,0.04,16.33,0.05,24.49c0,0.23-0.04,0.46-0.07,0.84c-0.51,0.03-1,0.08-1.49,0.08c-5.88,0.01-11.77,0-17.65,0
			c-0.5,0-1.01,0-1.66,0c-0.03,0.69-0.07,1.23-0.07,1.77c0,9.8,0,19.59,0,29.39c0,4.85,0,9.7,0,14.56c0,0.28-0.01,0.56,0,0.84
			c0.04,1.02,0.2,1.17,1.26,1.21c0.28,0.01,0.56,0,0.84,0c5.7,0,11.39,0,17.09,0c0.51,0,1.02,0,1.43,0
			c0.12,0.15,0.16,0.18,0.18,0.22c0.03,0.04,0.08,0.07,0.08,0.11c0.02,8.12,0.04,16.23,0.05,24.35c0,0.23-0.03,0.45-0.06,0.82
			c-0.53,0.03-1.02,0.07-1.52,0.07c-5.88,0.01-11.77,0-17.65,0c-0.5,0-1,0-1.36,0c-0.18,0.2-0.21,0.23-0.24,0.27
			c-0.02,0.04-0.04,0.08-0.05,0.13c-0.02,0.18-0.06,0.37-0.06,0.55c0,21.37,0,42.73,0.01,64.1
			C363.79,164.53,363.84,164.66,363.92,165.05z"/>
		<path d="M540.51,0.25c0,8.64,0,17.11,0,25.71c-2.02,0.07-3.97,0.02-5.91,0.03c-1.96,0.01-3.92,0-5.88,0
			c-1.95,0-3.9,0-5.91,0c-0.07,0.44-0.15,0.75-0.17,1.06c-0.03,0.37-0.01,0.75-0.01,1.12c0,53.55,0,107.1,0,160.65
			c0,0.6,0,1.2,0,1.76c-1.17,0.27-31,0.3-32.52,0.04c0-54.77,0-109.56,0-164.5c-0.65-0.05-1.19-0.13-1.73-0.13
			c-4.86-0.01-9.71-0.01-14.57-0.01c-0.5,0-1,0-1.46,0c-0.3-1.12-0.39-23.76-0.14-25.54c0.04-0.03,0.07-0.06,0.11-0.09
			c0.04-0.03,0.08-0.07,0.12-0.07c22.22-0.02,44.44-0.04,66.66-0.05C539.51,0.24,539.92,0.25,540.51,0.25z"/>
	</g>
</g>
</svg>
